STARTFONT 2.3
FONT -FontForge-Rajdhani-Book-R-Normal--10-100-72-72-P-61-ISO10646-1
SIZE 10 72 72  4
FONTBOUNDINGBOX 26 14 -5 -4
COMMENT "Generated by fontforge, http://fontforge.sourceforge.net"
COMMENT "Copyright (c) 2014 Indian Type Foundry (info@indiantypefoundry.com)"
STARTPROPERTIES 41
FOUNDRY "FontForge"
FAMILY_NAME "Rajdhani"
WEIGHT_NAME "Book"
SLANT "R"
SETWIDTH_NAME "Normal"
ADD_STYLE_NAME ""
PIXEL_SIZE 10
POINT_SIZE 100
RESOLUTION_X 72
RESOLUTION_Y 72
SPACING "P"
AVERAGE_WIDTH 61
CHARSET_REGISTRY "ISO10646"
CHARSET_ENCODING "1"
FONTNAME_REGISTRY ""
CHARSET_COLLECTIONS "ISO8859-2 ISO8859-9 ISO8859-4 ISO10646-1"
BITS_PER_PIXEL 4
FONT_NAME "Rajdhani-Regular"
FACE_NAME "Rajdhani Regular"
COPYRIGHT "Copyright (c) 2014 Indian Type Foundry (info@indiantypefoundry.com)"
FONT_VERSION "1.201;PS 1.0;hotconv 1.0.78;makeotf.lib2.5.61930; ttfautohint (v1.1) -l 7 -r 28 -G 50 -x 13 -D latn -f deva -w G"
FONT_ASCENT 8
FONT_DESCENT 2
UNDERLINE_POSITION -1
UNDERLINE_THICKNESS 1
X_HEIGHT 4
CAP_HEIGHT 5
DEFAULT_CHAR 3
RAW_ASCENT 800
RAW_DESCENT 200
NORM_SPACE 3
RELATIVE_WEIGHT 40
RELATIVE_SETWIDTH 50
SUPERSCRIPT_X 0
SUPERSCRIPT_Y 3
SUPERSCRIPT_SIZE 6
SUBSCRIPT_X 0
SUBSCRIPT_Y 0
SUBSCRIPT_SIZE 6
AVG_LOWERCASE_WIDTH 44
AVG_UPPERCASE_WIDTH 52
ENDPROPERTIES
CHARS 1043
STARTCHAR NULL.dup1
ENCODING 0
SWIDTH 0 0
DWIDTH 0 0
BBX 1 1 0 0
BITMAP
00
ENDCHAR
STARTCHAR CR
ENCODING 13
SWIDTH 0 0
DWIDTH 0 0
BBX 1 1 0 0
BITMAP
00
ENDCHAR
STARTCHAR space
ENCODING 32
SWIDTH 267 0
DWIDTH 3 0
BBX 1 1 0 0
BITMAP
00
ENDCHAR
STARTCHAR exclam
ENCODING 33
SWIDTH 237 0
DWIDTH 2 0
BBX 2 6 0 0
BITMAP
17
17
17
06
04
17
ENDCHAR
STARTCHAR quotedbl
ENCODING 34
SWIDTH 330 0
DWIDTH 3 0
BBX 3 2 0 4
BITMAP
5270
4150
ENDCHAR
STARTCHAR numbersign
ENCODING 35
SWIDTH 677 0
DWIDTH 7 0
BBX 7 6 0 0
BITMAP
00420600
05A79810
00707000
02507000
3A779300
06051000
ENDCHAR
STARTCHAR dollar
ENCODING 36
SWIDTH 504 0
DWIDTH 5 0
BBX 5 8 0 -1
BITMAP
006000
297920
430120
177800
000350
430350
187810
006000
ENDCHAR
STARTCHAR percent
ENCODING 37
SWIDTH 717 0
DWIDTH 7 0
BBX 7 6 0 0
BITMAP
46806000
60616000
26651000
00065540
00527060
00607660
ENDCHAR
STARTCHAR ampersand
ENCODING 38
SWIDTH 597 0
DWIDTH 6 0
BBX 6 6 0 0
BITMAP
068920
070130
082000
443872
430520
187881
ENDCHAR
STARTCHAR quotesingle
ENCODING 39
SWIDTH 186 0
DWIDTH 2 0
BBX 2 2 0 4
BITMAP
42
31
ENDCHAR
STARTCHAR parenleft
ENCODING 40
SWIDTH 283 0
DWIDTH 3 0
BBX 3 8 0 -2
BITMAP
2810
6100
7000
7000
7000
7000
6100
1610
ENDCHAR
STARTCHAR parenright
ENCODING 41
SWIDTH 283 0
DWIDTH 3 0
BBX 3 8 0 -2
BITMAP
3700
0520
0420
0420
0420
0420
0610
2500
ENDCHAR
STARTCHAR asterisk
ENCODING 42
SWIDTH 406 0
DWIDTH 4 0
BBX 4 3 0 3
BITMAP
1331
1661
0330
ENDCHAR
STARTCHAR plus
ENCODING 43
SWIDTH 523 0
DWIDTH 5 0
BBX 5 4 0 1
BITMAP
007000
27B730
007000
005000
ENDCHAR
STARTCHAR comma
ENCODING 44
SWIDTH 191 0
DWIDTH 2 0
BBX 2 3 0 -2
BITMAP
53
52
10
ENDCHAR
STARTCHAR hyphen
ENCODING 45
SWIDTH 312 0
DWIDTH 3 0
BBX 3 1 0 3
BITMAP
4640
ENDCHAR
STARTCHAR period
ENCODING 46
SWIDTH 191 0
DWIDTH 2 0
BBX 2 2 0 0
BITMAP
21
53
ENDCHAR
STARTCHAR slash
ENCODING 47
SWIDTH 396 0
DWIDTH 4 0
BBX 4 6 0 0
BITMAP
0053
0080
0260
0710
0800
3400
ENDCHAR
STARTCHAR zero
ENCODING 48
SWIDTH 514 0
DWIDTH 5 0
BBX 5 6 0 0
BITMAP
297930
530170
530070
530070
530170
297930
ENDCHAR
STARTCHAR one
ENCODING 49
SWIDTH 317 0
DWIDTH 3 0
BBX 3 6 0 0
BITMAP
3950
2350
0350
0350
0350
0350
ENDCHAR
STARTCHAR two
ENCODING 50
SWIDTH 478 0
DWIDTH 5 0
BBX 5 6 0 0
BITMAP
397910
510520
001800
037100
360000
687710
ENDCHAR
STARTCHAR three
ENCODING 51
SWIDTH 496 0
DWIDTH 5 0
BBX 5 6 0 0
BITMAP
297920
310440
005900
000430
520340
287810
ENDCHAR
STARTCHAR four
ENCODING 52
SWIDTH 520 0
DWIDTH 5 0
BBX 5 6 0 0
BITMAP
002C00
008700
053700
160700
577B50
000700
ENDCHAR
STARTCHAR five
ENCODING 53
SWIDTH 482 0
DWIDTH 5 0
BBX 5 6 0 0
BITMAP
587710
530000
576700
100440
420440
297910
ENDCHAR
STARTCHAR six
ENCODING 54
SWIDTH 497 0
DWIDTH 5 0
BBX 5 6 0 0
BITMAP
297700
620000
677700
610440
620350
297910
ENDCHAR
STARTCHAR seven
ENCODING 55
SWIDTH 380 0
DWIDTH 4 0
BBX 4 6 0 0
BITMAP
6778
0052
0080
0350
0800
0700
ENDCHAR
STARTCHAR eight
ENCODING 56
SWIDTH 519 0
DWIDTH 5 0
BBX 5 6 0 0
BITMAP
297840
530070
1A6A20
430170
530070
187830
ENDCHAR
STARTCHAR nine
ENCODING 57
SWIDTH 497 0
DWIDTH 5 0
BBX 5 6 0 0
BITMAP
297910
610350
620350
187850
000350
177910
ENDCHAR
STARTCHAR colon
ENCODING 58
SWIDTH 191 0
DWIDTH 2 0
BBX 2 5 0 0
BITMAP
53
21
00
21
53
ENDCHAR
STARTCHAR semicolon
ENCODING 59
SWIDTH 191 0
DWIDTH 2 0
BBX 2 6 0 -1
BITMAP
53
21
00
32
53
30
ENDCHAR
STARTCHAR less
ENCODING 60
SWIDTH 513 0
DWIDTH 5 0
BBX 5 4 0 1
BITMAP
003730
384000
057510
000230
ENDCHAR
STARTCHAR equal
ENCODING 61
SWIDTH 531 0
DWIDTH 5 0
BBX 5 3 0 2
BITMAP
166630
000000
277730
ENDCHAR
STARTCHAR greater
ENCODING 62
SWIDTH 531 0
DWIDTH 5 0
BBX 5 4 0 1
BITMAP
274000
003750
047610
230000
ENDCHAR
STARTCHAR question
ENCODING 63
SWIDTH 473 0
DWIDTH 5 0
BBX 4 6 0 0
BITMAP
1978
3308
0045
0070
0030
0080
ENDCHAR
STARTCHAR at
ENCODING 64
SWIDTH 753 0
DWIDTH 8 0
BBX 7 7 0 -1
BITMAP
01655620
07367260
24704360
33704360
24706360
07366620
01666100
ENDCHAR
STARTCHAR A
ENCODING 65
SWIDTH 533 0
DWIDTH 5 0
BBX 5 6 0 0
BITMAP
00B300
036700
081900
090630
3A7880
810080
ENDCHAR
STARTCHAR B
ENCODING 66
SWIDTH 546 0
DWIDTH 5 0
BBX 5 6 0 0
BITMAP
2A7760
250080
296850
250080
250070
2A7750
ENDCHAR
STARTCHAR C
ENCODING 67
SWIDTH 542 0
DWIDTH 5 0
BBX 5 6 0 0
BITMAP
197760
440070
440000
440000
440070
197760
ENDCHAR
STARTCHAR D
ENCODING 68
SWIDTH 557 0
DWIDTH 6 0
BBX 5 6 0 0
BITMAP
2A7760
250080
250080
250080
250080
2A7770
ENDCHAR
STARTCHAR E
ENCODING 69
SWIDTH 481 0
DWIDTH 5 0
BBX 5 6 0 0
BITMAP
2A7710
250000
2A7600
250000
250000
2A7710
ENDCHAR
STARTCHAR F
ENCODING 70
SWIDTH 459 0
DWIDTH 5 0
BBX 5 6 0 0
BITMAP
2A7710
250000
2A7600
250000
250000
250000
ENDCHAR
STARTCHAR G
ENCODING 71
SWIDTH 539 0
DWIDTH 5 0
BBX 5 6 0 0
BITMAP
197860
440040
441760
440080
440080
197840
ENDCHAR
STARTCHAR H
ENCODING 72
SWIDTH 570 0
DWIDTH 6 0
BBX 5 6 0 0
BITMAP
250070
250080
2966A0
250080
250080
250070
ENDCHAR
STARTCHAR I
ENCODING 73
SWIDTH 230 0
DWIDTH 2 0
BBX 2 6 0 0
BITMAP
16
16
16
16
16
16
ENDCHAR
STARTCHAR J
ENCODING 74
SWIDTH 499 0
DWIDTH 5 0
BBX 5 6 0 0
BITMAP
000530
000530
000530
200530
800530
587900
ENDCHAR
STARTCHAR K
ENCODING 75
SWIDTH 530 0
DWIDTH 5 0
BBX 5 6 0 0
BITMAP
250350
252800
26A000
2B5400
250710
250080
ENDCHAR
STARTCHAR L
ENCODING 76
SWIDTH 451 0
DWIDTH 5 0
BBX 5 6 0 0
BITMAP
250000
250000
250000
250000
250000
2A7720
ENDCHAR
STARTCHAR M
ENCODING 77
SWIDTH 696 0
DWIDTH 7 0
BBX 7 6 0 0
BITMAP
2B000C20
29404920
25708620
25564620
25080620
25000620
ENDCHAR
STARTCHAR N
ENCODING 78
SWIDTH 579 0
DWIDTH 6 0
BBX 5 6 0 0
BITMAP
290070
2A4080
258080
252780
2506A0
2500B0
ENDCHAR
STARTCHAR O
ENCODING 79
SWIDTH 553 0
DWIDTH 6 0
BBX 5 6 0 0
BITMAP
197760
440080
440080
440080
440080
197760
ENDCHAR
STARTCHAR P
ENCODING 80
SWIDTH 524 0
DWIDTH 5 0
BBX 5 6 0 0
BITMAP
2A7850
250080
250080
2A7730
250000
250000
ENDCHAR
STARTCHAR Q
ENCODING 81
SWIDTH 556 0
DWIDTH 6 0
BBX 5 7 0 -1
BITMAP
197760
340080
440080
440080
340080
197860
000710
ENDCHAR
STARTCHAR R
ENCODING 82
SWIDTH 534 0
DWIDTH 5 0
BBX 5 6 0 0
BITMAP
2A7840
250080
250080
296A20
250710
250170
ENDCHAR
STARTCHAR S
ENCODING 83
SWIDTH 562 0
DWIDTH 6 0
BBX 5 6 0 0
BITMAP
097760
350050
184100
002660
240080
097760
ENDCHAR
STARTCHAR T
ENCODING 84
SWIDTH 420 0
DWIDTH 4 0
BBX 4 6 0 0
BITMAP
58A7
0250
0250
0250
0250
0250
ENDCHAR
STARTCHAR U
ENCODING 85
SWIDTH 552 0
DWIDTH 6 0
BBX 5 6 0 0
BITMAP
340070
340080
340080
340080
350080
197860
ENDCHAR
STARTCHAR V
ENCODING 86
SWIDTH 500 0
DWIDTH 5 0
BBX 5 6 0 0
BITMAP
800080
440440
070700
080800
056500
00C000
ENDCHAR
STARTCHAR W
ENCODING 87
SWIDTH 794 0
DWIDTH 8 0
BBX 8 6 0 0
BITMAP
80076018
53077044
26167071
08523480
07700770
06700850
ENDCHAR
STARTCHAR X
ENCODING 88
SWIDTH 504 0
DWIDTH 5 0
BBX 5 6 0 0
BITMAP
440350
080800
01B200
039400
080800
620260
ENDCHAR
STARTCHAR Y
ENCODING 89
SWIDTH 493 0
DWIDTH 5 0
BBX 5 6 0 0
BITMAP
710260
170800
074500
01B000
008000
007000
ENDCHAR
STARTCHAR Z
ENCODING 90
SWIDTH 482 0
DWIDTH 5 0
BBX 5 6 0 0
BITMAP
377B30
001800
007100
045000
180000
797730
ENDCHAR
STARTCHAR bracketleft
ENCODING 91
SWIDTH 287 0
DWIDTH 3 0
BBX 3 8 0 -2
BITMAP
5710
5100
5100
5100
5100
5100
5100
4610
ENDCHAR
STARTCHAR backslash
ENCODING 92
SWIDTH 396 0
DWIDTH 4 0
BBX 4 6 0 0
BITMAP
3400
0800
0710
0260
0080
0053
ENDCHAR
STARTCHAR bracketright
ENCODING 93
SWIDTH 287 0
DWIDTH 3 0
BBX 3 8 0 -2
BITMAP
2920
0420
0420
0420
0420
0420
0420
2710
ENDCHAR
STARTCHAR asciicircum
ENCODING 94
SWIDTH 465 0
DWIDTH 5 0
BBX 4 3 0 3
BITMAP
0491
0717
2103
ENDCHAR
STARTCHAR underscore
ENCODING 95
SWIDTH 372 0
DWIDTH 4 0
BBX 4 1 0 -1
BITMAP
5554
ENDCHAR
STARTCHAR grave
ENCODING 96
SWIDTH 269 0
DWIDTH 3 0
BBX 2 2 0 5
BITMAP
27
03
ENDCHAR
STARTCHAR a
ENCODING 97
SWIDTH 502 0
DWIDTH 5 0
BBX 5 5 0 0
BITMAP
187940
530440
520440
530440
197940
ENDCHAR
STARTCHAR b
ENCODING 98
SWIDTH 504 0
DWIDTH 5 0
BBX 5 7 0 0
BITMAP
440000
440000
497920
440260
440260
440260
497920
ENDCHAR
STARTCHAR c
ENCODING 99
SWIDTH 394 0
DWIDTH 4 0
BBX 4 5 0 0
BITMAP
1874
5300
5200
5300
1974
ENDCHAR
STARTCHAR d
ENCODING 100
SWIDTH 504 0
DWIDTH 5 0
BBX 5 7 0 0
BITMAP
000340
000340
297840
530340
520340
530340
297940
ENDCHAR
STARTCHAR e
ENCODING 101
SWIDTH 492 0
DWIDTH 5 0
BBX 5 5 0 0
BITMAP
197910
530350
576730
530000
197710
ENDCHAR
STARTCHAR f
ENCODING 102
SWIDTH 303 0
DWIDTH 3 0
BBX 3 7 0 0
BITMAP
0650
0800
4B50
0800
0800
0800
0700
ENDCHAR
STARTCHAR g
ENCODING 103
SWIDTH 506 0
DWIDTH 5 0
BBX 5 6 0 -1
BITMAP
197850
430350
530350
440450
077850
077910
ENDCHAR
STARTCHAR h
ENCODING 104
SWIDTH 507 0
DWIDTH 5 0
BBX 5 7 0 0
BITMAP
440000
440000
497820
440250
440260
440260
440260
ENDCHAR
STARTCHAR i
ENCODING 105
SWIDTH 210 0
DWIDTH 2 0
BBX 2 7 0 0
BITMAP
34
01
34
34
34
34
34
ENDCHAR
STARTCHAR j
ENCODING 106
SWIDTH 210 0
DWIDTH 2 0
BBX 3 8 -1 -1
BITMAP
0340
0010
0340
0340
0340
0340
0340
3910
ENDCHAR
STARTCHAR k
ENCODING 107
SWIDTH 431 0
DWIDTH 4 0
BBX 5 7 0 0
BITMAP
440000
440000
440800
447200
448000
446300
440810
ENDCHAR
STARTCHAR l
ENCODING 108
SWIDTH 210 0
DWIDTH 2 0
BBX 2 7 0 0
BITMAP
34
34
34
34
34
34
34
ENDCHAR
STARTCHAR m
ENCODING 109
SWIDTH 769 0
DWIDTH 8 0
BBX 7 5 0 0
BITMAP
49786780
44062080
44062080
44062080
44062070
ENDCHAR
STARTCHAR n
ENCODING 110
SWIDTH 507 0
DWIDTH 5 0
BBX 5 5 0 0
BITMAP
497820
440250
440260
440260
440260
ENDCHAR
STARTCHAR o
ENCODING 111
SWIDTH 496 0
DWIDTH 5 0
BBX 5 5 0 0
BITMAP
197910
530340
520350
530340
197910
ENDCHAR
STARTCHAR p
ENCODING 112
SWIDTH 504 0
DWIDTH 5 0
BBX 5 6 0 -1
BITMAP
497920
440260
440260
440260
497920
440000
ENDCHAR
STARTCHAR q
ENCODING 113
SWIDTH 502 0
DWIDTH 5 0
BBX 5 6 0 -1
BITMAP
187940
530440
520440
530440
197940
000340
ENDCHAR
STARTCHAR r
ENCODING 114
SWIDTH 313 0
DWIDTH 3 0
BBX 3 5 0 0
BITMAP
4850
4400
4400
4400
4400
ENDCHAR
STARTCHAR s
ENCODING 115
SWIDTH 431 0
DWIDTH 4 0
BBX 4 5 0 0
BITMAP
4873
6300
0573
0008
3777
ENDCHAR
STARTCHAR t
ENCODING 116
SWIDTH 347 0
DWIDTH 3 0
BBX 3 6 0 0
BITMAP
0700
5B60
0800
0800
0800
0770
ENDCHAR
STARTCHAR u
ENCODING 117
SWIDTH 507 0
DWIDTH 5 0
BBX 5 5 0 0
BITMAP
430350
430350
430350
430350
197950
ENDCHAR
STARTCHAR v
ENCODING 118
SWIDTH 416 0
DWIDTH 4 0
BBX 4 5 0 0
BITMAP
8007
5207
1753
0770
0670
ENDCHAR
STARTCHAR w
ENCODING 119
SWIDTH 683 0
DWIDTH 7 0
BBX 7 5 0 0
BITMAP
800B0170
62481530
16725700
07707700
07607500
ENDCHAR
STARTCHAR x
ENCODING 120
SWIDTH 413 0
DWIDTH 4 0
BBX 4 5 0 0
BITMAP
6217
0871
0680
0871
7218
ENDCHAR
STARTCHAR y
ENCODING 121
SWIDTH 459 0
DWIDTH 5 0
BBX 5 6 0 -1
BITMAP
700520
350800
082600
069100
019000
382000
ENDCHAR
STARTCHAR z
ENCODING 122
SWIDTH 405 0
DWIDTH 4 0
BBX 4 5 0 0
BITMAP
4788
0081
0450
1800
8875
ENDCHAR
STARTCHAR braceleft
ENCODING 123
SWIDTH 298 0
DWIDTH 3 0
BBX 3 8 0 -2
BITMAP
0720
0700
0700
6400
0700
0700
0700
0420
ENDCHAR
STARTCHAR bar
ENCODING 124
SWIDTH 207 0
DWIDTH 2 0
BBX 2 6 0 0
BITMAP
33
34
34
34
34
33
ENDCHAR
STARTCHAR braceright
ENCODING 125
SWIDTH 298 0
DWIDTH 3 0
BBX 3 8 0 -2
BITMAP
4500
0700
0700
0730
0700
0700
0700
4300
ENDCHAR
STARTCHAR asciitilde
ENCODING 126
SWIDTH 523 0
DWIDTH 5 0
BBX 5 1 0 3
BITMAP
155520
ENDCHAR
STARTCHAR uni00A0
ENCODING 160
SWIDTH 267 0
DWIDTH 3 0
BBX 1 1 0 0
BITMAP
00
ENDCHAR
STARTCHAR exclamdown
ENCODING 161
SWIDTH 237 0
DWIDTH 2 0
BBX 2 6 0 0
BITMAP
17
04
06
17
17
17
ENDCHAR
STARTCHAR cent
ENCODING 162
SWIDTH 414 0
DWIDTH 4 0
BBX 4 7 0 -1
BITMAP
0070
2975
5300
5200
5300
2975
0060
ENDCHAR
STARTCHAR sterling
ENCODING 163
SWIDTH 528 0
DWIDTH 5 0
BBX 5 6 0 0
BITMAP
077830
080060
080000
4B7200
070000
5B7740
ENDCHAR
STARTCHAR yen
ENCODING 165
SWIDTH 499 0
DWIDTH 5 0
BBX 5 6 0 0
BITMAP
620260
070700
388830
00A000
36A630
007000
ENDCHAR
STARTCHAR brokenbar
ENCODING 166
SWIDTH 201 0
DWIDTH 2 0
BBX 2 6 0 0
BITMAP
33
33
22
22
33
33
ENDCHAR
STARTCHAR section
ENCODING 167
SWIDTH 454 0
DWIDTH 5 0
BBX 4 6 0 0
BITMAP
3974
6500
6467
2758
001A
2778
ENDCHAR
STARTCHAR dieresis
ENCODING 168
SWIDTH 345 0
DWIDTH 3 0
BBX 3 2 0 5
BITMAP
5270
1020
ENDCHAR
STARTCHAR copyright
ENCODING 169
SWIDTH 723 0
DWIDTH 7 0
BBX 7 6 0 0
BITMAP
18666730
42657060
42602060
42605060
42455060
18666730
ENDCHAR
STARTCHAR guillemotleft
ENCODING 171
SWIDTH 431 0
DWIDTH 4 0
BBX 4 4 0 1
BITMAP
0011
0654
4370
0645
ENDCHAR
STARTCHAR registered
ENCODING 174
SWIDTH 439 0
DWIDTH 4 0
BBX 4 4 0 3
BITMAP
2545
4575
4335
0543
ENDCHAR
STARTCHAR macron
ENCODING 175
SWIDTH 358 0
DWIDTH 4 0
BBX 3 1 0 5
BITMAP
2650
ENDCHAR
STARTCHAR degree
ENCODING 176
SWIDTH 298 0
DWIDTH 3 0
BBX 3 2 0 5
BITMAP
3720
1610
ENDCHAR
STARTCHAR plusminus
ENCODING 177
SWIDTH 523 0
DWIDTH 5 0
BBX 5 4 0 1
BITMAP
007000
26A630
005000
266630
ENDCHAR
STARTCHAR acute
ENCODING 180
SWIDTH 269 0
DWIDTH 3 0
BBX 2 2 0 5
BITMAP
09
21
ENDCHAR
STARTCHAR paragraph
ENCODING 182
SWIDTH 513 0
DWIDTH 5 0
BBX 5 6 0 0
BITMAP
4E8840
7F2340
4E2340
042340
042340
042340
ENDCHAR
STARTCHAR periodcentered
ENCODING 183
SWIDTH 207 0
DWIDTH 2 0
BBX 2 2 0 2
BITMAP
45
11
ENDCHAR
STARTCHAR cedilla
ENCODING 184
SWIDTH 257 0
DWIDTH 3 0
BBX 2 3 0 -2
BITMAP
02
27
15
ENDCHAR
STARTCHAR guillemotright
ENCODING 187
SWIDTH 431 0
DWIDTH 4 0
BBX 4 4 0 1
BITMAP
1010
2661
0537
2561
ENDCHAR
STARTCHAR questiondown
ENCODING 191
SWIDTH 473 0
DWIDTH 5 0
BBX 4 6 0 0
BITMAP
0080
0030
0070
0710
4406
1978
ENDCHAR
STARTCHAR Agrave
ENCODING 192
SWIDTH 532 0
DWIDTH 5 0
BBX 5 8 0 0
BITMAP
035000
000000
00B300
036700
081900
090630
3A7880
810080
ENDCHAR
STARTCHAR Aacute
ENCODING 193
SWIDTH 532 0
DWIDTH 5 0
BBX 5 8 0 0
BITMAP
002600
000000
00B300
036700
081900
090630
3A7880
810080
ENDCHAR
STARTCHAR Acircumflex
ENCODING 194
SWIDTH 532 0
DWIDTH 5 0
BBX 5 8 0 0
BITMAP
017400
000000
00B300
036700
081900
090630
3A7880
810080
ENDCHAR
STARTCHAR Atilde
ENCODING 195
SWIDTH 532 0
DWIDTH 5 0
BBX 5 9 0 0
BITMAP
032400
024300
000000
00B300
036700
081900
090630
3A7880
810080
ENDCHAR
STARTCHAR Adieresis
ENCODING 196
SWIDTH 532 0
DWIDTH 5 0
BBX 5 8 0 0
BITMAP
061700
010100
00B300
036700
081900
090630
3A7880
810080
ENDCHAR
STARTCHAR Aring
ENCODING 197
SWIDTH 532 0
DWIDTH 5 0
BBX 5 9 0 0
BITMAP
005200
023500
003000
00B300
036700
081900
090630
3A7880
810080
ENDCHAR
STARTCHAR AE
ENCODING 198
SWIDTH 773 0
DWIDTH 8 0
BBX 7 6 0 0
BITMAP
000B9770
00674000
01949750
08244000
3B794000
91039770
ENDCHAR
STARTCHAR Ccedilla
ENCODING 199
SWIDTH 542 0
DWIDTH 5 0
BBX 5 8 0 -2
BITMAP
197760
440070
440000
440000
440070
197760
006300
003300
ENDCHAR
STARTCHAR Egrave
ENCODING 200
SWIDTH 481 0
DWIDTH 5 0
BBX 5 8 0 0
BITMAP
035000
000000
2A7710
250000
2A7600
250000
250000
2A7710
ENDCHAR
STARTCHAR Eacute
ENCODING 201
SWIDTH 481 0
DWIDTH 5 0
BBX 5 8 0 0
BITMAP
005300
000000
2A7710
250000
2A7600
250000
250000
2A7710
ENDCHAR
STARTCHAR Ecircumflex
ENCODING 202
SWIDTH 481 0
DWIDTH 5 0
BBX 5 8 0 0
BITMAP
027200
000000
2A7710
250000
2A7600
250000
250000
2A7710
ENDCHAR
STARTCHAR Edieresis
ENCODING 203
SWIDTH 481 0
DWIDTH 5 0
BBX 5 8 0 0
BITMAP
070700
020200
2A7710
250000
2A7600
250000
250000
2A7710
ENDCHAR
STARTCHAR Igrave
ENCODING 204
SWIDTH 230 0
DWIDTH 2 0
BBX 2 8 0 0
BITMAP
71
00
16
16
16
16
16
16
ENDCHAR
STARTCHAR Iacute
ENCODING 205
SWIDTH 231 0
DWIDTH 2 0
BBX 3 8 0 0
BITMAP
0710
0000
1600
1600
1600
1600
1600
1600
ENDCHAR
STARTCHAR Icircumflex
ENCODING 206
SWIDTH 229 0
DWIDTH 2 0
BBX 2 8 0 0
BITMAP
56
00
16
16
16
16
16
16
ENDCHAR
STARTCHAR Idieresis
ENCODING 207
SWIDTH 230 0
DWIDTH 2 0
BBX 3 8 0 0
BITMAP
7430
1110
1600
1600
1600
1600
1600
1600
ENDCHAR
STARTCHAR Eth
ENCODING 208
SWIDTH 514 0
DWIDTH 5 0
BBX 5 6 0 0
BITMAP
2A7770
260080
596080
260080
260080
2A7770
ENDCHAR
STARTCHAR Ntilde
ENCODING 209
SWIDTH 579 0
DWIDTH 6 0
BBX 5 9 0 0
BITMAP
022500
016300
000000
290070
2A4080
258080
252780
2506A0
2500B0
ENDCHAR
STARTCHAR Ograve
ENCODING 210
SWIDTH 553 0
DWIDTH 6 0
BBX 5 8 0 0
BITMAP
017000
000000
197760
440080
440080
440080
440080
197760
ENDCHAR
STARTCHAR Oacute
ENCODING 211
SWIDTH 553 0
DWIDTH 6 0
BBX 5 8 0 0
BITMAP
002600
000000
197760
440080
440080
440080
440080
197760
ENDCHAR
STARTCHAR Ocircumflex
ENCODING 212
SWIDTH 553 0
DWIDTH 6 0
BBX 5 8 0 0
BITMAP
007500
000000
197760
440080
440080
440080
440080
197760
ENDCHAR
STARTCHAR Otilde
ENCODING 213
SWIDTH 553 0
DWIDTH 6 0
BBX 5 9 0 0
BITMAP
032400
025300
000000
197760
440080
440080
440080
440080
197760
ENDCHAR
STARTCHAR Odieresis
ENCODING 214
SWIDTH 553 0
DWIDTH 6 0
BBX 5 8 0 0
BITMAP
043700
011100
197760
440080
440080
440080
440080
197760
ENDCHAR
STARTCHAR multiply
ENCODING 215
SWIDTH 493 0
DWIDTH 5 0
BBX 3 4 1 1
BITMAP
6060
3B30
7670
2020
ENDCHAR
STARTCHAR Oslash
ENCODING 216
SWIDTH 559 0
DWIDTH 6 0
BBX 5 6 0 0
BITMAP
197790
3404A0
442580
446080
3A1080
497770
ENDCHAR
STARTCHAR Ugrave
ENCODING 217
SWIDTH 552 0
DWIDTH 6 0
BBX 5 8 0 0
BITMAP
017000
000000
340070
340080
340080
340080
350080
197860
ENDCHAR
STARTCHAR Uacute
ENCODING 218
SWIDTH 552 0
DWIDTH 6 0
BBX 5 8 0 0
BITMAP
002600
000000
340070
340080
340080
340080
350080
197860
ENDCHAR
STARTCHAR Ucircumflex
ENCODING 219
SWIDTH 552 0
DWIDTH 6 0
BBX 5 8 0 0
BITMAP
017500
000000
340070
340080
340080
340080
350080
197860
ENDCHAR
STARTCHAR Udieresis
ENCODING 220
SWIDTH 552 0
DWIDTH 6 0
BBX 5 8 0 0
BITMAP
043700
011100
340070
340080
340080
340080
350080
197860
ENDCHAR
STARTCHAR Yacute
ENCODING 221
SWIDTH 493 0
DWIDTH 5 0
BBX 5 8 0 0
BITMAP
005300
000000
710260
170800
074500
01B000
008000
007000
ENDCHAR
STARTCHAR Thorn
ENCODING 222
SWIDTH 501 0
DWIDTH 5 0
BBX 4 6 1 0
BITMAP
7000
A791
8034
8044
A770
7000
ENDCHAR
STARTCHAR germandbls
ENCODING 223
SWIDTH 540 0
DWIDTH 5 0
BBX 5 6 0 0
BITMAP
197850
350070
344A30
340070
340080
345750
ENDCHAR
STARTCHAR agrave
ENCODING 224
SWIDTH 502 0
DWIDTH 5 0
BBX 5 7 0 0
BITMAP
027000
002000
187940
530440
520440
530440
197940
ENDCHAR
STARTCHAR aacute
ENCODING 225
SWIDTH 502 0
DWIDTH 5 0
BBX 5 7 0 0
BITMAP
003600
002000
187940
530440
520440
530440
197940
ENDCHAR
STARTCHAR acircumflex
ENCODING 226
SWIDTH 502 0
DWIDTH 5 0
BBX 5 7 0 0
BITMAP
009300
011200
187940
530440
520440
530440
197940
ENDCHAR
STARTCHAR atilde
ENCODING 227
SWIDTH 504 0
DWIDTH 5 0
BBX 5 7 0 0
BITMAP
043500
024300
187940
530440
520440
530440
197940
ENDCHAR
STARTCHAR adieresis
ENCODING 228
SWIDTH 502 0
DWIDTH 5 0
BBX 5 7 0 0
BITMAP
061700
010200
187940
530440
520440
530440
197940
ENDCHAR
STARTCHAR aring
ENCODING 229
SWIDTH 502 0
DWIDTH 5 0
BBX 5 8 0 0
BITMAP
014200
040400
014200
187940
530440
520440
530440
197940
ENDCHAR
STARTCHAR ae
ENCODING 230
SWIDTH 795 0
DWIDTH 8 0
BBX 8 5 0 0
BITMAP
05787791
00054035
12048673
52044000
29778772
ENDCHAR
STARTCHAR ccedilla
ENCODING 231
SWIDTH 394 0
DWIDTH 4 0
BBX 4 7 0 -2
BITMAP
1874
5300
5200
5300
1974
0080
0051
ENDCHAR
STARTCHAR egrave
ENCODING 232
SWIDTH 492 0
DWIDTH 5 0
BBX 5 7 0 0
BITMAP
045000
002000
197910
530350
576730
530000
197710
ENDCHAR
STARTCHAR eacute
ENCODING 233
SWIDTH 492 0
DWIDTH 5 0
BBX 5 7 0 0
BITMAP
006300
002000
197910
530350
576730
530000
197710
ENDCHAR
STARTCHAR ecircumflex
ENCODING 234
SWIDTH 492 0
DWIDTH 5 0
BBX 5 7 0 0
BITMAP
019100
020200
197910
530350
576730
530000
197710
ENDCHAR
STARTCHAR edieresis
ENCODING 235
SWIDTH 492 0
DWIDTH 5 0
BBX 5 7 0 0
BITMAP
070700
020200
197910
530350
576730
530000
197710
ENDCHAR
STARTCHAR igrave
ENCODING 236
SWIDTH 210 0
DWIDTH 2 0
BBX 2 7 0 0
BITMAP
80
11
34
34
34
34
34
ENDCHAR
STARTCHAR iacute
ENCODING 237
SWIDTH 208 0
DWIDTH 2 0
BBX 3 7 0 0
BITMAP
0810
0200
3400
3400
3400
3400
3400
ENDCHAR
STARTCHAR icircumflex
ENCODING 238
SWIDTH 210 0
DWIDTH 2 0
BBX 2 7 0 0
BITMAP
66
22
34
34
34
34
34
ENDCHAR
STARTCHAR idieresis
ENCODING 239
SWIDTH 210 0
DWIDTH 2 0
BBX 3 7 0 0
BITMAP
7620
2100
3400
3400
3400
3400
3400
ENDCHAR
STARTCHAR eth
ENCODING 240
SWIDTH 488 0
DWIDTH 5 0
BBX 5 7 0 0
BITMAP
040400
01C200
053800
187A30
530440
530440
297910
ENDCHAR
STARTCHAR ntilde
ENCODING 241
SWIDTH 507 0
DWIDTH 5 0
BBX 5 7 0 0
BITMAP
054500
033300
497820
440250
440260
440260
440260
ENDCHAR
STARTCHAR ograve
ENCODING 242
SWIDTH 496 0
DWIDTH 5 0
BBX 5 7 0 0
BITMAP
054000
002000
197910
530340
520350
530340
197910
ENDCHAR
STARTCHAR oacute
ENCODING 243
SWIDTH 496 0
DWIDTH 5 0
BBX 5 7 0 0
BITMAP
004500
002000
197910
530340
520350
530340
197910
ENDCHAR
STARTCHAR ocircumflex
ENCODING 244
SWIDTH 496 0
DWIDTH 5 0
BBX 5 7 0 0
BITMAP
019100
020200
197910
530340
520350
530340
197910
ENDCHAR
STARTCHAR otilde
ENCODING 245
SWIDTH 496 0
DWIDTH 5 0
BBX 5 7 0 0
BITMAP
054400
033300
197910
530340
520350
530340
197910
ENDCHAR
STARTCHAR odieresis
ENCODING 246
SWIDTH 496 0
DWIDTH 5 0
BBX 5 7 0 0
BITMAP
070700
020200
197910
530340
520350
530340
197910
ENDCHAR
STARTCHAR divide
ENCODING 247
SWIDTH 510 0
DWIDTH 5 0
BBX 5 4 0 1
BITMAP
005000
166620
000000
005000
ENDCHAR
STARTCHAR oslash
ENCODING 248
SWIDTH 521 0
DWIDTH 5 0
BBX 5 5 0 0
BITMAP
197860
340760
447270
3A1160
587920
ENDCHAR
STARTCHAR ugrave
ENCODING 249
SWIDTH 507 0
DWIDTH 5 0
BBX 5 7 0 0
BITMAP
054000
002000
430350
430350
430350
430350
197950
ENDCHAR
STARTCHAR uacute
ENCODING 250
SWIDTH 507 0
DWIDTH 5 0
BBX 5 7 0 0
BITMAP
004500
002000
430350
430350
430350
430350
197950
ENDCHAR
STARTCHAR ucircumflex
ENCODING 251
SWIDTH 507 0
DWIDTH 5 0
BBX 5 7 0 0
BITMAP
019100
020200
430350
430350
430350
430350
197950
ENDCHAR
STARTCHAR udieresis
ENCODING 252
SWIDTH 507 0
DWIDTH 5 0
BBX 5 7 0 0
BITMAP
070700
020200
430350
430350
430350
430350
197950
ENDCHAR
STARTCHAR yacute
ENCODING 253
SWIDTH 459 0
DWIDTH 5 0
BBX 5 8 0 -1
BITMAP
006300
002000
700520
350800
082600
069100
019000
382000
ENDCHAR
STARTCHAR thorn
ENCODING 254
SWIDTH 508 0
DWIDTH 5 0
BBX 5 8 0 -1
BITMAP
340000
340000
397920
350160
340170
350160
3A7920
340000
ENDCHAR
STARTCHAR ydieresis
ENCODING 255
SWIDTH 459 0
DWIDTH 5 0
BBX 5 8 0 -1
BITMAP
072500
020100
700520
350800
082600
069100
019000
382000
ENDCHAR
STARTCHAR Amacron
ENCODING 256
SWIDTH 532 0
DWIDTH 5 0
BBX 5 8 0 0
BITMAP
036400
000000
00B300
036700
081900
090630
3A7880
810080
ENDCHAR
STARTCHAR amacron
ENCODING 257
SWIDTH 502 0
DWIDTH 5 0
BBX 5 6 0 0
BITMAP
026500
187940
530440
520440
530440
197940
ENDCHAR
STARTCHAR Abreve
ENCODING 258
SWIDTH 532 0
DWIDTH 5 0
BBX 5 9 0 0
BITMAP
031300
016300
000000
00B300
036700
081900
090630
3A7880
810080
ENDCHAR
STARTCHAR abreve
ENCODING 259
SWIDTH 502 0
DWIDTH 5 0
BBX 5 7 0 0
BITMAP
041500
016300
187940
530440
520440
530440
197940
ENDCHAR
STARTCHAR Aogonek
ENCODING 260
SWIDTH 532 0
DWIDTH 5 0
BBX 5 7 0 -1
BITMAP
00B300
036700
081900
090630
3A7880
810090
000150
ENDCHAR
STARTCHAR aogonek
ENCODING 261
SWIDTH 502 0
DWIDTH 5 0
BBX 5 6 0 -1
BITMAP
187940
530440
520440
530440
197940
000600
ENDCHAR
STARTCHAR Cacute
ENCODING 262
SWIDTH 542 0
DWIDTH 5 0
BBX 5 8 0 0
BITMAP
002600
000000
197760
440070
440000
440000
440070
197760
ENDCHAR
STARTCHAR cacute
ENCODING 263
SWIDTH 394 0
DWIDTH 4 0
BBX 4 7 0 0
BITMAP
0072
0020
1874
5300
5200
5300
1974
ENDCHAR
STARTCHAR Cdotaccent
ENCODING 266
SWIDTH 542 0
DWIDTH 5 0
BBX 5 8 0 0
BITMAP
007000
001000
197760
440070
440000
440000
440070
197760
ENDCHAR
STARTCHAR cdotaccent
ENCODING 267
SWIDTH 394 0
DWIDTH 4 0
BBX 4 7 0 0
BITMAP
0070
0010
1874
5300
5200
5300
1974
ENDCHAR
STARTCHAR Ccaron
ENCODING 268
SWIDTH 542 0
DWIDTH 5 0
BBX 5 8 0 0
BITMAP
007500
000000
197760
440070
440000
440000
440070
197760
ENDCHAR
STARTCHAR ccaron
ENCODING 269
SWIDTH 394 0
DWIDTH 4 0
BBX 4 7 0 0
BITMAP
0562
0030
1874
5300
5200
5300
1974
ENDCHAR
STARTCHAR Dcaron
ENCODING 270
SWIDTH 557 0
DWIDTH 6 0
BBX 5 8 0 0
BITMAP
017400
000000
2A7760
250080
250080
250080
250080
2A7770
ENDCHAR
STARTCHAR dcaron
ENCODING 271
SWIDTH 534 0
DWIDTH 5 0
BBX 6 7 0 0
BITMAP
000366
000364
275850
530340
520340
530340
297940
ENDCHAR
STARTCHAR Dcroat
ENCODING 272
SWIDTH 514 0
DWIDTH 5 0
BBX 5 6 0 0
BITMAP
2A7770
260080
6A6080
260080
260080
2A7770
ENDCHAR
STARTCHAR dcroat
ENCODING 273
SWIDTH 539 0
DWIDTH 5 0
BBX 6 7 0 0
BITMAP
000340
006891
076740
440440
520340
530340
197840
ENDCHAR
STARTCHAR Emacron
ENCODING 274
SWIDTH 481 0
DWIDTH 5 0
BBX 5 8 0 0
BITMAP
036300
000000
2A7710
250000
2A7600
250000
250000
2A7710
ENDCHAR
STARTCHAR emacron
ENCODING 275
SWIDTH 492 0
DWIDTH 5 0
BBX 5 6 0 0
BITMAP
036300
197910
530350
576730
530000
197710
ENDCHAR
STARTCHAR Ebreve
ENCODING 276
SWIDTH 481 0
DWIDTH 5 0
BBX 5 9 0 0
BITMAP
030300
035200
000000
2A7710
250000
2A7600
250000
250000
2A7710
ENDCHAR
STARTCHAR ebreve
ENCODING 277
SWIDTH 492 0
DWIDTH 5 0
BBX 5 7 0 0
BITMAP
050500
026200
197910
530350
576730
530000
197710
ENDCHAR
STARTCHAR Edotaccent
ENCODING 278
SWIDTH 496 0
DWIDTH 5 0
BBX 5 8 0 0
BITMAP
007000
001000
2A7710
250000
2A7600
250000
250000
2A7710
ENDCHAR
STARTCHAR edotaccent
ENCODING 279
SWIDTH 492 0
DWIDTH 5 0
BBX 5 7 0 0
BITMAP
008000
001000
197910
530350
576730
530000
197710
ENDCHAR
STARTCHAR Eogonek
ENCODING 280
SWIDTH 481 0
DWIDTH 5 0
BBX 5 7 0 -1
BITMAP
2A7710
250000
2A7600
250000
250000
2A7710
002400
ENDCHAR
STARTCHAR eogonek
ENCODING 281
SWIDTH 492 0
DWIDTH 5 0
BBX 5 6 0 -1
BITMAP
197910
530350
576730
530000
197710
002400
ENDCHAR
STARTCHAR Ecaron
ENCODING 282
SWIDTH 481 0
DWIDTH 5 0
BBX 5 8 0 0
BITMAP
027200
000000
2A7710
250000
2A7600
250000
250000
2A7710
ENDCHAR
STARTCHAR ecaron
ENCODING 283
SWIDTH 492 0
DWIDTH 5 0
BBX 5 7 0 0
BITMAP
036300
003000
197910
530350
576730
530000
197710
ENDCHAR
STARTCHAR Gcircumflex
ENCODING 284
SWIDTH 539 0
DWIDTH 5 0
BBX 5 8 0 0
BITMAP
017400
000000
197860
440040
441760
440080
440080
197840
ENDCHAR
STARTCHAR gcircumflex
ENCODING 285
SWIDTH 506 0
DWIDTH 5 0
BBX 5 8 0 -1
BITMAP
008300
011200
197850
430350
530350
440450
077850
077910
ENDCHAR
STARTCHAR Gbreve
ENCODING 286
SWIDTH 539 0
DWIDTH 5 0
BBX 5 9 0 0
BITMAP
031300
016400
000000
197860
440040
441760
440080
440080
197840
ENDCHAR
STARTCHAR gbreve
ENCODING 287
SWIDTH 506 0
DWIDTH 5 0
BBX 5 8 0 -1
BITMAP
015400
000000
197850
430350
530350
440450
077850
077910
ENDCHAR
STARTCHAR Gdotaccent
ENCODING 288
SWIDTH 539 0
DWIDTH 5 0
BBX 5 8 0 0
BITMAP
007000
001000
197860
440040
441760
440080
440080
197840
ENDCHAR
STARTCHAR gdotaccent
ENCODING 289
SWIDTH 506 0
DWIDTH 5 0
BBX 5 8 0 -1
BITMAP
007000
001000
197850
430350
530350
440450
077850
077910
ENDCHAR
STARTCHAR uni0122
ENCODING 290
SWIDTH 539 0
DWIDTH 5 0
BBX 5 8 0 -2
BITMAP
197860
440040
441760
440080
440080
197840
006200
005000
ENDCHAR
STARTCHAR uni0123
ENCODING 291
SWIDTH 506 0
DWIDTH 5 0
BBX 5 9 0 -1
BITMAP
005000
008000
000000
197850
430350
530350
440450
077850
077910
ENDCHAR
STARTCHAR hcircumflex
ENCODING 293
SWIDTH 507 0
DWIDTH 5 0
BBX 5 8 0 0
BITMAP
004100
443400
440000
497820
440250
440260
440260
440260
ENDCHAR
STARTCHAR Hbar
ENCODING 294
SWIDTH 523 0
DWIDTH 5 0
BBX 6 6 0 0
BITMAP
260080
5A66B3
2A77A0
260080
260080
260080
ENDCHAR
STARTCHAR hbar
ENCODING 295
SWIDTH 544 0
DWIDTH 5 0
BBX 5 7 0 0
BITMAP
070000
4B6200
0A6730
090080
080080
080080
070070
ENDCHAR
STARTCHAR Itilde
ENCODING 296
SWIDTH 230 0
DWIDTH 2 0
BBX 3 9 0 0
BITMAP
3510
5220
0000
1600
1600
1600
1600
1600
1600
ENDCHAR
STARTCHAR itilde
ENCODING 297
SWIDTH 210 0
DWIDTH 2 0
BBX 3 7 0 0
BITMAP
5710
5210
3400
3400
3400
3400
3400
ENDCHAR
STARTCHAR Imacron
ENCODING 298
SWIDTH 230 0
DWIDTH 2 0
BBX 3 8 0 0
BITMAP
6610
0000
1600
1600
1600
1600
1600
1600
ENDCHAR
STARTCHAR imacron
ENCODING 299
SWIDTH 208 0
DWIDTH 2 0
BBX 3 6 0 0
BITMAP
6610
3400
3400
3400
3400
3400
ENDCHAR
STARTCHAR Ibreve
ENCODING 300
SWIDTH 231 0
DWIDTH 2 0
BBX 3 9 0 0
BITMAP
3210
4600
0000
1600
1600
1600
1600
1600
1600
ENDCHAR
STARTCHAR ibreve
ENCODING 301
SWIDTH 211 0
DWIDTH 2 0
BBX 2 7 0 0
BITMAP
55
45
34
34
34
34
34
ENDCHAR
STARTCHAR Iogonek
ENCODING 302
SWIDTH 230 0
DWIDTH 2 0
BBX 2 7 0 -1
BITMAP
16
16
16
16
16
16
41
ENDCHAR
STARTCHAR iogonek
ENCODING 303
SWIDTH 210 0
DWIDTH 2 0
BBX 2 8 0 -1
BITMAP
34
01
34
34
34
34
34
51
ENDCHAR
STARTCHAR Idotaccent
ENCODING 304
SWIDTH 230 0
DWIDTH 2 0
BBX 2 8 0 0
BITMAP
16
01
16
16
16
16
16
16
ENDCHAR
STARTCHAR dotlessi
ENCODING 305
SWIDTH 212 0
DWIDTH 2 0
BBX 2 5 0 0
BITMAP
35
35
35
35
35
ENDCHAR
STARTCHAR IJ
ENCODING 306
SWIDTH 721 0
DWIDTH 7 0
BBX 7 6 0 0
BITMAP
16000160
16000170
16000170
16100170
16520160
16297930
ENDCHAR
STARTCHAR ij
ENCODING 307
SWIDTH 419 0
DWIDTH 4 0
BBX 4 8 0 -1
BITMAP
3426
0101
3426
3426
3426
3426
3426
0392
ENDCHAR
STARTCHAR Jcircumflex
ENCODING 308
SWIDTH 494 0
DWIDTH 5 0
BBX 5 8 0 0
BITMAP
000650
000000
000530
000530
000530
200530
800530
587900
ENDCHAR
STARTCHAR jcircumflex
ENCODING 309
SWIDTH 209 0
DWIDTH 2 0
BBX 3 8 -1 -1
BITMAP
0660
0220
0340
0340
0340
0340
0340
3910
ENDCHAR
STARTCHAR uni0136
ENCODING 310
SWIDTH 530 0
DWIDTH 5 0
BBX 5 9 0 -3
BITMAP
250350
252800
26A000
2B5400
250710
250080
002100
005200
002000
ENDCHAR
STARTCHAR uni0137
ENCODING 311
SWIDTH 431 0
DWIDTH 4 0
BBX 5 9 0 -2
BITMAP
440000
440000
440800
447200
448000
446300
440810
008000
005000
ENDCHAR
STARTCHAR Lacute
ENCODING 313
SWIDTH 451 0
DWIDTH 5 0
BBX 5 8 0 0
BITMAP
071000
000000
250000
250000
250000
250000
250000
2A7720
ENDCHAR
STARTCHAR lacute
ENCODING 314
SWIDTH 207 0
DWIDTH 2 0
BBX 2 9 0 0
BITMAP
04
03
34
34
34
34
34
34
34
ENDCHAR
STARTCHAR uni013B
ENCODING 315
SWIDTH 451 0
DWIDTH 5 0
BBX 5 8 0 -2
BITMAP
250000
250000
250000
250000
250000
2A7720
008000
005000
ENDCHAR
STARTCHAR uni013C
ENCODING 316
SWIDTH 211 0
DWIDTH 2 0
BBX 2 9 0 -2
BITMAP
34
34
34
34
34
34
34
34
31
ENDCHAR
STARTCHAR Lcaron
ENCODING 317
SWIDTH 451 0
DWIDTH 5 0
BBX 5 6 0 0
BITMAP
250800
250600
250100
250000
250000
2A7720
ENDCHAR
STARTCHAR lcaron
ENCODING 318
SWIDTH 274 0
DWIDTH 3 0
BBX 3 7 0 0
BITMAP
3480
3450
3410
3400
3400
3400
3400
ENDCHAR
STARTCHAR Ldot
ENCODING 319
SWIDTH 500 0
DWIDTH 5 0
BBX 5 6 0 0
BITMAP
260000
260000
263500
261100
260000
2A7720
ENDCHAR
STARTCHAR ldot
ENCODING 320
SWIDTH 314 0
DWIDTH 3 0
BBX 3 7 0 0
BITMAP
3500
3500
3500
3580
3520
3500
3500
ENDCHAR
STARTCHAR Lslash
ENCODING 321
SWIDTH 504 0
DWIDTH 5 0
BBX 5 6 0 0
BITMAP
160000
1A4000
770000
170000
170000
1B7720
ENDCHAR
STARTCHAR lslash
ENCODING 322
SWIDTH 296 0
DWIDTH 3 0
BBX 3 7 0 0
BITMAP
0800
0800
0A50
5900
0800
0800
0800
ENDCHAR
STARTCHAR Nacute
ENCODING 323
SWIDTH 579 0
DWIDTH 6 0
BBX 5 8 0 0
BITMAP
001700
000000
290070
2A4080
258080
252780
2506A0
2500B0
ENDCHAR
STARTCHAR nacute
ENCODING 324
SWIDTH 507 0
DWIDTH 5 0
BBX 5 7 0 0
BITMAP
003600
002000
497820
440250
440260
440260
440260
ENDCHAR
STARTCHAR uni0145
ENCODING 325
SWIDTH 579 0
DWIDTH 6 0
BBX 5 8 0 -2
BITMAP
290070
2A4080
258080
252780
2506A0
2500B0
005200
004000
ENDCHAR
STARTCHAR uni0146
ENCODING 326
SWIDTH 505 0
DWIDTH 5 0
BBX 5 7 0 -2
BITMAP
497820
440250
440260
440260
440260
008000
005000
ENDCHAR
STARTCHAR Ncaron
ENCODING 327
SWIDTH 579 0
DWIDTH 6 0
BBX 5 8 0 0
BITMAP
006500
000000
290070
2A4080
258080
252780
2506A0
2500B0
ENDCHAR
STARTCHAR ncaron
ENCODING 328
SWIDTH 507 0
DWIDTH 5 0
BBX 5 7 0 0
BITMAP
026400
003000
497820
440250
440260
440260
440260
ENDCHAR
STARTCHAR Eng
ENCODING 330
SWIDTH 519 0
DWIDTH 5 0
BBX 5 7 0 -1
BITMAP
290070
2B4080
268080
262780
2606A0
2600B0
000670
ENDCHAR
STARTCHAR eng
ENCODING 331
SWIDTH 507 0
DWIDTH 5 0
BBX 5 6 0 -1
BITMAP
497920
440250
440260
440260
440250
003920
ENDCHAR
STARTCHAR Omacron
ENCODING 332
SWIDTH 553 0
DWIDTH 6 0
BBX 5 8 0 0
BITMAP
026500
000000
197760
440080
440080
440080
440080
197760
ENDCHAR
STARTCHAR omacron
ENCODING 333
SWIDTH 496 0
DWIDTH 5 0
BBX 5 6 0 0
BITMAP
036300
197910
530340
520350
530340
197910
ENDCHAR
STARTCHAR Obreve
ENCODING 334
SWIDTH 553 0
DWIDTH 6 0
BBX 5 9 0 0
BITMAP
022300
016400
000000
197760
440080
440080
440080
440080
197760
ENDCHAR
STARTCHAR obreve
ENCODING 335
SWIDTH 496 0
DWIDTH 5 0
BBX 5 7 0 0
BITMAP
050500
025200
197910
530340
520350
530340
197910
ENDCHAR
STARTCHAR Ohungarumlaut
ENCODING 336
SWIDTH 553 0
DWIDTH 6 0
BBX 5 8 0 0
BITMAP
007620
001100
197760
440080
440080
440080
440080
197760
ENDCHAR
STARTCHAR ohungarumlaut
ENCODING 337
SWIDTH 496 0
DWIDTH 5 0
BBX 5 7 0 0
BITMAP
007700
010100
197910
530340
520350
530340
197910
ENDCHAR
STARTCHAR OE
ENCODING 338
SWIDTH 775 0
DWIDTH 8 0
BBX 7 6 0 0
BITMAP
19799770
34043000
44048740
44043000
34043000
19799770
ENDCHAR
STARTCHAR oe
ENCODING 339
SWIDTH 812 0
DWIDTH 8 0
BBX 8 5 0 0
BITMAP
18788783
53035017
52039665
53035000
19788773
ENDCHAR
STARTCHAR Racute
ENCODING 340
SWIDTH 534 0
DWIDTH 5 0
BBX 5 8 0 0
BITMAP
005300
000000
2A7840
250080
250080
296A20
250710
250170
ENDCHAR
STARTCHAR racute
ENCODING 341
SWIDTH 313 0
DWIDTH 3 0
BBX 3 7 0 0
BITMAP
0450
0200
4850
4400
4400
4400
4400
ENDCHAR
STARTCHAR uni0156
ENCODING 342
SWIDTH 534 0
DWIDTH 5 0
BBX 5 8 0 -2
BITMAP
2A7840
250080
250080
296A20
250710
250170
007000
004000
ENDCHAR
STARTCHAR uni0157
ENCODING 343
SWIDTH 313 0
DWIDTH 3 0
BBX 3 7 0 -2
BITMAP
4850
4400
4400
4400
4400
4400
4100
ENDCHAR
STARTCHAR Rcaron
ENCODING 344
SWIDTH 534 0
DWIDTH 5 0
BBX 5 8 0 0
BITMAP
027300
000000
2A7840
250080
250080
296A20
250710
250170
ENDCHAR
STARTCHAR rcaron
ENCODING 345
SWIDTH 313 0
DWIDTH 3 0
BBX 3 7 0 0
BITMAP
1650
0300
4850
4400
4400
4400
4400
ENDCHAR
STARTCHAR Sacute
ENCODING 346
SWIDTH 562 0
DWIDTH 6 0
BBX 5 8 0 0
BITMAP
002600
000000
097760
350050
184100
002660
240080
097760
ENDCHAR
STARTCHAR sacute
ENCODING 347
SWIDTH 427 0
DWIDTH 4 0
BBX 4 7 0 0
BITMAP
0080
0110
4873
6300
0573
0008
3777
ENDCHAR
STARTCHAR Scircumflex
ENCODING 348
SWIDTH 562 0
DWIDTH 6 0
BBX 5 8 0 0
BITMAP
007500
000000
097760
350050
184100
002660
240080
097760
ENDCHAR
STARTCHAR scircumflex
ENCODING 349
SWIDTH 427 0
DWIDTH 4 0
BBX 4 7 0 0
BITMAP
0560
0220
4873
6300
0573
0008
3777
ENDCHAR
STARTCHAR uni015E
ENCODING 350
SWIDTH 562 0
DWIDTH 6 0
BBX 5 8 0 -2
BITMAP
097760
350050
184100
002660
240080
097760
004400
003300
ENDCHAR
STARTCHAR uni015F
ENCODING 351
SWIDTH 427 0
DWIDTH 4 0
BBX 4 7 0 -2
BITMAP
4873
6300
0573
0008
3777
0270
0150
ENDCHAR
STARTCHAR Scaron
ENCODING 352
SWIDTH 562 0
DWIDTH 6 0
BBX 5 8 0 0
BITMAP
007500
000000
097760
350050
184100
002660
240080
097760
ENDCHAR
STARTCHAR scaron
ENCODING 353
SWIDTH 427 0
DWIDTH 4 0
BBX 4 7 0 0
BITMAP
0660
0120
4873
6300
0573
0008
3777
ENDCHAR
STARTCHAR uni0162
ENCODING 354
SWIDTH 420 0
DWIDTH 4 0
BBX 4 9 0 -3
BITMAP
58A7
0250
0250
0250
0250
0250
0130
0240
0110
ENDCHAR
STARTCHAR uni0163
ENCODING 355
SWIDTH 347 0
DWIDTH 3 0
BBX 3 9 0 -3
BITMAP
0700
5B60
0800
0800
0800
0770
0130
0340
0100
ENDCHAR
STARTCHAR Tcaron
ENCODING 356
SWIDTH 420 0
DWIDTH 4 0
BBX 4 8 0 0
BITMAP
0560
0000
58A7
0250
0250
0250
0250
0250
ENDCHAR
STARTCHAR tcaron
ENCODING 357
SWIDTH 396 0
DWIDTH 4 0
BBX 4 6 0 0
BITMAP
0608
5B66
0801
0800
0800
0770
ENDCHAR
STARTCHAR Tbar
ENCODING 358
SWIDTH 501 0
DWIDTH 5 0
BBX 4 6 0 0
BITMAP
58A7
0160
17A4
0160
0160
0160
ENDCHAR
STARTCHAR tbar
ENCODING 359
SWIDTH 350 0
DWIDTH 4 0
BBX 3 6 0 0
BITMAP
0800
5B60
0800
5B60
0800
0870
ENDCHAR
STARTCHAR Utilde
ENCODING 360
SWIDTH 552 0
DWIDTH 6 0
BBX 5 9 0 0
BITMAP
032400
025300
000000
340070
340080
340080
340080
350080
197860
ENDCHAR
STARTCHAR utilde
ENCODING 361
SWIDTH 507 0
DWIDTH 5 0
BBX 5 7 0 0
BITMAP
054500
033300
430350
430350
430350
430350
197950
ENDCHAR
STARTCHAR Umacron
ENCODING 362
SWIDTH 552 0
DWIDTH 6 0
BBX 5 8 0 0
BITMAP
026500
000000
340070
340080
340080
340080
350080
197860
ENDCHAR
STARTCHAR umacron
ENCODING 363
SWIDTH 507 0
DWIDTH 5 0
BBX 5 6 0 0
BITMAP
036300
430350
430350
430350
430350
197950
ENDCHAR
STARTCHAR Ubreve
ENCODING 364
SWIDTH 552 0
DWIDTH 6 0
BBX 5 9 0 0
BITMAP
022300
016400
000000
340070
340080
340080
340080
350080
197860
ENDCHAR
STARTCHAR ubreve
ENCODING 365
SWIDTH 507 0
DWIDTH 5 0
BBX 5 7 0 0
BITMAP
050500
025200
430350
430350
430350
430350
197950
ENDCHAR
STARTCHAR Uring
ENCODING 366
SWIDTH 552 0
DWIDTH 6 0
BBX 5 9 0 0
BITMAP
005300
004500
003100
340070
340080
340080
340080
350080
197860
ENDCHAR
STARTCHAR uring
ENCODING 367
SWIDTH 507 0
DWIDTH 5 0
BBX 5 8 0 0
BITMAP
025000
042200
024000
430350
430350
430350
430350
197950
ENDCHAR
STARTCHAR Uhungarumlaut
ENCODING 368
SWIDTH 552 0
DWIDTH 6 0
BBX 5 8 0 0
BITMAP
007610
001100
340070
340080
340080
340080
350080
197860
ENDCHAR
STARTCHAR uhungarumlaut
ENCODING 369
SWIDTH 507 0
DWIDTH 5 0
BBX 5 7 0 0
BITMAP
007700
010100
430350
430350
430350
430350
197950
ENDCHAR
STARTCHAR Uogonek
ENCODING 370
SWIDTH 552 0
DWIDTH 6 0
BBX 5 7 0 -1
BITMAP
340070
340080
340080
340080
350080
197860
005100
ENDCHAR
STARTCHAR uogonek
ENCODING 371
SWIDTH 503 0
DWIDTH 5 0
BBX 5 6 0 -1
BITMAP
430350
430350
430350
430350
197950
000500
ENDCHAR
STARTCHAR Wcircumflex
ENCODING 372
SWIDTH 795 0
DWIDTH 8 0
BBX 8 8 0 0
BITMAP
00066000
00000000
80076018
53077044
26167071
08523480
07700770
06700850
ENDCHAR
STARTCHAR wcircumflex
ENCODING 373
SWIDTH 682 0
DWIDTH 7 0
BBX 7 7 0 0
BITMAP
00291000
00211000
800B0170
62481530
16725700
07707700
07607500
ENDCHAR
STARTCHAR Ycircumflex
ENCODING 374
SWIDTH 493 0
DWIDTH 5 0
BBX 5 8 0 0
BITMAP
037200
000000
710260
170800
074500
01B000
008000
007000
ENDCHAR
STARTCHAR ycircumflex
ENCODING 375
SWIDTH 459 0
DWIDTH 5 0
BBX 5 8 0 -1
BITMAP
039000
021100
700520
350800
082600
069100
019000
382000
ENDCHAR
STARTCHAR Ydieresis
ENCODING 376
SWIDTH 493 0
DWIDTH 5 0
BBX 5 8 0 0
BITMAP
070700
010100
710260
170800
074500
01B000
008000
007000
ENDCHAR
STARTCHAR Zacute
ENCODING 377
SWIDTH 482 0
DWIDTH 5 0
BBX 5 8 0 0
BITMAP
004400
000000
377B30
001800
007100
045000
180000
797730
ENDCHAR
STARTCHAR zacute
ENCODING 378
SWIDTH 405 0
DWIDTH 4 0
BBX 4 7 0 0
BITMAP
0072
0020
4788
0081
0450
1800
8875
ENDCHAR
STARTCHAR Zdotaccent
ENCODING 379
SWIDTH 482 0
DWIDTH 5 0
BBX 5 8 0 0
BITMAP
007000
001000
377B30
001800
007100
045000
180000
797730
ENDCHAR
STARTCHAR zdotaccent
ENCODING 380
SWIDTH 405 0
DWIDTH 4 0
BBX 4 7 0 0
BITMAP
0170
0010
4788
0081
0450
1800
8875
ENDCHAR
STARTCHAR Zcaron
ENCODING 381
SWIDTH 482 0
DWIDTH 5 0
BBX 5 8 0 0
BITMAP
027300
000000
377B30
001800
007100
045000
180000
797730
ENDCHAR
STARTCHAR zcaron
ENCODING 382
SWIDTH 405 0
DWIDTH 4 0
BBX 4 7 0 0
BITMAP
0661
0030
4788
0081
0450
1800
8875
ENDCHAR
STARTCHAR florin
ENCODING 402
SWIDTH 494 0
DWIDTH 5 0
BBX 5 8 0 -1
BITMAP
000850
005300
04B710
007000
007000
035000
062000
570000
ENDCHAR
STARTCHAR AEacute
ENCODING 508
SWIDTH 773 0
DWIDTH 8 0
BBX 7 8 0 0
BITMAP
00007100
00000000
000B9770
00674000
01949750
08244000
3B794000
91039770
ENDCHAR
STARTCHAR aeacute
ENCODING 509
SWIDTH 795 0
DWIDTH 8 0
BBX 8 7 0 0
BITMAP
00008100
00002000
05787791
00054035
12048673
52044000
29778772
ENDCHAR
STARTCHAR Oslashacute
ENCODING 510
SWIDTH 558 0
DWIDTH 6 0
BBX 5 8 0 0
BITMAP
002600
000000
197790
3404A0
442580
446080
3A1080
497770
ENDCHAR
STARTCHAR oslashacute
ENCODING 511
SWIDTH 521 0
DWIDTH 5 0
BBX 5 7 0 0
BITMAP
002700
002000
197860
340760
447270
3A1160
587920
ENDCHAR
STARTCHAR uni0218
ENCODING 536
SWIDTH 562 0
DWIDTH 6 0
BBX 5 8 0 -2
BITMAP
097760
350050
184100
002660
240080
097760
005200
004000
ENDCHAR
STARTCHAR uni0219
ENCODING 537
SWIDTH 427 0
DWIDTH 4 0
BBX 4 8 0 -3
BITMAP
4873
6300
0573
0008
3777
0040
0060
0020
ENDCHAR
STARTCHAR circumflex
ENCODING 710
SWIDTH 326 0
DWIDTH 3 0
BBX 3 2 0 5
BITMAP
0920
2130
ENDCHAR
STARTCHAR caron
ENCODING 711
SWIDTH 326 0
DWIDTH 3 0
BBX 3 2 0 5
BITMAP
2650
0500
ENDCHAR
STARTCHAR uni02C9
ENCODING 713
SWIDTH 358 0
DWIDTH 4 0
BBX 3 1 0 5
BITMAP
2650
ENDCHAR
STARTCHAR breve
ENCODING 728
SWIDTH 332 0
DWIDTH 3 0
BBX 3 2 0 5
BITMAP
5150
1630
ENDCHAR
STARTCHAR dotaccent
ENCODING 729
SWIDTH 183 0
DWIDTH 2 0
BBX 2 2 0 5
BITMAP
52
10
ENDCHAR
STARTCHAR ring
ENCODING 730
SWIDTH 297 0
DWIDTH 3 0
BBX 3 2 0 5
BITMAP
3510
3410
ENDCHAR
STARTCHAR ogonek
ENCODING 731
SWIDTH 243 0
DWIDTH 2 0
BBX 2 2 0 -1
BITMAP
03
24
ENDCHAR
STARTCHAR tilde
ENCODING 732
SWIDTH 369 0
DWIDTH 4 0
BBX 3 2 0 5
BITMAP
5360
2430
ENDCHAR
STARTCHAR hungarumlaut
ENCODING 733
SWIDTH 377 0
DWIDTH 4 0
BBX 3 2 0 5
BITMAP
1670
1010
ENDCHAR
STARTCHAR Mu
ENCODING 924
SWIDTH 527 0
DWIDTH 5 0
BBX 5 8 0 -2
BITMAP
120030
350170
350170
350170
360170
3B8770
350000
120000
ENDCHAR
STARTCHAR Pi
ENCODING 928
SWIDTH 605 0
DWIDTH 6 0
BBX 6 7 0 0
BITMAP
5C88C5
080080
080080
080080
080080
080080
070080
ENDCHAR
STARTCHAR Sigma
ENCODING 931
SWIDTH 481 0
DWIDTH 5 0
BBX 5 7 0 0
BITMAP
5A8820
080000
045000
008000
035000
080000
4A8820
ENDCHAR
STARTCHAR uni0901
ENCODING 2305
SWIDTH 0 0
DWIDTH 0 0
BBX 4 2 -3 8
BITMAP
2312
5772
ENDCHAR
STARTCHAR uni0902
ENCODING 2306
SWIDTH 0 0
DWIDTH 0 0
BBX 2 1 -2 8
BITMAP
41
ENDCHAR
STARTCHAR uni0903
ENCODING 2307
SWIDTH 247 0
DWIDTH 2 0
BBX 1 4 1 1
BITMAP
50
00
00
50
ENDCHAR
STARTCHAR uni0905
ENCODING 2309
SWIDTH 598 0
DWIDTH 6 0
BBX 7 7 0 0
BITMAP
27806810
00526100
00616100
0098B100
00526100
00516100
47706100
ENDCHAR
STARTCHAR uni0906
ENCODING 2310
SWIDTH 828 0
DWIDTH 8 0
BBX 9 7 0 0
BITMAP
2780678A30
0062712500
0061712500
0098B12500
0052712500
0061712500
5770612500
ENDCHAR
STARTCHAR uni0907
ENCODING 2311
SWIDTH 478 0
DWIDTH 5 0
BBX 6 8 -1 -1
BITMAP
1777B6
000070
018780
044000
018780
052052
059791
021000
ENDCHAR
STARTCHAR uni0908
ENCODING 2312
SWIDTH 478 0
DWIDTH 5 0
BBX 6 11 -1 -1
BITMAP
000384
000700
000710
1777B6
000070
018780
044000
018780
052052
059791
021000
ENDCHAR
STARTCHAR uni0909
ENCODING 2313
SWIDTH 471 0
DWIDTH 5 0
BBX 6 7 -1 0
BITMAP
1777B6
000080
000070
001880
020070
070070
038770
ENDCHAR
STARTCHAR uni090A
ENCODING 2314
SWIDTH 661 0
DWIDTH 7 0
BBX 8 7 -1 0
BITMAP
1777B775
00008000
00007000
0018C880
03008043
07107034
03877391
ENDCHAR
STARTCHAR uni090B
ENCODING 2315
SWIDTH 753 0
DWIDTH 8 0
BBX 9 7 -1 0
BITMAP
1777B77740
0000700000
0187B04700
0530965700
0210A36700
0018908000
0181709600
ENDCHAR
STARTCHAR uni090C
ENCODING 2316
SWIDTH 676 0
DWIDTH 7 0
BBX 8 10 -1 -3
BITMAP
177777B6
00000070
007758A0
04418080
04307070
04300070
019603A0
00000800
00000702
00000575
ENDCHAR
STARTCHAR uni090D
ENCODING 2317
SWIDTH 521 0
DWIDTH 5 0
BBX 7 10 -1 0
BITMAP
00703400
00478000
00000000
18A77B30
01600700
01600700
01628200
01600000
01700000
00788200
ENDCHAR
STARTCHAR uni090E
ENCODING 2318
SWIDTH 522 0
DWIDTH 5 0
BBX 7 10 -1 0
BITMAP
00070000
00066000
00003600
18A77B30
01600700
01600700
01628200
01600000
01700000
00788200
ENDCHAR
STARTCHAR uni090F
ENCODING 2319
SWIDTH 526 0
DWIDTH 5 0
BBX 7 7 -1 0
BITMAP
18A77B30
01600700
01600700
01628200
01600000
01700000
00788200
ENDCHAR
STARTCHAR uni0910
ENCODING 2320
SWIDTH 526 0
DWIDTH 5 0
BBX 7 10 -1 0
BITMAP
00063000
00008000
00003400
18A77B30
01600700
01600700
01628200
01600000
01700000
00788200
ENDCHAR
STARTCHAR uni0911
ENCODING 2321
SWIDTH 829 0
DWIDTH 8 0
BBX 9 9 0 0
BITMAP
0000600600
0000288300
2780688A30
0052611600
0061611600
0098B11600
0052611600
0051611600
4770611500
ENDCHAR
STARTCHAR uni0912
ENCODING 2322
SWIDTH 828 0
DWIDTH 8 0
BBX 9 10 0 0
BITMAP
0000250000
0000085000
0000006400
2780688A30
0052612500
0061612500
0098B12500
0052612500
0051612500
4770612500
ENDCHAR
STARTCHAR uni0913
ENCODING 2323
SWIDTH 829 0
DWIDTH 8 0
BBX 9 10 0 0
BITMAP
0000081000
0000017000
0000006200
2780688A30
0052611600
0061611600
0098B11600
0052611600
0051611600
4770611500
ENDCHAR
STARTCHAR uni0914
ENCODING 2324
SWIDTH 829 0
DWIDTH 8 0
BBX 9 10 0 0
BITMAP
0000082600
0000027600
0000006500
2780688A30
0052611600
0061611600
0098B11600
0052611600
0051611600
4770611500
ENDCHAR
STARTCHAR uni0915
ENCODING 2325
SWIDTH 725 0
DWIDTH 7 0
BBX 9 7 -1 0
BITMAP
1777B77730
0075878200
0530800700
0610700700
0530800700
0077938200
0000700000
ENDCHAR
STARTCHAR uni0916
ENCODING 2326
SWIDTH 696 0
DWIDTH 7 0
BBX 8 7 -1 0
BITMAP
177B77B7
00070071
00074671
07827071
03508081
008147A1
00170061
ENDCHAR
STARTCHAR uni0917
ENCODING 2327
SWIDTH 494 0
DWIDTH 5 0
BBX 6 7 -1 0
BITMAP
17B7B7
007070
007070
008070
064070
000070
000070
ENDCHAR
STARTCHAR uni0918
ENCODING 2328
SWIDTH 559 0
DWIDTH 6 0
BBX 7 7 -1 0
BITMAP
18B88B50
04400800
01B50800
03400800
04400900
00777800
00000700
ENDCHAR
STARTCHAR uni0919
ENCODING 2329
SWIDTH 505 0
DWIDTH 5 0
BBX 7 7 -1 0
BITMAP
1777B710
00007000
01888000
03400400
01878000
02106200
02979000
ENDCHAR
STARTCHAR uni091A
ENCODING 2330
SWIDTH 563 0
DWIDTH 6 0
BBX 7 7 -1 0
BITMAP
17777B50
00000700
06A82700
00800700
00800800
00577800
00000700
ENDCHAR
STARTCHAR uni091B
ENCODING 2331
SWIDTH 581 0
DWIDTH 6 0
BBX 7 7 -1 0
BITMAP
18B77B60
03400700
03505900
00B40710
03500610
03400610
01977700
ENDCHAR
STARTCHAR uni091C
ENCODING 2332
SWIDTH 547 0
DWIDTH 5 0
BBX 7 7 -1 0
BITMAP
17777B40
00000700
02998800
00080700
00080700
05840700
00000700
ENDCHAR
STARTCHAR uni091D
ENCODING 2333
SWIDTH 664 0
DWIDTH 7 0
BBX 8 8 -1 -1
BITMAP
1777B7B5
01885070
04400070
0188A890
00008070
05207070
05976070
02100000
ENDCHAR
STARTCHAR uni091E
ENCODING 2334
SWIDTH 592 0
DWIDTH 6 0
BBX 7 7 -1 0
BITMAP
17777B70
03740700
00070700
00088B00
00070700
04750700
00000700
ENDCHAR
STARTCHAR uni091F
ENCODING 2335
SWIDTH 485 0
DWIDTH 5 0
BBX 6 7 -1 0
BITMAP
1777B7
000070
007880
044000
052001
043025
019791
ENDCHAR
STARTCHAR uni0920
ENCODING 2336
SWIDTH 512 0
DWIDTH 5 0
BBX 7 7 -1 0
BITMAP
1777B720
00007000
0078A000
04403400
05202600
05303500
01979100
ENDCHAR
STARTCHAR uni0921
ENCODING 2337
SWIDTH 475 0
DWIDTH 5 0
BBX 6 7 -1 0
BITMAP
1777B6
000070
018880
034000
018770
022062
019790
ENDCHAR
STARTCHAR uni0922
ENCODING 2338
SWIDTH 485 0
DWIDTH 5 0
BBX 6 7 -1 0
BITMAP
1777B7
000070
007780
044000
052482
043525
018792
ENDCHAR
STARTCHAR uni0923
ENCODING 2339
SWIDTH 681 0
DWIDTH 7 0
BBX 8 7 -1 0
BITMAP
1997B7B6
03407070
03407070
02608070
00783070
00000070
00000070
ENDCHAR
STARTCHAR uni0924
ENCODING 2340
SWIDTH 496 0
DWIDTH 5 0
BBX 6 7 -1 0
BITMAP
1777B7
000071
0088B1
043071
052071
052071
019261
ENDCHAR
STARTCHAR uni0925
ENCODING 2341
SWIDTH 593 0
DWIDTH 6 0
BBX 6 7 0 0
BITMAP
099177
253470
004470
488070
520090
0777A0
000070
ENDCHAR
STARTCHAR uni0926
ENCODING 2342
SWIDTH 489 0
DWIDTH 5 0
BBX 6 7 -1 0
BITMAP
1777B7
000070
008890
043000
043052
0088A2
000052
ENDCHAR
STARTCHAR uni0927
ENCODING 2343
SWIDTH 560 0
DWIDTH 6 0
BBX 7 7 -1 0
BITMAP
18B25B50
04300700
03400700
01A50700
04400800
01887800
00000700
ENDCHAR
STARTCHAR uni0928
ENCODING 2344
SWIDTH 473 0
DWIDTH 5 0
BBX 6 7 -1 0
BITMAP
1777B6
000070
000070
0387A0
070070
000070
000070
ENDCHAR
STARTCHAR uni0928093C
ENCODING 2345
SWIDTH 473 0
DWIDTH 5 0
BBX 6 7 -1 0
BITMAP
1777B6
000070
000070
0377A0
060070
000070
004070
ENDCHAR
STARTCHAR uni092A
ENCODING 2346
SWIDTH 503 0
DWIDTH 5 0
BBX 7 7 -1 0
BITMAP
1997A810
03405200
03405200
02507200
00789200
00005200
00005200
ENDCHAR
STARTCHAR uni092B
ENCODING 2347
SWIDTH 739 0
DWIDTH 7 0
BBX 9 7 -1 0
BITMAP
1997B77730
0340778300
0340710700
0250900700
0077A00700
0000728300
0000700000
ENDCHAR
STARTCHAR uni092C
ENCODING 2348
SWIDTH 491 0
DWIDTH 5 0
BBX 6 7 -1 0
BITMAP
1777B7
008570
059170
062770
0531C0
0077A0
000070
ENDCHAR
STARTCHAR uni092D
ENCODING 2349
SWIDTH 491 0
DWIDTH 5 0
BBX 6 7 -1 0
BITMAP
1913B7
034070
034070
03A7B0
034070
000070
000070
ENDCHAR
STARTCHAR uni092E
ENCODING 2350
SWIDTH 490 0
DWIDTH 5 0
BBX 6 7 -1 0
BITMAP
1997B7
034070
034070
0397B0
034070
000070
000070
ENDCHAR
STARTCHAR uni092F
ENCODING 2351
SWIDTH 564 0
DWIDTH 6 0
BBX 7 7 -1 0
BITMAP
178B7B50
00070700
03830700
05200700
03400900
00677800
00000700
ENDCHAR
STARTCHAR uni0930
ENCODING 2352
SWIDTH 337 0
DWIDTH 3 0
BBX 5 7 -1 0
BITMAP
177B30
000700
000700
078200
035000
008100
001600
ENDCHAR
STARTCHAR uni0930093C
ENCODING 2353
SWIDTH 347 0
DWIDTH 3 0
BBX 5 8 -1 -1
BITMAP
177B40
000700
000800
068300
026000
007100
001600
040000
ENDCHAR
STARTCHAR uni0932
ENCODING 2354
SWIDTH 676 0
DWIDTH 7 0
BBX 8 7 -1 0
BITMAP
177777B6
00000070
007758A0
04418080
04307070
04300070
01950070
ENDCHAR
STARTCHAR uni0933
ENCODING 2355
SWIDTH 672 0
DWIDTH 7 0
BBX 8 7 -1 0
BITMAP
17777B76
00000700
00785A50
04309070
05207070
05208070
01888770
ENDCHAR
STARTCHAR uni0933093C
ENCODING 2356
SWIDTH 672 0
DWIDTH 7 0
BBX 8 8 -1 -1
BITMAP
17777B76
00000700
00785A50
04309070
05207070
05208070
01888770
00230000
ENDCHAR
STARTCHAR uni0935
ENCODING 2357
SWIDTH 484 0
DWIDTH 5 0
BBX 6 7 -1 0
BITMAP
1777B7
007570
053070
062070
053080
0077A0
000070
ENDCHAR
STARTCHAR uni0936
ENCODING 2358
SWIDTH 614 0
DWIDTH 6 0
BBX 7 7 0 0
BITMAP
19824920
43254300
00354300
68804300
26004300
07104300
01704300
ENDCHAR
STARTCHAR uni0937
ENCODING 2359
SWIDTH 505 0
DWIDTH 5 0
BBX 7 7 -1 0
BITMAP
19B7A810
03935200
03467200
0260A200
0078A200
00005200
00005200
ENDCHAR
STARTCHAR uni0938
ENCODING 2360
SWIDTH 575 0
DWIDTH 6 0
BBX 7 7 -1 0
BITMAP
178A7B60
00250800
00340800
07A88A00
04500800
00800800
00350700
ENDCHAR
STARTCHAR uni0939
ENCODING 2361
SWIDTH 481 0
DWIDTH 5 0
BBX 6 8 -1 -1
BITMAP
1777B6
007780
025000
025000
00A770
035061
034000
007760
ENDCHAR
STARTCHAR uni093C
ENCODING 2364
SWIDTH 0 0
DWIDTH 0 0
BBX 1 1 -2 -1
BITMAP
50
ENDCHAR
STARTCHAR uni093D
ENCODING 2365
SWIDTH 529 0
DWIDTH 5 0
BBX 4 7 1 0
BITMAP
7770
8000
6500
0591
0026
3016
6792
ENDCHAR
STARTCHAR uni093E
ENCODING 2366
SWIDTH 231 0
DWIDTH 2 0
BBX 4 7 -1 0
BITMAP
18A3
0160
0160
0160
0160
0160
0160
ENDCHAR
STARTCHAR uni093F
ENCODING 2367
SWIDTH 231 0
DWIDTH 2 0
BBX 8 10 -1 0
BITMAP
00888791
01600044
01600001
18A30000
01600000
01600000
01600000
01600000
01600000
01600000
ENDCHAR
STARTCHAR uni0940
ENCODING 2368
SWIDTH 231 0
DWIDTH 2 0
BBX 5 10 -2 0
BITMAP
299200
611600
101600
018A30
001600
001600
001600
001600
001600
001600
ENDCHAR
STARTCHAR uni0941
ENCODING 2369
SWIDTH 0 0
DWIDTH 0 0
BBX 5 3 -4 -3
BITMAP
201410
340340
078910
ENDCHAR
STARTCHAR uni0942
ENCODING 2370
SWIDTH 0 0
DWIDTH 0 0
BBX 4 3 -3 -3
BITMAP
3771
7017
5706
ENDCHAR
STARTCHAR uni0943
ENCODING 2371
SWIDTH 0 0
DWIDTH 0 0
BBX 4 3 -3 -3
BITMAP
4700
7000
6881
ENDCHAR
STARTCHAR uni0945
ENCODING 2373
SWIDTH 0 0
DWIDTH 0 0
BBX 4 2 -3 7
BITMAP
6015
4781
ENDCHAR
STARTCHAR uni0946
ENCODING 2374
SWIDTH 0 0
DWIDTH 0 0
BBX 4 4 -4 6
BITMAP
6000
2920
0090
0021
ENDCHAR
STARTCHAR uni0947
ENCODING 2375
SWIDTH 0 0
DWIDTH 0 0
BBX 3 4 -3 6
BITMAP
8000
5300
0700
0110
ENDCHAR
STARTCHAR uni0948
ENCODING 2376
SWIDTH 0 0
DWIDTH 0 0
BBX 4 4 -4 6
BITMAP
1861
0581
0091
0011
ENDCHAR
STARTCHAR uni0949
ENCODING 2377
SWIDTH 231 0
DWIDTH 2 0
BBX 4 9 -1 0
BITMAP
4106
1774
18A3
0160
0160
0160
0160
0160
0160
ENDCHAR
STARTCHAR uni094A
ENCODING 2378
SWIDTH 231 0
DWIDTH 2 0
BBX 5 10 -2 0
BITMAP
250000
085000
006400
018A30
001600
001600
001600
001600
001600
001600
ENDCHAR
STARTCHAR uni094B
ENCODING 2379
SWIDTH 231 0
DWIDTH 2 0
BBX 4 10 -1 0
BITMAP
7100
1700
0520
18A3
0160
0160
0160
0160
0160
0160
ENDCHAR
STARTCHAR uni094C
ENCODING 2380
SWIDTH 231 0
DWIDTH 2 0
BBX 4 10 -1 0
BITMAP
7160
2660
0560
18A3
0160
0160
0160
0160
0160
0160
ENDCHAR
STARTCHAR uni094D
ENCODING 2381
SWIDTH 0 0
DWIDTH 0 0
BBX 2 2 -2 -2
BITMAP
34
08
ENDCHAR
STARTCHAR uni0950
ENCODING 2384
SWIDTH 847 0
DWIDTH 8 0
BBX 8 9 0 0
BITMAP
00000500
00000013
05850671
00070000
00070682
03950007
20083407
62081707
29850985
ENDCHAR
STARTCHAR uni0951
ENCODING 2385
SWIDTH 0 0
DWIDTH 0 0
BBX 2 2 -2 8
BITMAP
61
61
ENDCHAR
STARTCHAR uni0952
ENCODING 2386
SWIDTH 0 0
DWIDTH 0 0
BBX 4 1 -5 -1
BITMAP
1777
ENDCHAR
STARTCHAR uni0953
ENCODING 2387
SWIDTH 0 0
DWIDTH 0 0
BBX 2 2 -3 8
BITMAP
53
08
ENDCHAR
STARTCHAR uni0954
ENCODING 2388
SWIDTH 0 0
DWIDTH 0 0
BBX 3 2 -2 8
BITMAP
0710
3500
ENDCHAR
STARTCHAR uni0915093C
ENCODING 2392
SWIDTH 725 0
DWIDTH 7 0
BBX 9 8 -1 -1
BITMAP
1777B77730
0075878200
0530800700
0610700700
0530800700
0077938200
0000700000
0040000000
ENDCHAR
STARTCHAR uni0916093C
ENCODING 2393
SWIDTH 696 0
DWIDTH 7 0
BBX 8 8 -1 -1
BITMAP
177B77B7
00070071
00074671
07827071
03508081
008147A1
00170061
04000000
ENDCHAR
STARTCHAR uni0917093C
ENCODING 2394
SWIDTH 494 0
DWIDTH 5 0
BBX 6 8 -1 -1
BITMAP
17B7B7
007070
007070
008070
064070
000070
000070
004000
ENDCHAR
STARTCHAR uni091C093C
ENCODING 2395
SWIDTH 547 0
DWIDTH 5 0
BBX 7 8 -1 -1
BITMAP
17777B40
00000700
02998800
00080700
00080700
05840700
00000700
01300000
ENDCHAR
STARTCHAR uni0921093C
ENCODING 2396
SWIDTH 475 0
DWIDTH 5 0
BBX 6 9 -1 -2
BITMAP
1777B6
000070
018880
034000
018770
022062
019790
000000
000500
ENDCHAR
STARTCHAR uni0922093C
ENCODING 2397
SWIDTH 485 0
DWIDTH 5 0
BBX 6 9 -1 -2
BITMAP
1777B7
000070
007780
044000
052482
043525
018792
000000
000500
ENDCHAR
STARTCHAR uni092B093C
ENCODING 2398
SWIDTH 739 0
DWIDTH 7 0
BBX 9 8 -1 -1
BITMAP
1997B77730
0340778300
0340710700
0250900700
0077A00700
0000728300
0000700000
0040000000
ENDCHAR
STARTCHAR uni092F093C
ENCODING 2399
SWIDTH 564 0
DWIDTH 6 0
BBX 7 8 -1 -1
BITMAP
178B7B50
00070700
03830700
05200700
03400900
00677800
00000700
00400000
ENDCHAR
STARTCHAR uni0960
ENCODING 2400
SWIDTH 753 0
DWIDTH 8 0
BBX 9 9 -1 -2
BITMAP
1777B77740
0000700000
0077A04700
0530845700
0310944400
0009C07000
019270A700
0000008000
0000007700
ENDCHAR
STARTCHAR uni0961
ENCODING 2401
SWIDTH 676 0
DWIDTH 7 0
BBX 8 10 -1 -3
BITMAP
177777B6
00000070
00785890
04408080
04307070
04300670
01950800
00000970
00000700
00000870
ENDCHAR
STARTCHAR uni0964
ENCODING 2404
SWIDTH 286 0
DWIDTH 3 0
BBX 1 7 1 0
BITMAP
70
70
70
70
70
70
70
ENDCHAR
STARTCHAR uni0965
ENCODING 2405
SWIDTH 518 0
DWIDTH 5 0
BBX 4 7 1 0
BITMAP
7043
7044
7044
7044
7044
7044
7043
ENDCHAR
STARTCHAR uni0966
ENCODING 2406
SWIDTH 519 0
DWIDTH 5 0
BBX 5 7 0 0
BITMAP
198920
430070
530070
530070
530070
430070
197820
ENDCHAR
STARTCHAR uni0967
ENCODING 2407
SWIDTH 288 0
DWIDTH 3 0
BBX 3 7 0 0
BITMAP
4B10
2610
0610
0610
0610
0610
0610
ENDCHAR
STARTCHAR uni0968
ENCODING 2408
SWIDTH 453 0
DWIDTH 5 0
BBX 5 7 0 0
BITMAP
387800
700610
100700
006400
073000
530000
787710
ENDCHAR
STARTCHAR uni0969
ENCODING 2409
SWIDTH 489 0
DWIDTH 5 0
BBX 5 7 0 0
BITMAP
287800
600520
000520
007900
100520
700530
287800
ENDCHAR
STARTCHAR uni096A
ENCODING 2410
SWIDTH 453 0
DWIDTH 5 0
BBX 5 7 0 0
BITMAP
005900
008700
052700
070700
620700
877B40
000700
ENDCHAR
STARTCHAR uni096B
ENCODING 2411
SWIDTH 480 0
DWIDTH 5 0
BBX 5 7 0 0
BITMAP
598810
530000
587700
210430
100340
430440
197910
ENDCHAR
STARTCHAR uni096C
ENCODING 2412
SWIDTH 495 0
DWIDTH 5 0
BBX 5 7 0 0
BITMAP
198810
430000
587810
550250
530170
430160
197910
ENDCHAR
STARTCHAR uni096D
ENCODING 2413
SWIDTH 380 0
DWIDTH 4 0
BBX 4 7 0 0
BITMAP
6888
0044
0080
0080
0530
0800
1700
ENDCHAR
STARTCHAR uni096E
ENCODING 2414
SWIDTH 523 0
DWIDTH 5 0
BBX 5 7 0 0
BITMAP
198830
430070
440170
0A7A20
440070
430070
197830
ENDCHAR
STARTCHAR uni096F
ENCODING 2415
SWIDTH 493 0
DWIDTH 5 0
BBX 5 7 0 0
BITMAP
398900
700430
710440
187940
000440
000430
177900
ENDCHAR
STARTCHAR uni0970
ENCODING 2416
SWIDTH 391 0
DWIDTH 4 0
BBX 4 4 0 1
BITMAP
2771
7017
7017
2771
ENDCHAR
STARTCHAR uni0972
ENCODING 2418
SWIDTH 598 0
DWIDTH 6 0
BBX 7 9 0 0
BITMAP
00060140
00047710
27806810
00526100
00616100
0098B100
00526100
00516100
47706100
ENDCHAR
STARTCHAR Wgrave
ENCODING 7808
SWIDTH 795 0
DWIDTH 8 0
BBX 8 8 0 0
BITMAP
00170000
00000000
80076018
53077044
26167071
08523480
07700770
06700850
ENDCHAR
STARTCHAR wgrave
ENCODING 7809
SWIDTH 682 0
DWIDTH 7 0
BBX 7 7 0 0
BITMAP
00720000
00020000
800B0170
62481530
16725700
07707700
07607500
ENDCHAR
STARTCHAR Wacute
ENCODING 7810
SWIDTH 795 0
DWIDTH 8 0
BBX 8 8 0 0
BITMAP
00007000
00000000
80076018
53077044
26167071
08523480
07700770
06700850
ENDCHAR
STARTCHAR wacute
ENCODING 7811
SWIDTH 682 0
DWIDTH 7 0
BBX 7 7 0 0
BITMAP
00054000
00020000
800B0170
62481530
16725700
07707700
07607500
ENDCHAR
STARTCHAR Wdieresis
ENCODING 7812
SWIDTH 795 0
DWIDTH 8 0
BBX 8 8 0 0
BITMAP
00167000
00011000
80076018
53077044
26167071
08523480
07700770
06700850
ENDCHAR
STARTCHAR wdieresis
ENCODING 7813
SWIDTH 682 0
DWIDTH 7 0
BBX 7 7 0 0
BITMAP
00707000
00202000
800B0170
62481530
16725700
07707700
07607500
ENDCHAR
STARTCHAR uni1E9E
ENCODING 7838
SWIDTH 542 0
DWIDTH 5 0
BBX 5 6 0 0
BITMAP
097780
350610
350840
350080
350080
354760
ENDCHAR
STARTCHAR Ygrave
ENCODING 7922
SWIDTH 493 0
DWIDTH 5 0
BBX 5 8 0 0
BITMAP
045000
000000
710260
170800
074500
01B000
008000
007000
ENDCHAR
STARTCHAR ygrave
ENCODING 7923
SWIDTH 459 0
DWIDTH 5 0
BBX 5 8 0 -1
BITMAP
054000
002000
700520
350800
082600
069100
019000
382000
ENDCHAR
STARTCHAR uni200B
ENCODING 8203
SWIDTH 0 0
DWIDTH 0 0
BBX 1 1 0 0
BITMAP
00
ENDCHAR
STARTCHAR uni200C
ENCODING 8204
SWIDTH 0 0
DWIDTH 0 0
BBX 2 10 -1 -2
BITMAP
44
44
44
44
44
44
44
44
44
44
ENDCHAR
STARTCHAR uni200D
ENCODING 8205
SWIDTH 0 0
DWIDTH 0 0
BBX 4 11 -2 -2
BITMAP
0110
1881
1AA1
0440
0440
0440
0440
0440
0440
0440
0440
ENDCHAR
STARTCHAR endash
ENCODING 8211
SWIDTH 408 0
DWIDTH 4 0
BBX 4 1 0 3
BITMAP
3664
ENDCHAR
STARTCHAR emdash
ENCODING 8212
SWIDTH 537 0
DWIDTH 5 0
BBX 5 1 0 3
BITMAP
366650
ENDCHAR
STARTCHAR quoteleft
ENCODING 8216
SWIDTH 179 0
DWIDTH 2 0
BBX 2 3 0 4
BITMAP
01
32
52
ENDCHAR
STARTCHAR quoteright
ENCODING 8217
SWIDTH 179 0
DWIDTH 2 0
BBX 2 3 0 3
BITMAP
62
51
10
ENDCHAR
STARTCHAR quotesinglbase
ENCODING 8218
SWIDTH 187 0
DWIDTH 2 0
BBX 2 3 0 -1
BITMAP
21
53
40
ENDCHAR
STARTCHAR quotedblleft
ENCODING 8220
SWIDTH 329 0
DWIDTH 3 0
BBX 3 3 0 4
BITMAP
0110
3260
5280
ENDCHAR
STARTCHAR quotedblright
ENCODING 8221
SWIDTH 329 0
DWIDTH 3 0
BBX 3 3 0 3
BITMAP
6280
5160
1010
ENDCHAR
STARTCHAR quotedblbase
ENCODING 8222
SWIDTH 337 0
DWIDTH 3 0
BBX 3 3 0 -1
BITMAP
2120
5380
4040
ENDCHAR
STARTCHAR dagger
ENCODING 8224
SWIDTH 427 0
DWIDTH 4 0
BBX 4 6 0 0
BITMAP
0150
3795
0250
0250
0150
0140
ENDCHAR
STARTCHAR daggerdbl
ENCODING 8225
SWIDTH 427 0
DWIDTH 4 0
BBX 4 6 0 0
BITMAP
0150
3795
0250
0250
3695
0150
ENDCHAR
STARTCHAR bullet
ENCODING 8226
SWIDTH 273 0
DWIDTH 3 0
BBX 2 2 0 2
BITMAP
17
1C
ENDCHAR
STARTCHAR ellipsis
ENCODING 8230
SWIDTH 591 0
DWIDTH 6 0
BBX 6 2 0 0
BITMAP
212121
535353
ENDCHAR
STARTCHAR perthousand
ENCODING 8240
SWIDTH 1027 0
DWIDTH 10 0
BBX 10 6 0 0
BITMAP
4680600000
6061600000
2665100000
0006554365
0052706607
0060766567
ENDCHAR
STARTCHAR guilsinglleft
ENCODING 8249
SWIDTH 290 0
DWIDTH 3 0
BBX 3 4 0 1
BITMAP
0010
0710
4400
0620
ENDCHAR
STARTCHAR guilsinglright
ENCODING 8250
SWIDTH 290 0
DWIDTH 3 0
BBX 3 4 0 1
BITMAP
1000
2600
0520
2500
ENDCHAR
STARTCHAR fraction
ENCODING 8260
SWIDTH 117 0
DWIDTH 1 0
BBX 5 6 -2 0
BITMAP
000070
000610
004300
025000
170000
610000
ENDCHAR
STARTCHAR Euro
ENCODING 8364
SWIDTH 523 0
DWIDTH 5 0
BBX 5 6 0 0
BITMAP
077840
080050
4B6200
4A6100
080050
077840
ENDCHAR
STARTCHAR uni20B9
ENCODING 8377
SWIDTH 414 0
DWIDTH 4 0
BBX 4 7 0 0
BITMAP
48B5
47B6
0070
7830
2600
0710
0080
ENDCHAR
STARTCHAR trademark
ENCODING 8482
SWIDTH 591 0
DWIDTH 6 0
BBX 6 3 0 4
BITMAP
283844
050864
030313
ENDCHAR
STARTCHAR uni2126
ENCODING 8486
SWIDTH 629 0
DWIDTH 6 0
BBX 6 7 0 0
BITMAP
088891
070034
070035
070035
070035
070034
4B64B7
ENDCHAR
STARTCHAR partialdiff
ENCODING 8706
SWIDTH 481 0
DWIDTH 5 0
BBX 5 8 0 0
BITMAP
054000
004800
000710
187930
530630
610430
620530
298900
ENDCHAR
STARTCHAR uni2206
ENCODING 8710
SWIDTH 594 0
DWIDTH 6 0
BBX 6 7 0 0
BITMAP
007600
008800
035620
071170
080080
350062
888897
ENDCHAR
STARTCHAR minus
ENCODING 8722
SWIDTH 523 0
DWIDTH 5 0
BBX 5 1 0 3
BITMAP
288840
ENDCHAR
STARTCHAR approxequal
ENCODING 8776
SWIDTH 523 0
DWIDTH 5 0
BBX 5 3 0 2
BITMAP
166620
000000
166620
ENDCHAR
STARTCHAR notequal
ENCODING 8800
SWIDTH 523 0
DWIDTH 5 0
BBX 5 5 0 1
BITMAP
000500
279830
006000
27A740
033000
ENDCHAR
STARTCHAR lessequal
ENCODING 8804
SWIDTH 523 0
DWIDTH 5 0
BBX 5 5 0 1
BITMAP
000120
167610
277400
000330
277730
ENDCHAR
STARTCHAR greaterequal
ENCODING 8805
SWIDTH 523 0
DWIDTH 5 0
BBX 5 5 0 1
BITMAP
120000
057620
036730
240000
277730
ENDCHAR
STARTCHAR uni25CC
ENCODING 9676
SWIDTH 701 0
DWIDTH 7 0
BBX 7 7 0 0
BITMAP
00199000
03600900
19000000
00000550
37000630
09102700
00964000
ENDCHAR
STARTCHAR commaaccent
ENCODING 63171
SWIDTH 0 0
DWIDTH 0 0
BBX 1 3 2 -3
BITMAP
20
70
40
ENDCHAR
STARTCHAR .notdef
ENCODING -1
SWIDTH 600 0
DWIDTH 6 0
BBX 4 7 1 0
BITMAP
8888
8008
8008
8008
8008
8008
8888
ENDCHAR
STARTCHAR .null
ENCODING -1
SWIDTH 0 0
DWIDTH 0 0
BBX 1 1 0 0
BITMAP
00
ENDCHAR
STARTCHAR nonmarkingreturn
ENCODING -1
SWIDTH 333 0
DWIDTH 3 0
BBX 1 1 0 0
BITMAP
00
ENDCHAR
STARTCHAR uni0915094D
ENCODING -1
SWIDTH 519 0
DWIDTH 5 0
BBX 8 7 -1 0
BITMAP
1777B773
00758782
05308002
06107000
05308000
00779000
00007000
ENDCHAR
STARTCHAR uni0916094D
ENCODING -1
SWIDTH 468 0
DWIDTH 5 0
BBX 7 7 -1 0
BITMAP
177B7750
00070000
00074600
07827000
03508030
00814740
00170000
ENDCHAR
STARTCHAR uni0917094D
ENCODING -1
SWIDTH 264 0
DWIDTH 3 0
BBX 4 5 -1 2
BITMAP
17B5
0070
0070
0080
0640
ENDCHAR
STARTCHAR uni0918094D
ENCODING -1
SWIDTH 321 0
DWIDTH 3 0
BBX 6 6 -1 1
BITMAP
18B883
044000
01B500
034000
044002
007771
ENDCHAR
STARTCHAR uni0919094D
ENCODING -1
SWIDTH 505 0
DWIDTH 5 0
BBX 7 10 -1 -3
BITMAP
1777B710
00007000
01888000
03400400
01878000
02106200
02979000
00030000
00062000
00004000
ENDCHAR
STARTCHAR uni091A094D
ENCODING -1
SWIDTH 330 0
DWIDTH 3 0
BBX 6 6 -1 1
BITMAP
177773
000000
06A820
008000
008002
005772
ENDCHAR
STARTCHAR uni091B094D
ENCODING -1
SWIDTH 581 0
DWIDTH 6 0
BBX 7 7 -1 0
BITMAP
18B77760
03400000
03505700
00B40710
03500610
03400610
01977800
ENDCHAR
STARTCHAR uni091C094D
ENCODING -1
SWIDTH 309 0
DWIDTH 3 0
BBX 6 6 -1 1
BITMAP
177771
000000
029981
000800
000800
058400
ENDCHAR
STARTCHAR uni091D094D
ENCODING -1
SWIDTH 432 0
DWIDTH 4 0
BBX 7 8 -1 -1
BITMAP
1777B720
00007000
01885000
04400000
0188A720
03208000
05987000
05200000
ENDCHAR
STARTCHAR uni091E094D
ENCODING -1
SWIDTH 359 0
DWIDTH 4 0
BBX 6 6 -1 1
BITMAP
177774
037400
000700
000884
000700
047500
ENDCHAR
STARTCHAR uni091F094D
ENCODING -1
SWIDTH 485 0
DWIDTH 5 0
BBX 6 10 -1 -3
BITMAP
1777B7
000070
007880
044000
052001
043025
019791
000200
000530
000040
ENDCHAR
STARTCHAR uni0920094D
ENCODING -1
SWIDTH 512 0
DWIDTH 5 0
BBX 7 10 -1 -3
BITMAP
1777B720
00007000
0078A000
04403400
05202600
05303500
01979100
00020000
00062000
00004000
ENDCHAR
STARTCHAR uni0921094D
ENCODING -1
SWIDTH 475 0
DWIDTH 5 0
BBX 6 10 -1 -3
BITMAP
1777B6
000070
018880
034000
018770
022062
019790
000300
000530
000040
ENDCHAR
STARTCHAR uni0922094D
ENCODING -1
SWIDTH 485 0
DWIDTH 5 0
BBX 6 10 -1 -3
BITMAP
1777B7
000070
007780
044000
052482
043525
018792
000200
000630
000040
ENDCHAR
STARTCHAR uni0923094D
ENCODING -1
SWIDTH 454 0
DWIDTH 5 0
BBX 6 5 -1 2
BITMAP
1997B5
034070
034070
026080
007830
ENDCHAR
STARTCHAR uni0924094D
ENCODING -1
SWIDTH 263 0
DWIDTH 3 0
BBX 5 7 -1 0
BITMAP
177740
000000
008850
043000
052000
052000
019200
ENDCHAR
STARTCHAR uni0925094D
ENCODING -1
SWIDTH 359 0
DWIDTH 4 0
BBX 5 6 0 1
BITMAP
099100
253400
004400
488000
520020
077740
ENDCHAR
STARTCHAR uni0926094D
ENCODING -1
SWIDTH 489 0
DWIDTH 5 0
BBX 6 9 -1 -2
BITMAP
1777B7
000070
008890
043000
043052
0088A2
000052
000710
000030
ENDCHAR
STARTCHAR uni0927094D
ENCODING -1
SWIDTH 321 0
DWIDTH 3 0
BBX 6 6 -1 1
BITMAP
18B364
044000
01B500
034000
044002
007771
ENDCHAR
STARTCHAR uni0928094D
ENCODING -1
SWIDTH 233 0
DWIDTH 2 0
BBX 5 5 -1 2
BITMAP
177720
000000
000000
047720
060000
ENDCHAR
STARTCHAR uni092A094D
ENCODING -1
SWIDTH 269 0
DWIDTH 3 0
BBX 5 5 -1 2
BITMAP
199770
034000
034000
025020
007860
ENDCHAR
STARTCHAR uni092B094D
ENCODING -1
SWIDTH 530 0
DWIDTH 5 0
BBX 8 7 -1 0
BITMAP
1997B774
03407783
03407103
02509000
0077A000
00007000
00007000
ENDCHAR
STARTCHAR uni092C094D
ENCODING -1
SWIDTH 265 0
DWIDTH 3 0
BBX 5 6 -1 1
BITMAP
177760
008500
058100
052710
0531A0
007740
ENDCHAR
STARTCHAR uni092D094D
ENCODING -1
SWIDTH 261 0
DWIDTH 3 0
BBX 5 5 -1 2
BITMAP
191350
034000
034000
03A750
034000
ENDCHAR
STARTCHAR uni092E094D
ENCODING -1
SWIDTH 261 0
DWIDTH 3 0
BBX 5 5 -1 2
BITMAP
199750
034000
034000
039750
034000
ENDCHAR
STARTCHAR uni092F094D
ENCODING -1
SWIDTH 323 0
DWIDTH 3 0
BBX 6 6 -1 1
BITMAP
178B71
000700
038300
052000
034002
006771
ENDCHAR
STARTCHAR uni0930094D
ENCODING -1
SWIDTH 337 0
DWIDTH 3 0
BBX 5 9 -1 -2
BITMAP
177B30
000700
000700
078200
035000
008100
001600
004000
001600
ENDCHAR
STARTCHAR uni0932094D
ENCODING -1
SWIDTH 431 0
DWIDTH 4 0
BBX 7 7 -1 0
BITMAP
17777740
00000000
00775730
04418010
04307000
04300000
01950000
ENDCHAR
STARTCHAR uni0933094D
ENCODING -1
SWIDTH 677 0
DWIDTH 7 0
BBX 8 7 -1 0
BITMAP
17777776
00000000
00785750
04309070
05207070
05208070
01888770
ENDCHAR
STARTCHAR uni0935094D
ENCODING -1
SWIDTH 255 0
DWIDTH 3 0
BBX 5 6 -1 1
BITMAP
177760
007500
053000
052010
053060
007740
ENDCHAR
STARTCHAR uni0936094D
ENCODING -1
SWIDTH 378 0
DWIDTH 4 0
BBX 4 7 0 0
BITMAP
1982
4325
0035
6880
2600
0710
0170
ENDCHAR
STARTCHAR uni0937094D
ENCODING -1
SWIDTH 282 0
DWIDTH 3 0
BBX 6 5 -1 2
BITMAP
19B771
039300
034620
026081
007850
ENDCHAR
STARTCHAR uni0938094D
ENCODING -1
SWIDTH 338 0
DWIDTH 3 0
BBX 6 7 -1 0
BITMAP
178A73
002500
003400
07A884
045000
008000
003500
ENDCHAR
STARTCHAR uni0939094D
ENCODING -1
SWIDTH 457 0
DWIDTH 5 0
BBX 7 8 -1 -1
BITMAP
1777B600
00778000
02500000
02500000
00A77740
03500000
03400000
00676000
ENDCHAR
STARTCHAR uni0915093C094D
ENCODING -1
SWIDTH 519 0
DWIDTH 5 0
BBX 8 8 -1 -1
BITMAP
1777B773
00758782
05308002
06107000
05308000
00779000
00007000
00400000
ENDCHAR
STARTCHAR uni0916093C094D
ENCODING -1
SWIDTH 463 0
DWIDTH 5 0
BBX 7 8 -1 -1
BITMAP
177B7750
00070000
00074600
07827000
03508030
00814740
00170000
03200000
ENDCHAR
STARTCHAR uni0917093C094D
ENCODING -1
SWIDTH 264 0
DWIDTH 3 0
BBX 4 7 -1 0
BITMAP
17B5
0070
0070
0080
0640
0000
0040
ENDCHAR
STARTCHAR uni091C093C094D
ENCODING -1
SWIDTH 314 0
DWIDTH 3 0
BBX 6 8 -1 -1
BITMAP
177771
000000
029981
000800
000800
058400
000000
014000
ENDCHAR
STARTCHAR uni0928093C094D
ENCODING -1
SWIDTH 241 0
DWIDTH 2 0
BBX 4 7 0 0
BITMAP
7773
0000
0000
3773
6000
0000
0400
ENDCHAR
STARTCHAR uni092B093C094D
ENCODING -1
SWIDTH 530 0
DWIDTH 5 0
BBX 8 8 -1 -1
BITMAP
1997B774
03407783
03407103
02509000
0077A000
00007000
00007000
00500000
ENDCHAR
STARTCHAR uni092F093C094D
ENCODING -1
SWIDTH 325 0
DWIDTH 3 0
BBX 6 8 -1 -1
BITMAP
178B71
000700
038300
052000
034002
006771
000000
004000
ENDCHAR
STARTCHAR uni09080902
ENCODING -1
SWIDTH 478 0
DWIDTH 5 0
BBX 6 11 -1 -1
BITMAP
000384
000722
000710
1777B6
000070
018780
044000
018780
052052
059791
021000
ENDCHAR
STARTCHAR uni09300941
ENCODING -1
SWIDTH 533 0
DWIDTH 5 0
BBX 7 7 -1 0
BITMAP
177B7730
00070000
000B7400
07830700
03502700
00816000
00160000
ENDCHAR
STARTCHAR uni09300942
ENCODING -1
SWIDTH 645 0
DWIDTH 6 0
BBX 8 7 -1 0
BITMAP
177B7774
00074840
00077070
07825070
03500370
00712700
00160000
ENDCHAR
STARTCHAR uni09390941
ENCODING -1
SWIDTH 495 0
DWIDTH 5 0
BBX 6 10 -1 -3
BITMAP
1777B7
000070
008780
025000
00A770
035061
034000
007771
042034
007891
ENDCHAR
STARTCHAR uni09390942
ENCODING -1
SWIDTH 492 0
DWIDTH 5 0
BBX 6 10 -1 -3
BITMAP
1777B6
000070
008780
025000
00A770
034051
019610
007070
016043
008406
ENDCHAR
STARTCHAR uni09260943
ENCODING -1
SWIDTH 390 0
DWIDTH 4 0
BBX 5 7 -1 0
BITMAP
177A80
000520
008810
035000
01B600
034000
019730
ENDCHAR
STARTCHAR uni09390943
ENCODING -1
SWIDTH 519 0
DWIDTH 5 0
BBX 7 9 -1 -2
BITMAP
1777B720
00007000
01878000
04400000
01A98500
04370400
05277300
04300000
00777000
ENDCHAR
STARTCHAR uni094D0930
ENCODING -1
SWIDTH 0 0
DWIDTH 0 0
BBX 3 2 -4 -2
BITMAP
2A20
8080
ENDCHAR
STARTCHAR uni0930094D.1
ENCODING -1
SWIDTH 192 0
DWIDTH 2 0
BBX 4 3 -1 4
BITMAP
1770
1001
4886
ENDCHAR
STARTCHAR uni0930094D.2
ENCODING -1
SWIDTH 0 0
DWIDTH 0 0
BBX 3 3 -2 7
BITMAP
3910
6100
6100
ENDCHAR
STARTCHAR uni0930094D0902
ENCODING -1
SWIDTH 0 0
DWIDTH 0 0
BBX 3 3 -2 7
BITMAP
3910
6510
6100
ENDCHAR
STARTCHAR uni093E0930094D
ENCODING -1
SWIDTH 231 0
DWIDTH 2 0
BBX 4 10 -1 0
BITMAP
0094
0160
0160
18A3
0160
0160
0160
0160
0160
0160
ENDCHAR
STARTCHAR uni093E0930094D0902
ENCODING -1
SWIDTH 231 0
DWIDTH 2 0
BBX 4 10 -1 0
BITMAP
0093
0164
0160
18A3
0160
0160
0160
0160
0160
0160
ENDCHAR
STARTCHAR uni0930094D.aMatraI
ENCODING -1
SWIDTH 0 0
DWIDTH 0 0
BBX 3 3 -1 7
BITMAP
1710
7100
7000
ENDCHAR
STARTCHAR uni0902.aMatraI
ENCODING -1
SWIDTH 0 0
DWIDTH 0 0
BBX 1 1 0 8
BITMAP
50
ENDCHAR
STARTCHAR uni0930094D0902.aMatraI
ENCODING -1
SWIDTH 0 0
DWIDTH 0 0
BBX 3 3 -1 7
BITMAP
1710
7100
7400
ENDCHAR
STARTCHAR uni09400930094D
ENCODING -1
SWIDTH 231 0
DWIDTH 2 0
BBX 5 10 -2 0
BITMAP
299940
612600
101600
018A30
001600
001600
001600
001600
001600
001600
ENDCHAR
STARTCHAR uni09400902
ENCODING -1
SWIDTH 231 0
DWIDTH 2 0
BBX 5 10 -2 0
BITMAP
299200
611650
101600
018A30
001600
001600
001600
001600
001600
001600
ENDCHAR
STARTCHAR uni09400930094D0902
ENCODING -1
SWIDTH 231 0
DWIDTH 2 0
BBX 5 10 -2 0
BITMAP
299940
612640
001600
018A30
001600
001600
001600
001600
001600
001600
ENDCHAR
STARTCHAR uni0940.aLong
ENCODING -1
SWIDTH 231 0
DWIDTH 2 0
BBX 7 10 -4 0
BITMAP
78889200
70001600
10001600
00018A30
00001600
00001600
00001600
00001600
00001600
00001600
ENDCHAR
STARTCHAR uni09400930094D.aLong
ENCODING -1
SWIDTH 231 0
DWIDTH 2 0
BBX 7 10 -4 0
BITMAP
78889940
70002600
10001600
00018A30
00001600
00001600
00001600
00001600
00001600
00001600
ENDCHAR
STARTCHAR uni09400902.aLong
ENCODING -1
SWIDTH 231 0
DWIDTH 2 0
BBX 7 10 -4 0
BITMAP
78889200
70001650
10001600
00018A30
00001600
00001600
00001600
00001600
00001600
00001600
ENDCHAR
STARTCHAR uni09400930094D0902.aLong
ENCODING -1
SWIDTH 231 0
DWIDTH 2 0
BBX 7 10 -4 0
BITMAP
77889940
70002640
00001600
00018A30
00001600
00001600
00001600
00001600
00001600
00001600
ENDCHAR
STARTCHAR uni09470930094D
ENCODING -1
SWIDTH 0 0
DWIDTH 0 0
BBX 4 3 -3 7
BITMAP
9291
4A10
0810
ENDCHAR
STARTCHAR uni09470902
ENCODING -1
SWIDTH 0 0
DWIDTH 0 0
BBX 3 4 -3 6
BITMAP
8000
5350
0700
0110
ENDCHAR
STARTCHAR uni09470901
ENCODING -1
SWIDTH 0 0
DWIDTH 0 0
BBX 5 4 -3 6
BITMAP
800400
564060
078760
011000
ENDCHAR
STARTCHAR uni09470930094D0902
ENCODING -1
SWIDTH 0 0
DWIDTH 0 0
BBX 4 3 -3 7
BITMAP
9391
4B51
0810
ENDCHAR
STARTCHAR uni09480930094D
ENCODING -1
SWIDTH 0 0
DWIDTH 0 0
BBX 5 3 -4 7
BITMAP
168820
06A200
00A100
ENDCHAR
STARTCHAR uni09480902
ENCODING -1
SWIDTH 0 0
DWIDTH 0 0
BBX 5 3 -4 7
BITMAP
186100
058420
008100
ENDCHAR
STARTCHAR uni09480901
ENCODING -1
SWIDTH 0 0
DWIDTH 0 0
BBX 7 3 -4 7
BITMAP
18631420
05937750
00910000
ENDCHAR
STARTCHAR uni09480930094D0902
ENCODING -1
SWIDTH 0 0
DWIDTH 0 0
BBX 5 3 -4 7
BITMAP
168820
06A510
00A100
ENDCHAR
STARTCHAR uni094B0930094D
ENCODING -1
SWIDTH 231 0
DWIDTH 2 0
BBX 4 10 -1 0
BITMAP
7184
1860
0560
18A3
0160
0160
0160
0160
0160
0160
ENDCHAR
STARTCHAR uni094B0902
ENCODING -1
SWIDTH 231 0
DWIDTH 2 0
BBX 4 10 -1 0
BITMAP
7100
1750
0520
18A3
0160
0160
0160
0160
0160
0160
ENDCHAR
STARTCHAR uni094B0930094D0902
ENCODING -1
SWIDTH 231 0
DWIDTH 2 0
BBX 4 10 -1 0
BITMAP
7293
1964
0560
18A3
0160
0160
0160
0160
0160
0160
ENDCHAR
STARTCHAR uni094C0930094D
ENCODING -1
SWIDTH 231 0
DWIDTH 2 0
BBX 4 10 -1 0
BITMAP
8674
3960
0760
18A3
0160
0160
0160
0160
0160
0160
ENDCHAR
STARTCHAR uni094C0902
ENCODING -1
SWIDTH 231 0
DWIDTH 2 0
BBX 4 10 -1 0
BITMAP
7160
2675
0560
18A3
0160
0160
0160
0160
0160
0160
ENDCHAR
STARTCHAR uni094C0930094D0902
ENCODING -1
SWIDTH 231 0
DWIDTH 2 0
BBX 4 10 -1 0
BITMAP
8674
3A64
0760
18A3
0160
0160
0160
0160
0160
0160
ENDCHAR
STARTCHAR uni0915094D0937
ENCODING -1
SWIDTH 656 0
DWIDTH 7 0
BBX 7 7 0 0
BITMAP
07770A50
07070700
19898800
52000700
53060700
188A0700
00070700
ENDCHAR
STARTCHAR uni0915094D0937094D
ENCODING -1
SWIDTH 429 0
DWIDTH 4 0
BBX 6 7 0 0
BITMAP
077700
070700
198983
520000
530600
188A00
000700
ENDCHAR
STARTCHAR uni0915094D0937094D092E
ENCODING -1
SWIDTH 933 0
DWIDTH 9 0
BBX 10 7 0 0
BITMAP
07772B78A3
0707070160
1989890160
52000A7860
5306050160
188A000160
0007000160
ENDCHAR
STARTCHAR uni0915094D0937094D092E094D
ENCODING -1
SWIDTH 717 0
DWIDTH 7 0
BBX 9 7 0 0
BITMAP
07772B7720
0707070000
1989890000
52000A7720
5306050000
188A000000
0007000000
ENDCHAR
STARTCHAR uni0915094D0937094D092E094D092F
ENCODING -1
SWIDTH 1283 0
DWIDTH 13 0
BBX 13 7 0 0
BITMAP
07772B777B7B70
07070700070700
19898901950700
52000A78500700
53060701700900
188B0000577900
00070000000700
ENDCHAR
STARTCHAR uni0915094D0937094D092F
ENCODING -1
SWIDTH 989 0
DWIDTH 10 0
BBX 10 7 0 0
BITMAP
077727B7B7
0707007080
1989896080
5300160080
5306070090
188B0477A0
0007000070
ENDCHAR
STARTCHAR uni0915094D0937094D0935
ENCODING -1
SWIDTH 936 0
DWIDTH 9 0
BBX 10 7 0 0
BITMAP
07772777B3
0707047270
1989890070
5200070070
5306070270
188A047770
0007000060
ENDCHAR
STARTCHAR uni091C094D091E
ENCODING -1
SWIDTH 629 0
DWIDTH 6 0
BBX 8 8 -1 -1
BITMAP
177778A3
00000250
01888950
04500250
01877250
04307250
04978250
03200000
ENDCHAR
STARTCHAR uni091C094D091E094D
ENCODING -1
SWIDTH 398 0
DWIDTH 4 0
BBX 6 8 -1 -1
BITMAP
177777
000000
018887
045000
018770
032070
049780
043000
ENDCHAR
STARTCHAR uni091C094D091E094D092F
ENCODING -1
SWIDTH 975 0
DWIDTH 10 0
BBX 11 8 -1 -1
BITMAP
1777778B7B60
000000070700
018888170700
045004940700
018773400900
043070777900
049790000700
032000000000
ENDCHAR
STARTCHAR uni0915094D0928
ENCODING -1
SWIDTH 1003 0
DWIDTH 10 0
BBX 12 7 -1 0
BITMAP
1777B7777A81
007587810620
053080150620
0610701A7A20
053080230620
007790000620
000070000620
ENDCHAR
STARTCHAR uni0916094D0928
ENCODING -1
SWIDTH 958 0
DWIDTH 10 0
BBX 11 7 -1 0
BITMAP
177B77777B50
000700000700
000747500700
078280887900
035057A00700
008100100700
001700000700
ENDCHAR
STARTCHAR uni0917094D0928
ENCODING -1
SWIDTH 736 0
DWIDTH 7 0
BBX 9 7 -1 0
BITMAP
17B7777B30
0070001700
0070001700
0080678700
0640701700
0000001700
0000001700
ENDCHAR
STARTCHAR uni0918094D0928
ENCODING -1
SWIDTH 814 0
DWIDTH 8 0
BBX 10 7 -1 0
BITMAP
18B7777992
0440000440
01B5000440
0230088A40
0340260440
0077750440
0000000430
ENDCHAR
STARTCHAR uni091A094D0928
ENCODING -1
SWIDTH 829 0
DWIDTH 8 0
BBX 10 7 -1 0
BITMAP
17777778A3
0000000160
06A8200160
0070077860
0070070160
0046760160
0000000160
ENDCHAR
STARTCHAR uni091B094D0928
ENCODING -1
SWIDTH 977 0
DWIDTH 10 0
BBX 11 7 -1 0
BITMAP
18B777777B60
034056000700
035007100700
00B406487A00
025006800700
034006100700
019777000700
ENDCHAR
STARTCHAR uni091C094D0928
ENCODING -1
SWIDTH 831 0
DWIDTH 8 0
BBX 10 7 -1 0
BITMAP
17777778A3
0000000160
02898A8860
0007080160
0007060160
0007000160
0585000160
ENDCHAR
STARTCHAR uni091D094D0928
ENCODING -1
SWIDTH 935 0
DWIDTH 9 0
BBX 11 8 -1 -1
BITMAP
1777B7777B30
018850001700
044000001700
0188A7801700
000080701700
052070101700
059860001600
032000000000
ENDCHAR
STARTCHAR uni091F094D0928
ENCODING -1
SWIDTH 494 0
DWIDTH 5 0
BBX 6 10 -1 -3
BITMAP
1777B7
000070
007880
034000
052015
034025
0077B0
0187A0
043080
011070
ENDCHAR
STARTCHAR uni0920094D0928
ENCODING -1
SWIDTH 516 0
DWIDTH 5 0
BBX 7 10 -1 -3
BITMAP
1777B720
00007000
0077A000
04403400
05201600
04403500
0077B000
0187A000
04308000
01107000
ENDCHAR
STARTCHAR uni0921094D0928
ENCODING -1
SWIDTH 481 0
DWIDTH 5 0
BBX 6 10 -1 -3
BITMAP
1777B6
000070
018880
034000
005460
033052
0188B0
0087A0
034070
012070
ENDCHAR
STARTCHAR uni0924094D0928
ENCODING -1
SWIDTH 756 0
DWIDTH 8 0
BBX 9 7 -1 0
BITMAP
1777777B50
0000000800
0088600800
0430887900
0520700800
0520000800
0192000700
ENDCHAR
STARTCHAR uni0925094D0928
ENCODING -1
SWIDTH 855 0
DWIDTH 9 0
BBX 9 7 0 0
BITMAP
0992777B50
2634000700
0144000700
4880588800
5300800700
0788600700
0000000700
ENDCHAR
STARTCHAR uni0926094D0928
ENCODING -1
SWIDTH 955 0
DWIDTH 10 0
BBX 11 10 -1 -3
BITMAP
1777B7777B50
000070000700
008890000700
043000577800
043052400700
0088A2000700
000052000700
000021000000
000008000000
000003000000
ENDCHAR
STARTCHAR uni0927094D0928
ENCODING -1
SWIDTH 814 0
DWIDTH 8 0
BBX 10 7 -1 0
BITMAP
18B3277992
0440000440
01B5000440
0230088A40
0340260440
0077740440
0000000430
ENDCHAR
STARTCHAR uni0928094D0928
ENCODING -1
SWIDTH 738 0
DWIDTH 7 0
BBX 9 7 -1 0
BITMAP
1777777B30
0000000700
0000000700
0387A78700
0700700700
0000000700
0000000700
ENDCHAR
STARTCHAR uni092A094D0928
ENCODING -1
SWIDTH 782 0
DWIDTH 8 0
BBX 9 7 -1 0
BITMAP
1997777B60
0340000700
0340000700
0260388B00
0078910700
0000000700
0000000700
ENDCHAR
STARTCHAR uni092B094D0928
ENCODING -1
SWIDTH 1013 0
DWIDTH 10 0
BBX 12 7 -1 0
BITMAP
1997B7777992
034076810430
034071160430
0250901A7930
0077B0130430
000070000430
000070000430
ENDCHAR
STARTCHAR uni092C094D0928
ENCODING -1
SWIDTH 810 0
DWIDTH 8 0
BBX 10 7 -1 0
BITMAP
1777777991
0085000430
05A0000430
0567087A30
0533740430
0077400430
0000000430
ENDCHAR
STARTCHAR uni092D094D0928
ENCODING -1
SWIDTH 757 0
DWIDTH 8 0
BBX 9 7 -1 0
BITMAP
1913777B50
0340000700
0340000700
03A8A87900
0340500700
0000000700
0000000700
ENDCHAR
STARTCHAR uni092E094D0928
ENCODING -1
SWIDTH 757 0
DWIDTH 8 0
BBX 9 7 -1 0
BITMAP
1997777B50
0340000700
0340000700
03A8A87900
0340500700
0000000700
0000000700
ENDCHAR
STARTCHAR uni092F094D0928
ENCODING -1
SWIDTH 829 0
DWIDTH 8 0
BBX 10 7 -1 0
BITMAP
178B7778A3
0007000260
0393000260
0520078860
0250180260
0067750260
0000000260
ENDCHAR
STARTCHAR uni0935094D0928
ENCODING -1
SWIDTH 798 0
DWIDTH 8 0
BBX 10 7 -1 0
BITMAP
1777777A81
0075000610
0530000610
0520187B10
0530330610
0077500610
0000000610
ENDCHAR
STARTCHAR uni0936094D0928
ENCODING -1
SWIDTH 845 0
DWIDTH 8 0
BBX 9 7 0 0
BITMAP
1882677B40
4425000700
2135000700
6880400700
2600500700
0710000700
0170000700
ENDCHAR
STARTCHAR uni0938094D0928
ENCODING -1
SWIDTH 831 0
DWIDTH 8 0
BBX 10 7 -1 0
BITMAP
178A7778A3
0025000160
0034000160
07A8870260
0450050160
0080000160
0035000160
ENDCHAR
STARTCHAR uni0939094D0928
ENCODING -1
SWIDTH 500 0
DWIDTH 5 0
BBX 7 9 -1 -2
BITMAP
1777A810
00005200
00879100
02500000
00A79500
03545700
04371700
03500000
00777000
ENDCHAR
STARTCHAR uni0915094D0930
ENCODING -1
SWIDTH 725 0
DWIDTH 7 0
BBX 9 8 -1 -1
BITMAP
1777B77730
0075878200
0530800700
0610700700
0530800800
0079A27200
0036700000
0040000000
ENDCHAR
STARTCHAR uni0916094D0930
ENCODING -1
SWIDTH 698 0
DWIDTH 7 0
BBX 9 8 -1 -1
BITMAP
177B77A810
0007006100
0007466100
0782706100
0350707100
008148B100
0017176100
0000400000
ENDCHAR
STARTCHAR uni0917094D0930
ENCODING -1
SWIDTH 494 0
DWIDTH 5 0
BBX 6 7 -1 0
BITMAP
17B7B7
007070
007070
008070
0642C0
001870
008170
ENDCHAR
STARTCHAR uni0918094D0930
ENCODING -1
SWIDTH 559 0
DWIDTH 6 0
BBX 7 8 -1 -1
BITMAP
18B77B50
04400800
01A50800
03400800
03400900
0078A800
00081700
00320000
ENDCHAR
STARTCHAR uni0919094D0930
ENCODING -1
SWIDTH 505 0
DWIDTH 5 0
BBX 7 9 -1 -2
BITMAP
1777B710
00007000
01888000
03400400
01878000
01006200
02979000
00683000
00808000
ENDCHAR
STARTCHAR uni091A094D0930
ENCODING -1
SWIDTH 563 0
DWIDTH 6 0
BBX 7 8 -1 -1
BITMAP
17777B50
00000700
06A82700
00800700
00800800
0057A900
00082700
00220000
ENDCHAR
STARTCHAR uni091B094D0930
ENCODING -1
SWIDTH 581 0
DWIDTH 6 0
BBX 7 9 -1 -2
BITMAP
18B77B60
03400700
03505900
00B40710
03500610
03400610
01977700
00188000
00311300
ENDCHAR
STARTCHAR uni091C094D0930
ENCODING -1
SWIDTH 547 0
DWIDTH 5 0
BBX 7 8 -1 -1
BITMAP
17777B40
00000700
02898800
00080700
00081800
05847800
00063700
00040000
ENDCHAR
STARTCHAR uni091D094D0930
ENCODING -1
SWIDTH 684 0
DWIDTH 7 0
BBX 8 7 -1 0
BITMAP
1777B7B7
01885070
04400070
0188A7B0
03208090
053076D0
05A89770
ENDCHAR
STARTCHAR uni091E094D0930
ENCODING -1
SWIDTH 598 0
DWIDTH 6 0
BBX 8 7 -1 0
BITMAP
17777A81
03740610
00070610
00088B10
00070A10
04756910
00045610
ENDCHAR
STARTCHAR uni091F094D0930
ENCODING -1
SWIDTH 485 0
DWIDTH 5 0
BBX 6 9 -1 -2
BITMAP
1777B7
000070
007880
044000
052000
043025
019791
004760
007060
ENDCHAR
STARTCHAR uni0920094D0930
ENCODING -1
SWIDTH 512 0
DWIDTH 5 0
BBX 7 9 -1 -2
BITMAP
1777B720
00007000
0078A000
04403400
05202600
05303500
01979100
00567000
00404000
ENDCHAR
STARTCHAR uni0921094D0930
ENCODING -1
SWIDTH 475 0
DWIDTH 5 0
BBX 6 9 -1 -2
BITMAP
1777B6
000070
018880
034000
018780
043062
019790
007560
001020
ENDCHAR
STARTCHAR uni0922094D0930
ENCODING -1
SWIDTH 485 0
DWIDTH 5 0
BBX 6 9 -1 -2
BITMAP
1777B7
000070
007780
044000
052482
043525
018792
005670
004040
ENDCHAR
STARTCHAR uni0923094D0930
ENCODING -1
SWIDTH 681 0
DWIDTH 7 0
BBX 8 7 -1 0
BITMAP
1997B7B6
03407070
03407070
02608090
007835A0
00002670
00008070
ENDCHAR
STARTCHAR uni0924094D0930
ENCODING -1
SWIDTH 493 0
DWIDTH 5 0
BBX 6 7 -1 0
BITMAP
1777B7
000070
0187B0
053090
0210A0
001890
018170
ENDCHAR
STARTCHAR uni0925094D0930
ENCODING -1
SWIDTH 593 0
DWIDTH 6 0
BBX 6 8 0 -1
BITMAP
099177
253470
004470
488070
520090
077AB0
007470
023000
ENDCHAR
STARTCHAR uni0926094D0930
ENCODING -1
SWIDTH 489 0
DWIDTH 5 0
BBX 6 8 -1 -1
BITMAP
1777B7
000070
008890
043000
043052
0089B2
000952
002200
ENDCHAR
STARTCHAR uni0927094D0930
ENCODING -1
SWIDTH 560 0
DWIDTH 6 0
BBX 7 8 -1 -1
BITMAP
18B26B50
04300700
03400700
00A50700
03400800
0188B800
00083700
00130000
ENDCHAR
STARTCHAR uni0928094D0930
ENCODING -1
SWIDTH 473 0
DWIDTH 5 0
BBX 6 7 -1 0
BITMAP
1777B6
000070
000070
0387A0
0703A0
002770
018070
ENDCHAR
STARTCHAR uni092A094D0930
ENCODING -1
SWIDTH 503 0
DWIDTH 5 0
BBX 7 7 -1 0
BITMAP
1997A810
03405200
03405200
02507200
0078B200
00175200
00815200
ENDCHAR
STARTCHAR uni092B094D0930
ENCODING -1
SWIDTH 741 0
DWIDTH 7 0
BBX 9 7 -1 0
BITMAP
1997B77740
0340778300
0340710800
0250900700
0079B00800
0027728300
0080700000
ENDCHAR
STARTCHAR uni092C094D0930
ENCODING -1
SWIDTH 491 0
DWIDTH 5 0
BBX 6 8 -1 -1
BITMAP
1777B7
008570
059170
052770
0531C0
0079B0
002770
004000
ENDCHAR
STARTCHAR uni092D094D0930
ENCODING -1
SWIDTH 491 0
DWIDTH 5 0
BBX 6 7 -1 0
BITMAP
1913B7
034070
034070
0397B0
0342C0
001870
007170
ENDCHAR
STARTCHAR uni092E094D0930
ENCODING -1
SWIDTH 490 0
DWIDTH 5 0
BBX 6 7 -1 0
BITMAP
1997B7
034070
034070
03A8B0
0343C0
001870
008070
ENDCHAR
STARTCHAR uni092F094D0930
ENCODING -1
SWIDTH 564 0
DWIDTH 6 0
BBX 7 8 -1 -1
BITMAP
178B7B50
00070700
03830700
05200700
03400900
0077B800
00092700
00320000
ENDCHAR
STARTCHAR uni0935094D0930
ENCODING -1
SWIDTH 484 0
DWIDTH 5 0
BBX 6 8 -1 -1
BITMAP
1777B7
007570
053070
062070
053080
007AA0
003670
004000
ENDCHAR
STARTCHAR uni0936094D0930
ENCODING -1
SWIDTH 558 0
DWIDTH 6 0
BBX 6 7 0 0
BITMAP
298295
532570
276270
09A070
654990
005770
055070
ENDCHAR
STARTCHAR uni0938094D0930
ENCODING -1
SWIDTH 604 0
DWIDTH 6 0
BBX 8 7 -1 0
BITMAP
178A7A81
00250520
00340520
07A88C20
04505820
00816520
00350520
ENDCHAR
STARTCHAR uni0939094D0930
ENCODING -1
SWIDTH 505 0
DWIDTH 5 0
BBX 7 9 -1 -2
BITMAP
1777B810
00007100
01879000
04400000
01A79400
04327600
05281600
04300000
00777000
ENDCHAR
STARTCHAR uni0915093C094D0930
ENCODING -1
SWIDTH 725 0
DWIDTH 7 0
BBX 9 8 -1 -1
BITMAP
1777B77730
0075878200
0530800700
0610700700
0530800800
0079A27200
0054700000
0015000000
ENDCHAR
STARTCHAR uni0916093C094D0930
ENCODING -1
SWIDTH 698 0
DWIDTH 7 0
BBX 9 8 -1 -1
BITMAP
177B77A810
0007006100
0007466100
0782706100
0350707100
008148B100
0017356100
0000150000
ENDCHAR
STARTCHAR uni0917093C094D0930
ENCODING -1
SWIDTH 494 0
DWIDTH 5 0
BBX 6 8 -1 -1
BITMAP
17B7B7
007070
007070
008070
0642C0
001870
008170
000500
ENDCHAR
STARTCHAR uni091C093C094D0930
ENCODING -1
SWIDTH 547 0
DWIDTH 5 0
BBX 7 8 -1 -1
BITMAP
17777B40
00000700
02898800
00080700
00081800
05847700
00071700
04000000
ENDCHAR
STARTCHAR uni0921093C094D0930
ENCODING -1
SWIDTH 475 0
DWIDTH 5 0
BBX 6 9 -1 -2
BITMAP
1777B6
000070
018880
034000
018780
043062
019790
056560
001020
ENDCHAR
STARTCHAR uni0922093C094D0930
ENCODING -1
SWIDTH 485 0
DWIDTH 5 0
BBX 6 9 -1 -2
BITMAP
1777B7
000070
007780
044000
052482
043525
018792
044770
004040
ENDCHAR
STARTCHAR uni0928093C094D0930
ENCODING -1
SWIDTH 473 0
DWIDTH 5 0
BBX 6 8 -1 -1
BITMAP
1777B6
000070
000070
0387A0
0703A0
002770
018070
003200
ENDCHAR
STARTCHAR uni092B093C094D0930
ENCODING -1
SWIDTH 741 0
DWIDTH 7 0
BBX 9 8 -1 -1
BITMAP
1997B77740
0340778300
0340710800
0250900700
0079B00800
0027728300
0080700000
0004000000
ENDCHAR
STARTCHAR uni092F093C094D0930
ENCODING -1
SWIDTH 564 0
DWIDTH 6 0
BBX 7 8 -1 -1
BITMAP
178B7B50
00070700
03830700
05200700
03400900
0078A800
00181700
00122000
ENDCHAR
STARTCHAR uni0915094D0930094D
ENCODING -1
SWIDTH 518 0
DWIDTH 5 0
BBX 8 8 -1 -1
BITMAP
1777B773
00758782
05308002
06107000
05308000
0079A000
00367000
00400000
ENDCHAR
STARTCHAR uni0916094D0930094D
ENCODING -1
SWIDTH 469 0
DWIDTH 5 0
BBX 7 8 -1 -1
BITMAP
177B7750
00070000
00074600
07827000
03507020
00814860
00171700
00004000
ENDCHAR
STARTCHAR uni0917094D0930094D
ENCODING -1
SWIDTH 264 0
DWIDTH 3 0
BBX 5 7 -1 0
BITMAP
17B500
007000
007000
008020
064260
001800
008100
ENDCHAR
STARTCHAR uni0918094D0930094D
ENCODING -1
SWIDTH 319 0
DWIDTH 3 0
BBX 6 8 -1 -1
BITMAP
18B882
044000
01A500
034000
034002
0078B1
000820
003200
ENDCHAR
STARTCHAR uni091A094D0930094D
ENCODING -1
SWIDTH 331 0
DWIDTH 3 0
BBX 6 8 -1 -1
BITMAP
177771
000000
06A820
008000
008002
0057B2
000830
002200
ENDCHAR
STARTCHAR uni091C094D0930094D
ENCODING -1
SWIDTH 312 0
DWIDTH 3 0
BBX 6 7 -1 0
BITMAP
177771
000000
028981
000800
000802
058481
000710
ENDCHAR
STARTCHAR uni091D094D0930094D
ENCODING -1
SWIDTH 441 0
DWIDTH 4 0
BBX 7 8 -1 -1
BITMAP
1777B730
00007000
01885000
04400000
0188A760
03208070
05987720
05204500
ENDCHAR
STARTCHAR uni091E094D0930094D
ENCODING -1
SWIDTH 374 0
DWIDTH 4 0
BBX 6 7 -1 0
BITMAP
177775
037400
000700
000889
000707
047544
000360
ENDCHAR
STARTCHAR uni091F094D0930094D
ENCODING -1
SWIDTH 485 0
DWIDTH 5 0
BBX 6 10 -1 -3
BITMAP
1777B7
000070
007880
044000
052014
043034
019780
006470
000610
000170
ENDCHAR
STARTCHAR uni0920094D0930094D
ENCODING -1
SWIDTH 512 0
DWIDTH 5 0
BBX 7 10 -1 -3
BITMAP
1777B720
00007000
0078A000
04403400
05202600
05303500
01979100
00567000
00343000
00017000
ENDCHAR
STARTCHAR uni0921094D0930094D
ENCODING -1
SWIDTH 475 0
DWIDTH 5 0
BBX 6 11 -1 -4
BITMAP
1777B6
000070
018880
034000
018780
010062
028790
005750
006160
000520
000040
ENDCHAR
STARTCHAR uni0922094D0930094D
ENCODING -1
SWIDTH 485 0
DWIDTH 5 0
BBX 6 11 -1 -4
BITMAP
1777B7
000070
007780
044000
052482
043525
018792
004770
005251
000350
000040
ENDCHAR
STARTCHAR uni0923094D0930094D
ENCODING -1
SWIDTH 457 0
DWIDTH 5 0
BBX 7 7 -1 0
BITMAP
1997B500
03407000
03407000
02608040
00783530
00002600
00008000
ENDCHAR
STARTCHAR uni0924094D0930094D
ENCODING -1
SWIDTH 268 0
DWIDTH 3 0
BBX 6 7 -1 0
BITMAP
177771
000000
018750
053060
021070
001820
018100
ENDCHAR
STARTCHAR uni0925094D0930094D
ENCODING -1
SWIDTH 358 0
DWIDTH 4 0
BBX 5 8 0 -1
BITMAP
099100
253400
004400
488000
520020
077A40
007300
023000
ENDCHAR
STARTCHAR uni0926094D0930094D
ENCODING -1
SWIDTH 489 0
DWIDTH 5 0
BBX 6 9 -1 -2
BITMAP
1777B7
000070
008890
043000
043052
0089B2
000952
001240
000071
ENDCHAR
STARTCHAR uni0927094D0930094D
ENCODING -1
SWIDTH 322 0
DWIDTH 3 0
BBX 6 8 -1 -1
BITMAP
18B261
043000
034000
01A500
044002
0188B2
000830
001300
ENDCHAR
STARTCHAR uni0928094D0930094D
ENCODING -1
SWIDTH 247 0
DWIDTH 2 0
BBX 5 7 -1 0
BITMAP
177750
000000
000000
038770
070160
001700
018000
ENDCHAR
STARTCHAR uni092A094D0930094D
ENCODING -1
SWIDTH 270 0
DWIDTH 3 0
BBX 5 7 -1 0
BITMAP
199720
034000
034000
025020
007870
001800
008100
ENDCHAR
STARTCHAR uni092B094D0930094D
ENCODING -1
SWIDTH 523 0
DWIDTH 5 0
BBX 8 7 -1 0
BITMAP
2997B773
04308782
04308002
04409000
0079B000
00368000
01707000
ENDCHAR
STARTCHAR uni092C094D0930094D
ENCODING -1
SWIDTH 267 0
DWIDTH 3 0
BBX 5 8 -1 -1
BITMAP
177760
008500
059100
052700
053190
007960
002800
004000
ENDCHAR
STARTCHAR uni092D094D0930094D
ENCODING -1
SWIDTH 257 0
DWIDTH 3 0
BBX 5 7 -1 0
BITMAP
191350
034000
034000
03A870
034350
001700
008000
ENDCHAR
STARTCHAR uni092E094D0930094D
ENCODING -1
SWIDTH 261 0
DWIDTH 3 0
BBX 5 7 -1 0
BITMAP
199750
034000
034000
03A870
034350
001700
008000
ENDCHAR
STARTCHAR uni092F094D0930094D
ENCODING -1
SWIDTH 323 0
DWIDTH 3 0
BBX 6 8 -1 -1
BITMAP
178B60
000700
038300
052000
034003
0078B1
000910
003100
ENDCHAR
STARTCHAR uni0935094D0930094D
ENCODING -1
SWIDTH 255 0
DWIDTH 3 0
BBX 5 8 -1 -1
BITMAP
177710
008500
054000
062000
053020
007A50
003700
004000
ENDCHAR
STARTCHAR uni0938094D0930094D
ENCODING -1
SWIDTH 347 0
DWIDTH 3 0
BBX 6 7 -1 0
BITMAP
178A72
002500
003400
07A887
045062
008350
003500
ENDCHAR
STARTCHAR uni0915093C094D0930094D
ENCODING -1
SWIDTH 518 0
DWIDTH 5 0
BBX 8 8 -1 -1
BITMAP
1777B773
00758782
05308002
06107000
05308000
0079A000
00547000
00150000
ENDCHAR
STARTCHAR uni0916093C094D0930094D
ENCODING -1
SWIDTH 466 0
DWIDTH 5 0
BBX 7 8 -1 -1
BITMAP
177B7750
00070000
00074600
07827000
03507020
00814850
00172500
00001500
ENDCHAR
STARTCHAR uni0917093C094D0930094D
ENCODING -1
SWIDTH 264 0
DWIDTH 3 0
BBX 5 8 -1 -1
BITMAP
17B500
007000
007000
008020
064260
001800
008100
000500
ENDCHAR
STARTCHAR uni091C093C094D0930094D
ENCODING -1
SWIDTH 320 0
DWIDTH 3 0
BBX 6 8 -1 -1
BITMAP
177771
000000
028981
000800
000802
058481
000710
050000
ENDCHAR
STARTCHAR uni0928093C094D0930094D
ENCODING -1
SWIDTH 247 0
DWIDTH 2 0
BBX 5 8 -1 -1
BITMAP
177750
000000
000000
038770
070160
001700
018000
002300
ENDCHAR
STARTCHAR uni092B093C094D0930094D
ENCODING -1
SWIDTH 523 0
DWIDTH 5 0
BBX 8 8 -1 -1
BITMAP
2997B773
04308782
04308002
04409000
0079B000
00368000
01707000
00130000
ENDCHAR
STARTCHAR uni092F093C094D0930094D
ENCODING -1
SWIDTH 323 0
DWIDTH 3 0
BBX 6 8 -1 -1
BITMAP
178B60
000700
038300
052000
034003
007891
002700
001220
ENDCHAR
STARTCHAR uni0915094D0915
ENCODING -1
SWIDTH 1255 0
DWIDTH 13 0
BBX 14 7 -1 0
BITMAP
1777B7777A8775
00758787758750
05308017053080
06107016052070
05308017062080
00779006793750
00007000052000
ENDCHAR
STARTCHAR uni0915094D0916
ENCODING -1
SWIDTH 1256 0
DWIDTH 13 0
BBX 14 7 -1 0
BITMAP
1777B777A877B5
00757770520070
05308024627370
0610701B735070
05308008114080
00779001701180
00007000620070
ENDCHAR
STARTCHAR uni0915094D091A
ENCODING -1
SWIDTH 1086 0
DWIDTH 11 0
BBX 12 7 -1 0
BITMAP
1777B77777B7
007577500070
053080599370
061070080070
053080080080
0077900387A0
000070000070
ENDCHAR
STARTCHAR uni0915094D091C
ENCODING -1
SWIDTH 1071 0
DWIDTH 11 0
BBX 12 7 -1 0
BITMAP
1777B77777B6
007570000070
05308756A8A0
061080007070
053080008070
007790376070
000070000070
ENDCHAR
STARTCHAR uni0915094D091F
ENCODING -1
SWIDTH 984 0
DWIDTH 10 0
BBX 11 7 -1 0
BITMAP
1777B7777B70
007587810700
0530802C8700
061070430000
053080520130
007790530340
000070197800
ENDCHAR
STARTCHAR uni0915094D0923
ENCODING -1
SWIDTH 1183 0
DWIDTH 12 0
BBX 13 7 -1 0
BITMAP
1777B78A7B7B70
00757025070700
05308785070700
06108026080700
05308008830700
00779000000700
00007000000700
ENDCHAR
STARTCHAR uni0915094D0924
ENCODING -1
SWIDTH 761 0
DWIDTH 8 0
BBX 9 7 -1 0
BITMAP
1777997750
0000440000
03A8998600
0070450700
0080440800
0057447500
0000340000
ENDCHAR
STARTCHAR uni0915094D0925
ENCODING -1
SWIDTH 1118 0
DWIDTH 11 0
BBX 13 7 -1 0
BITMAP
1777B728843920
00757003073400
05308789823400
06108025003400
05308017005400
00779005778400
00007000003400
ENDCHAR
STARTCHAR uni0915094D0926
ENCODING -1
SWIDTH 1009 0
DWIDTH 10 0
BBX 12 7 -1 0
BITMAP
1777B7777991
007577810430
0530802D8920
061070160000
053080160240
008790078850
000070000250
ENDCHAR
STARTCHAR uni0915094D092A
ENCODING -1
SWIDTH 1007 0
DWIDTH 10 0
BBX 12 7 -1 0
BITMAP
1777B78A7A81
007570250520
053087850520
061080260620
053080078920
007790000520
000070000520
ENDCHAR
STARTCHAR uni0915094D092B
ENCODING -1
SWIDTH 1242 0
DWIDTH 12 0
BBX 14 7 -1 0
BITMAP
1777B78A7B7774
00757025077830
05308785072080
06108026080070
053080077A0080
00779000072830
00007000070000
ENDCHAR
STARTCHAR uni0915094D092E
ENCODING -1
SWIDTH 994 0
DWIDTH 10 0
BBX 11 7 -1 0
BITMAP
1777B78A7B70
007570350700
053087950700
0610803A7B00
053080240700
007790000700
000070000700
ENDCHAR
STARTCHAR uni0915094D092F
ENCODING -1
SWIDTH 1076 0
DWIDTH 11 0
BBX 12 7 -1 0
BITMAP
1777B777B7B6
007570007070
053087894070
061080340070
053080260090
007790067790
000070000070
ENDCHAR
STARTCHAR uni0915094D0932
ENCODING -1
SWIDTH 1178 0
DWIDTH 12 0
BBX 13 7 -1 0
BITMAP
1777B777777B60
00758781000800
0530802D858A00
06107034080800
05308043040800
00779043000800
00007019600700
ENDCHAR
STARTCHAR uni0915094D0935
ENCODING -1
SWIDTH 1013 0
DWIDTH 10 0
BBX 12 7 -1 0
BITMAP
1777B7777992
007587877430
053080170430
061070160430
053080070530
008790067930
000070000430
ENDCHAR
STARTCHAR uni0915094D0936
ENCODING -1
SWIDTH 1194 0
DWIDTH 12 0
BBX 13 7 -1 0
BITMAP
1777B752890770
00757006052700
05308784062700
0610800B770700
05308006200700
00779000800700
00007000350700
ENDCHAR
STARTCHAR uni0915094D0938
ENCODING -1
SWIDTH 1143 0
DWIDTH 11 0
BBX 13 7 -1 0
BITMAP
1777B777B77B40
00758781700700
05308016700700
0610700BA88800
05308007100700
00779001700700
00007000710700
ENDCHAR
STARTCHAR uni0916094D0916
ENCODING -1
SWIDTH 1223 0
DWIDTH 12 0
BBX 14 7 -1 0
BITMAP
177B7777B778A2
00070000700250
00074600828350
07827049570250
03508049070450
00814756328850
00170000800250
ENDCHAR
STARTCHAR uni0916094D0924
ENCODING -1
SWIDTH 984 0
DWIDTH 10 0
BBX 11 7 -1 0
BITMAP
177B77777B70
000700000800
000746188B00
078270610800
035080700800
008147B10800
001700392700
ENDCHAR
STARTCHAR uni0916094D092E
ENCODING -1
SWIDTH 965 0
DWIDTH 10 0
BBX 11 7 -1 0
BITMAP
177B77B77B50
000700700700
000746700700
078270787900
035080700700
008148600700
001700000700
ENDCHAR
STARTCHAR uni0916094D092F
ENCODING -1
SWIDTH 1047 0
DWIDTH 10 0
BBX 12 7 -1 0
BITMAP
177B777997B4
000700007070
000730582070
078270700070
035080820180
008148687780
001700000070
ENDCHAR
STARTCHAR uni0916094D0935
ENCODING -1
SWIDTH 975 0
DWIDTH 10 0
BBX 11 7 -1 0
BITMAP
177B77777B60
000700174700
000746620700
078280700700
035080720900
008148687900
001700000700
ENDCHAR
STARTCHAR uni0916094D0936
ENCODING -1
SWIDTH 1123 0
DWIDTH 11 0
BBX 13 7 -1 0
BITMAP
177B7708832A20
00070025163500
00074612263500
07827087813500
03508093003500
0081486A003500
00170004502500
ENDCHAR
STARTCHAR uni0917094D0917
ENCODING -1
SWIDTH 744 0
DWIDTH 7 0
BBX 9 7 -1 0
BITMAP
17B78A7B40
0070350700
0070350700
0080440700
0642800700
0000000700
0000000700
ENDCHAR
STARTCHAR uni0917094D0918
ENCODING -1
SWIDTH 823 0
DWIDTH 8 0
BBX 10 7 -1 0
BITMAP
17B7B878A2
0070800350
00704A3350
0080800350
0640700450
0000287850
0000000250
ENDCHAR
STARTCHAR uni0917094D091C
ENCODING -1
SWIDTH 801 0
DWIDTH 8 0
BBX 10 7 -1 0
BITMAP
17B7777A81
0070000610
00706A8B10
0080034610
0640034610
0001781610
0000000610
ENDCHAR
STARTCHAR uni0917094D0923
ENCODING -1
SWIDTH 945 0
DWIDTH 9 0
BBX 11 7 -1 0
BITMAP
17B7B78A7B40
007070250700
007070250700
007070340700
064028800700
000000000700
000000000700
ENDCHAR
STARTCHAR uni0917094D0926
ENCODING -1
SWIDTH 748 0
DWIDTH 7 0
BBX 9 7 -1 0
BITMAP
17B7777B40
0070000700
0070388600
0080800000
0640800700
0000388900
0000000700
ENDCHAR
STARTCHAR uni0917094D0927
ENCODING -1
SWIDTH 823 0
DWIDTH 8 0
BBX 10 7 -1 0
BITMAP
17B7A718A2
0070700250
0070700250
0080493250
0640800450
0000387850
0000000250
ENDCHAR
STARTCHAR uni0917094D092C
ENCODING -1
SWIDTH 755 0
DWIDTH 8 0
BBX 9 7 -1 0
BITMAP
17B7777B50
0070383700
0070950700
0080743700
0640804800
0000387800
0000000700
ENDCHAR
STARTCHAR uni0917094D092D
ENCODING -1
SWIDTH 755 0
DWIDTH 8 0
BBX 9 7 -1 0
BITMAP
17B7806B50
0070700700
0070700700
0080877800
0640700700
0000100700
0000000700
ENDCHAR
STARTCHAR uni0917094D092E
ENCODING -1
SWIDTH 754 0
DWIDTH 8 0
BBX 9 7 -1 0
BITMAP
17B7B77B50
0070700700
0070700700
0080877800
0640700700
0000100700
0000000700
ENDCHAR
STARTCHAR uni0917094D092F
ENCODING -1
SWIDTH 828 0
DWIDTH 8 0
BBX 10 7 -1 0
BITMAP
17B77A88A3
0070034250
0070781250
0080700250
0640700450
0000177850
0000000250
ENDCHAR
STARTCHAR uni0917094D0932
ENCODING -1
SWIDTH 924 0
DWIDTH 9 0
BBX 11 7 -1 0
BITMAP
17B777778A20
007000002500
007048589500
008070813500
064070702500
000070002500
000068202500
ENDCHAR
STARTCHAR uni0917094D0935
ENCODING -1
SWIDTH 747 0
DWIDTH 7 0
BBX 9 7 -1 0
BITMAP
17B7777B40
0070382700
0070800700
0080800700
0640800800
0000387700
0000000700
ENDCHAR
STARTCHAR uni0917094D0938
ENCODING -1
SWIDTH 839 0
DWIDTH 8 0
BBX 10 7 -1 0
BITMAP
17B77B77B4
0070070070
0070070070
0080AA8870
0640710070
0000260070
0000081070
ENDCHAR
STARTCHAR uni0918094D092E
ENCODING -1
SWIDTH 818 0
DWIDTH 8 0
BBX 10 7 -1 0
BITMAP
18A77B7992
0440070340
01B5070340
02400B7940
0440180340
0087820340
0000000340
ENDCHAR
STARTCHAR uni0918094D092F
ENCODING -1
SWIDTH 867 0
DWIDTH 9 0
BBX 10 7 -1 0
BITMAP
18B778B7B5
0440007070
01B5384070
0340430070
0440350090
0077767780
0000000070
ENDCHAR
STARTCHAR uni091A094D091A
ENCODING -1
SWIDTH 868 0
DWIDTH 9 0
BBX 10 7 -1 0
BITMAP
17777777B5
0000000080
06A73A8280
0080080080
0080090090
0057767790
0000000070
ENDCHAR
STARTCHAR uni091A094D091B
ENCODING -1
SWIDTH 922 0
DWIDTH 9 0
BBX 11 7 -1 0
BITMAP
17777B779920
000007004300
06A82802A300
008006801700
007007000700
007009000700
002459778200
ENDCHAR
STARTCHAR uni091A094D092E
ENCODING -1
SWIDTH 830 0
DWIDTH 8 0
BBX 10 7 -1 0
BITMAP
17777B78A3
0000070160
06A8270160
00800A7860
0080080160
0057830160
0000000160
ENDCHAR
STARTCHAR uni091A094D092F
ENCODING -1
SWIDTH 904 0
DWIDTH 9 0
BBX 11 7 -1 0
BITMAP
177777B7A810
000000705200
06A818605200
008007005200
008009007200
005785779200
000000005200
ENDCHAR
STARTCHAR uni091B094D092F
ENCODING -1
SWIDTH 1068 0
DWIDTH 11 0
BBX 12 7 -1 0
BITMAP
18B7777777B6
03405A776070
025007107070
006006196070
034006180090
034007048780
009777000070
ENDCHAR
STARTCHAR uni091B094D0935
ENCODING -1
SWIDTH 581 0
DWIDTH 6 0
BBX 7 8 -1 -1
BITMAP
18B77B60
03505900
00A40710
02500610
02500700
00A77A00
00800800
00678300
ENDCHAR
STARTCHAR uni091C094D0915
ENCODING -1
SWIDTH 1054 0
DWIDTH 11 0
BBX 12 7 -1 0
BITMAP
1777777A8775
000004658740
029986053080
000816052070
000817062080
058406793740
000000052000
ENDCHAR
STARTCHAR uni091C094D091C
ENCODING -1
SWIDTH 903 0
DWIDTH 9 0
BBX 11 7 -1 0
BITMAP
17777777A810
000000006200
029963A8B200
000800346200
000800356200
058427816200
000000005200
ENDCHAR
STARTCHAR uni091C094D091D
ENCODING -1
SWIDTH 990 0
DWIDTH 10 0
BBX 11 8 -1 -1
BITMAP
1777777B7B70
000005770700
029988000700
0008088A8B00
000800071700
058416061700
000018780700
000003000000
ENDCHAR
STARTCHAR uni091C094D091F
ENCODING -1
SWIDTH 815 0
DWIDTH 8 0
BBX 10 7 -1 0
BITMAP
1777777A82
0000000610
0299878910
0007080000
0007070020
0008070070
0583077840
ENDCHAR
STARTCHAR uni091C094D0921
ENCODING -1
SWIDTH 797 0
DWIDTH 8 0
BBX 9 7 -1 0
BITMAP
1777777B70
0000000710
02998A8900
0008070000
0008067810
0684150350
0000087920
ENDCHAR
STARTCHAR uni091C094D0924
ENCODING -1
SWIDTH 830 0
DWIDTH 8 0
BBX 10 7 -1 0
BITMAP
17777778A3
0000000260
039A998960
0008080260
0008070260
0584070260
0000085260
ENDCHAR
STARTCHAR uni091C094D0926
ENCODING -1
SWIDTH 817 0
DWIDTH 8 0
BBX 10 7 -1 0
BITMAP
1777777992
0000000340
02998B8830
0008180000
0008070150
0584067760
0000000160
ENDCHAR
STARTCHAR uni091C094D092C
ENCODING -1
SWIDTH 820 0
DWIDTH 8 0
BBX 10 7 -1 0
BITMAP
1777777992
0000057340
02998B1340
0008167440
0008170940
0584067840
0000000340
ENDCHAR
STARTCHAR uni091C094D092E
ENCODING -1
SWIDTH 813 0
DWIDTH 8 0
BBX 10 7 -1 0
BITMAP
17777B7992
0000070430
0299870430
00080B7930
0008050430
0584000430
0000000430
ENDCHAR
STARTCHAR uni091C094D092F
ENCODING -1
SWIDTH 893 0
DWIDTH 9 0
BBX 10 7 -1 0
BITMAP
177777B7B7
0000007070
0289896070
0008070070
0008080090
05840577A0
0000000070
ENDCHAR
STARTCHAR uni091C094D0935
ENCODING -1
SWIDTH 813 0
DWIDTH 8 0
BBX 10 7 -1 0
BITMAP
1777777992
0000047430
0299870430
0008160430
0008170530
0584067930
0000000430
ENDCHAR
STARTCHAR uni091D094D092E
ENCODING -1
SWIDTH 936 0
DWIDTH 9 0
BBX 11 8 -1 -1
BITMAP
1777B7B77B30
018850701700
044000701700
0188A7B78700
000080701700
052070301700
059860001600
032000000000
ENDCHAR
STARTCHAR uni091D094D092F
ENCODING -1
SWIDTH 1000 0
DWIDTH 10 0
BBX 12 8 -1 -1
BITMAP
1777B77B7A81
018850070610
044000960610
0188A7800610
000080700810
052070377A10
059860000610
032000000000
ENDCHAR
STARTCHAR uni091E094D091B
ENCODING -1
SWIDTH 913 0
DWIDTH 9 0
BBX 11 7 -1 0
BITMAP
17777B77A820
000007005200
00020802A100
00060B702500
000986001600
047607001600
000008778100
ENDCHAR
STARTCHAR uni091E094D091C
ENCODING -1
SWIDTH 932 0
DWIDTH 9 0
BBX 11 7 -1 0
BITMAP
177777778A30
000000001600
027403998600
000600081600
000971081600
048606831600
000000001600
ENDCHAR
STARTCHAR uni091E094D0936
ENCODING -1
SWIDTH 975 0
DWIDTH 10 0
BBX 11 7 -1 0
BITMAP
177746780860
038505070800
000700080800
000879850800
000706200800
048500800800
000000530700
ENDCHAR
STARTCHAR uni091F094D091F
ENCODING -1
SWIDTH 494 0
DWIDTH 5 0
BBX 6 11 -1 -4
BITMAP
1777B7
000070
018870
053000
053034
0188B0
004790
035000
062012
043034
007770
ENDCHAR
STARTCHAR uni091F094D0920
ENCODING -1
SWIDTH 495 0
DWIDTH 5 0
BBX 6 11 -1 -4
BITMAP
1777B7
000070
018870
053000
053034
0187B0
004790
036053
052025
044034
007770
ENDCHAR
STARTCHAR uni091F094D092F
ENCODING -1
SWIDTH 990 0
DWIDTH 10 0
BBX 11 7 -1 0
BITMAP
1777B7777B70
000070000700
007797780700
044000043700
052012780700
043035700800
019781487B00
ENDCHAR
STARTCHAR uni091F094D0935
ENCODING -1
SWIDTH 501 0
DWIDTH 5 0
BBX 7 8 -1 -1
BITMAP
1777B710
00007000
00878000
04400100
04402500
01B79400
03505300
00877000
ENDCHAR
STARTCHAR uni0920094D092F
ENCODING -1
SWIDTH 998 0
DWIDTH 10 0
BBX 12 7 -1 0
BITMAP
1777B7777A81
000070000610
0077A6781610
043037044610
052026781610
053035700710
019791387A10
ENDCHAR
STARTCHAR uni0921094D0921
ENCODING -1
SWIDTH 493 0
DWIDTH 5 0
BBX 6 11 -1 -4
BITMAP
1777B7
018780
034000
017770
032052
01B880
034000
017770
011052
043052
007770
ENDCHAR
STARTCHAR uni0921094D0922
ENCODING -1
SWIDTH 493 0
DWIDTH 5 0
BBX 6 10 -1 -3
BITMAP
1777B7
000070
018780
034000
006570
032052
0196B0
044734
043315
019891
ENDCHAR
STARTCHAR uni0921094D092F
ENCODING -1
SWIDTH 973 0
DWIDTH 10 0
BBX 11 7 -1 0
BITMAP
1777B7777B60
000070000700
018797770700
034000080700
018780A70900
042062577900
019790000700
ENDCHAR
STARTCHAR uni0921094D0935
ENCODING -1
SWIDTH 493 0
DWIDTH 5 0
BBX 6 9 -1 -2
BITMAP
1777B7
018780
034000
017770
032052
01B793
026043
026062
006760
ENDCHAR
STARTCHAR uni0922094D092F
ENCODING -1
SWIDTH 981 0
DWIDTH 10 0
BBX 11 7 -1 0
BITMAP
1777B7777B60
000070000700
007797770700
044381061700
052625870700
043425700800
018781577A00
ENDCHAR
STARTCHAR uni0923094D091F
ENCODING -1
SWIDTH 908 0
DWIDTH 9 0
BBX 11 7 -1 0
BITMAP
1997B777B710
034070007000
034070689000
034071700000
026071600000
006831600600
000000878400
ENDCHAR
STARTCHAR uni0923094D0920
ENCODING -1
SWIDTH 936 0
DWIDTH 9 0
BBX 11 7 -1 0
BITMAP
1997B777A830
034070005200
03407068B200
034071700700
026071600700
006831700800
000000878300
ENDCHAR
STARTCHAR uni0923094D0921
ENCODING -1
SWIDTH 892 0
DWIDTH 9 0
BBX 10 7 -1 0
BITMAP
1997B777B7
0340700070
0340708890
0260817000
0078301031
0000014034
0000009792
ENDCHAR
STARTCHAR uni0923094D0922
ENCODING -1
SWIDTH 908 0
DWIDTH 9 0
BBX 11 7 -1 0
BITMAP
1997B777A810
034070006100
034070579100
034070700000
014051628400
000001730700
000000778500
ENDCHAR
STARTCHAR uni0923094D0923
ENCODING -1
SWIDTH 1127 0
DWIDTH 11 0
BBX 13 7 -1 0
BITMAP
1997B7B7A88A30
03407070522500
03407070522500
02608080622500
00783038702500
00000000002500
00000000002500
ENDCHAR
STARTCHAR uni0923094D092E
ENCODING -1
SWIDTH 932 0
DWIDTH 9 0
BBX 11 7 -1 0
BITMAP
1997B7B78A30
034070701600
034070701600
026080A78600
008940501600
000000001600
000000001600
ENDCHAR
STARTCHAR uni0923094D092F
ENCODING -1
SWIDTH 998 0
DWIDTH 10 0
BBX 12 7 -1 0
BITMAP
1997B77B7A81
034070070610
034070960610
026080700610
007830700810
000000477A10
000000000610
ENDCHAR
STARTCHAR uni0923094D0935
ENCODING -1
SWIDTH 923 0
DWIDTH 9 0
BBX 11 7 -1 0
BITMAP
1997B7778A20
034070573500
034070802500
026080802500
007830803500
000000578500
000000002500
ENDCHAR
STARTCHAR uni0924094D0915
ENCODING -1
SWIDTH 992 0
DWIDTH 10 0
BBX 11 7 -1 0
BITMAP
1777777B7770
0000172A7700
0088A0080440
043070070350
052080180440
052038775700
019200070000
ENDCHAR
STARTCHAR uni0924094D0916
ENCODING -1
SWIDTH 1014 0
DWIDTH 10 0
BBX 12 7 -1 0
BITMAP
177777B77992
000000700430
018860827430
053079470430
052017070530
052006228830
019200800430
ENDCHAR
STARTCHAR uni0924094D0924
ENCODING -1
SWIDTH 542 0
DWIDTH 5 0
BBX 7 7 -1 0
BITMAP
17777B40
00000700
05A88700
00700700
00700700
00700700
00660700
ENDCHAR
STARTCHAR uni0924094D0925
ENCODING -1
SWIDTH 869 0
DWIDTH 9 0
BBX 10 7 -1 0
BITMAP
1776389096
0000217070
0088A87070
0430700070
0520710090
0520187780
0192000070
ENDCHAR
STARTCHAR uni0924094D092A
ENCODING -1
SWIDTH 757 0
DWIDTH 8 0
BBX 9 7 -1 0
BITMAP
1777B77B50
0000700700
0188A00700
0530800900
0520387800
0520000700
0192000700
ENDCHAR
STARTCHAR uni0924094D092B
ENCODING -1
SWIDTH 992 0
DWIDTH 10 0
BBX 11 7 -1 0
BITMAP
1777B77B7770
0000700A7700
0188A0080440
053080180340
052028770430
052000075700
019200070000
ENDCHAR
STARTCHAR uni0924094D092E
ENCODING -1
SWIDTH 764 0
DWIDTH 8 0
BBX 9 7 -1 0
BITMAP
1777B77B50
0000700700
0088B00700
0430787900
0520700700
0530000700
0192000700
ENDCHAR
STARTCHAR uni0924094D092F
ENCODING -1
SWIDTH 830 0
DWIDTH 8 0
BBX 10 7 -1 0
BITMAP
17777A88A3
0000034160
0088A81160
0430700160
0520700360
0520177760
0192000160
ENDCHAR
STARTCHAR uni0924094D0932
ENCODING -1
SWIDTH 957 0
DWIDTH 10 0
BBX 11 7 -1 0
BITMAP
177777777B50
000000000700
007668768800
053081360800
052070250700
052070000700
029228400700
ENDCHAR
STARTCHAR uni0924094D0935
ENCODING -1
SWIDTH 751 0
DWIDTH 8 0
BBX 9 7 -1 0
BITMAP
1777777B40
0000172700
0088A00700
0430700700
0520800800
0520387800
0192000700
ENDCHAR
STARTCHAR uni0924094D0938
ENCODING -1
SWIDTH 876 0
DWIDTH 9 0
BBX 10 7 -1 0
BITMAP
177778A7B6
0000025070
0188535070
05309A88A0
0520350070
0520080070
0192035070
ENDCHAR
STARTCHAR uni0925094D092F
ENCODING -1
SWIDTH 931 0
DWIDTH 9 0
BBX 10 7 0 0
BITMAP
09916A88A3
1434034160
0044681160
4880700160
5200800360
0777587760
0000000160
ENDCHAR
STARTCHAR uni0925094D0935
ENCODING -1
SWIDTH 862 0
DWIDTH 9 0
BBX 9 7 0 0
BITMAP
1991677B50
1334183700
0044700700
4880700700
5200900800
0777687800
0000000700
ENDCHAR
STARTCHAR uni0926094D0917
ENCODING -1
SWIDTH 489 0
DWIDTH 5 0
BBX 6 8 -1 -1
BITMAP
1777B7
007890
034000
052010
034062
0089A2
004452
038000
ENDCHAR
STARTCHAR uni0926094D0918
ENCODING -1
SWIDTH 686 0
DWIDTH 7 0
BBX 8 8 -1 -1
BITMAP
177777B7
00000070
02785020
07152000
03A63051
071098A2
07107052
01773000
ENDCHAR
STARTCHAR uni0926094D0926
ENCODING -1
SWIDTH 506 0
DWIDTH 5 0
BBX 7 8 -1 -1
BITMAP
1777A810
00006100
00779100
03500000
00A71000
03502400
01979500
00002500
ENDCHAR
STARTCHAR uni0926094D0927
ENCODING -1
SWIDTH 686 0
DWIDTH 7 0
BBX 8 8 -1 -1
BITMAP
177777B7
00000070
02813020
07152000
03A63051
0711A8A2
07107052
01773000
ENDCHAR
STARTCHAR uni0926094D092C
ENCODING -1
SWIDTH 481 0
DWIDTH 5 0
BBX 6 9 -1 -2
BITMAP
1777B7
000070
008890
043000
043052
00C8A2
027752
0254A1
007760
ENDCHAR
STARTCHAR uni0926094D092D
ENCODING -1
SWIDTH 499 0
DWIDTH 5 0
BBX 7 9 -1 -2
BITMAP
1777B710
00789000
03500000
03507100
0078B100
04406100
00706100
0097A100
00306100
ENDCHAR
STARTCHAR uni0926094D092E
ENCODING -1
SWIDTH 706 0
DWIDTH 7 0
BBX 9 7 -1 0
BITMAP
1777B7A810
0188705200
0620005200
0620205200
0177905200
000097A200
0000705200
ENDCHAR
STARTCHAR uni0926094D092F
ENCODING -1
SWIDTH 583 0
DWIDTH 6 0
BBX 7 7 -1 0
BITMAP
177B7B70
00880700
03500700
00B50700
03400700
03400700
00877B00
ENDCHAR
STARTCHAR uni0926094D0935
ENCODING -1
SWIDTH 483 0
DWIDTH 5 0
BBX 6 9 -1 -2
BITMAP
1777B7
000070
008890
043000
043052
00B8A2
025052
025061
007760
ENDCHAR
STARTCHAR uni0927094D092E
ENCODING -1
SWIDTH 817 0
DWIDTH 8 0
BBX 10 7 -1 0
BITMAP
18B33B7992
0440070340
01B5070340
03400B7940
0440080340
0077830340
0000000340
ENDCHAR
STARTCHAR uni0927094D092F
ENCODING -1
SWIDTH 886 0
DWIDTH 9 0
BBX 10 7 -1 0
BITMAP
18B337B7B7
0440007080
01B5195080
0340160080
0440070090
00777677A0
0000000070
ENDCHAR
STARTCHAR uni0927094D0935
ENCODING -1
SWIDTH 810 0
DWIDTH 8 0
BBX 10 7 -1 0
BITMAP
18B3377991
0440067430
01B5170430
0340160430
0440170630
0077767930
0000000430
ENDCHAR
STARTCHAR uni0928094D0915
ENCODING -1
SWIDTH 973 0
DWIDTH 10 0
BBX 11 7 -1 0
BITMAP
1777778A7760
000037397600
000050260710
047780250620
050080450710
000057856600
000000250000
ENDCHAR
STARTCHAR uni0928094D091A
ENCODING -1
SWIDTH 820 0
DWIDTH 8 0
BBX 10 7 -1 0
BITMAP
1777777992
0000000340
00008A6340
0488530340
0700530440
0100187840
0000000340
ENDCHAR
STARTCHAR uni0928094D091B
ENCODING -1
SWIDTH 781 0
DWIDTH 8 0
BBX 9 7 -1 0
BITMAP
1778B77B60
0003400700
0003505900
0388C40710
0702500610
0203400610
0001977800
ENDCHAR
STARTCHAR uni0928094D091F
ENCODING -1
SWIDTH 715 0
DWIDTH 7 0
BBX 9 7 -1 0
BITMAP
177777A820
0000006100
0000479100
0487700000
0700700100
0100700700
0000878400
ENDCHAR
STARTCHAR uni0928094D0921
ENCODING -1
SWIDTH 705 0
DWIDTH 7 0
BBX 9 7 -1 0
BITMAP
177777A810
0000005200
0000579100
0487800000
0700678200
0000301600
0000879300
ENDCHAR
STARTCHAR uni0928094D0924
ENCODING -1
SWIDTH 717 0
DWIDTH 7 0
BBX 9 7 -1 0
BITMAP
1777779920
0000004400
0000479400
0488504400
0702504400
0002504400
0000943400
ENDCHAR
STARTCHAR uni0928094D0925
ENCODING -1
SWIDTH 804 0
DWIDTH 8 0
BBX 10 7 -1 0
BITMAP
1771892581
0000716520
0000125520
0478881520
0604400720
0000777920
0000000520
ENDCHAR
STARTCHAR uni0928094D0926
ENCODING -1
SWIDTH 724 0
DWIDTH 7 0
BBX 9 7 -1 0
BITMAP
1777778A20
0000002500
0000488300
0477800000
0400800600
0000687700
0000000700
ENDCHAR
STARTCHAR uni0928094D0927
ENCODING -1
SWIDTH 753 0
DWIDTH 8 0
BBX 9 7 -1 0
BITMAP
1778A26B50
0005200800
0004300800
0488C50800
0505300800
0001887800
0000000700
ENDCHAR
STARTCHAR uni0928094D092A
ENCODING -1
SWIDTH 742 0
DWIDTH 7 0
BBX 9 7 -1 0
BITMAP
1777B77B40
0000700700
0000700700
0377A01800
0500587700
0000000700
0000000700
ENDCHAR
STARTCHAR uni0928094D092B
ENCODING -1
SWIDTH 970 0
DWIDTH 10 0
BBX 11 7 -1 0
BITMAP
1777B78A7760
000070397600
000070360700
047790450610
040057850700
000000357600
000000250000
ENDCHAR
STARTCHAR uni0928094D092D
ENCODING -1
SWIDTH 739 0
DWIDTH 7 0
BBX 9 7 -1 0
BITMAP
1777607B30
0000700700
0000700700
0387B78700
0700700700
0000000700
0000000700
ENDCHAR
STARTCHAR uni0928094D092E
ENCODING -1
SWIDTH 735 0
DWIDTH 7 0
BBX 9 7 -1 0
BITMAP
1777B77B30
0000701700
0000701700
0387B78700
0700701700
0000001700
0000001600
ENDCHAR
STARTCHAR uni0928094D092F
ENCODING -1
SWIDTH 801 0
DWIDTH 8 0
BBX 10 7 -1 0
BITMAP
17777B7A81
0000070610
0477960610
0700700610
0300700810
0000377910
0000000610
ENDCHAR
STARTCHAR uni0928094D0935
ENCODING -1
SWIDTH 732 0
DWIDTH 7 0
BBX 9 7 -1 0
BITMAP
1777778A30
0000272600
0000501600
0477801600
0500802600
0000577600
0000001600
ENDCHAR
STARTCHAR uni0928094D0938
ENCODING -1
SWIDTH 867 0
DWIDTH 9 0
BBX 10 7 -1 0
BITMAP
17777997B5
0000034070
0488443070
07009A8890
0300530070
0000080070
0000053070
ENDCHAR
STARTCHAR uni0928094D0939
ENCODING -1
SWIDTH 714 0
DWIDTH 7 0
BBX 9 8 -1 -1
BITMAP
1777779920
0000378200
0000600000
0387900000
0700888100
0000801600
0000700000
0000477200
ENDCHAR
STARTCHAR uni092A094D091F
ENCODING -1
SWIDTH 489 0
DWIDTH 5 0
BBX 6 7 -1 0
BITMAP
1997A8
034052
025052
00A881
043000
053025
018781
ENDCHAR
STARTCHAR uni092A094D0920
ENCODING -1
SWIDTH 506 0
DWIDTH 5 0
BBX 7 7 -1 0
BITMAP
19979910
03404400
02505300
00B8B100
04303400
04302500
01878100
ENDCHAR
STARTCHAR uni092A094D0924
ENCODING -1
SWIDTH 495 0
DWIDTH 5 0
BBX 6 7 -1 0
BITMAP
1997B7
043070
034070
00B8B0
043070
052070
019270
ENDCHAR
STARTCHAR uni092A094D092A
ENCODING -1
SWIDTH 770 0
DWIDTH 8 0
BBX 9 7 -1 0
BITMAP
1997B77B60
0340700700
0340700700
0250710900
0078688900
0000000700
0000000700
ENDCHAR
STARTCHAR uni092A094D092B
ENCODING -1
SWIDTH 1003 0
DWIDTH 10 0
BBX 12 7 -1 0
BITMAP
1997B77B7771
034070097810
034070080250
025070080160
006667680250
000000074710
000000070000
ENDCHAR
STARTCHAR uni092A094D092E
ENCODING -1
SWIDTH 774 0
DWIDTH 8 0
BBX 9 7 -1 0
BITMAP
1997A87B60
0340620700
0340620700
0260687A00
0067A20700
0000100700
0000000700
ENDCHAR
STARTCHAR uni092A094D092F
ENCODING -1
SWIDTH 855 0
DWIDTH 9 0
BBX 10 7 -1 0
BITMAP
199778A7B5
0340007070
0340483070
0250710070
0078930080
0000077770
0000000070
ENDCHAR
STARTCHAR uni092A094D0932
ENCODING -1
SWIDTH 960 0
DWIDTH 10 0
BBX 11 7 -1 0
BITMAP
199777777B50
034000000700
034018768800
025071360800
0078B0120700
000061000700
000018400700
ENDCHAR
STARTCHAR uni092A094D0935
ENCODING -1
SWIDTH 780 0
DWIDTH 8 0
BBX 9 7 -1 0
BITMAP
1997777B60
0340175700
0340520700
0250710700
0078A20900
0000177900
0000000700
ENDCHAR
STARTCHAR uni092A094D0938
ENCODING -1
SWIDTH 880 0
DWIDTH 9 0
BBX 10 7 -1 0
BITMAP
199778A7B6
0340016070
0340025070
02507A88A0
0078750070
0000070070
0000035070
ENDCHAR
STARTCHAR uni092B094D091C
ENCODING -1
SWIDTH 1100 0
DWIDTH 11 0
BBX 13 7 -1 0
BITMAP
1997B77777A810
03407000006100
03407763A8B100
02509100446100
0077A000446100
00007027816100
00007000006100
ENDCHAR
STARTCHAR uni092B094D091F
ENCODING -1
SWIDTH 1006 0
DWIDTH 10 0
BBX 12 7 -1 0
BITMAP
1997B7777B71
034076820700
0340710C8900
026090170000
0079B0250050
000070160070
000070087820
ENDCHAR
STARTCHAR uni092B094D0924
ENCODING -1
SWIDTH 1034 0
DWIDTH 10 0
BBX 12 7 -1 0
BITMAP
1997B77778A3
034076820160
0340710A7860
025090070160
0077A0070160
000070070160
000070075160
ENDCHAR
STARTCHAR uni092B094D092A
ENCODING -1
SWIDTH 1021 0
DWIDTH 10 0
BBX 12 7 -1 0
BITMAP
1997B77B7992
034070070340
034077870340
026091080440
0089B0079940
000070000340
000070000340
ENDCHAR
STARTCHAR uni092B094D092B
ENCODING -1
SWIDTH 1256 0
DWIDTH 13 0
BBX 14 7 -1 0
BITMAP
1997B77B7A8775
03407007058750
03407787054080
02509108063070
0077A006793080
00007000053750
00007000052000
ENDCHAR
STARTCHAR uni092B094D092F
ENCODING -1
SWIDTH 1120 0
DWIDTH 11 0
BBX 12 7 -1 0
BITMAP
1997B777B7B7
034070007070
034076796070
025091170070
0077A0080090
0000700487A0
000070000070
ENDCHAR
STARTCHAR uni092B094D0932
ENCODING -1
SWIDTH 1202 0
DWIDTH 12 0
BBX 14 7 -1 0
BITMAP
1997B777777A81
03407682000620
0340710C858A20
02509007080720
0077A007040620
00007007000620
00007008700610
ENDCHAR
STARTCHAR uni092B094D0936
ENCODING -1
SWIDTH 1211 0
DWIDTH 12 0
BBX 14 7 -1 0
BITMAP
1997B773992491
03407783235430
03407226044430
0250900B780430
0077A007100430
00007001700430
00007000620430
ENDCHAR
STARTCHAR uni092C094D091C
ENCODING -1
SWIDTH 883 0
DWIDTH 9 0
BBX 10 7 -1 0
BITMAP
17777777B7
0000000070
016007A8B0
0555006170
0534406270
0187977070
0000000070
ENDCHAR
STARTCHAR uni092C094D091D
ENCODING -1
SWIDTH 962 0
DWIDTH 10 0
BBX 11 8 -1 -1
BITMAP
1777777B7B50
008528750700
058161000700
052777897900
0531A0070700
007751070700
00003A860700
000034000000
ENDCHAR
STARTCHAR uni092C094D0924
ENCODING -1
SWIDTH 786 0
DWIDTH 8 0
BBX 9 7 -1 0
BITMAP
1777777B70
0085000700
0590188B00
0536620700
0531B10700
0077A10700
0000282700
ENDCHAR
STARTCHAR uni092C094D0926
ENCODING -1
SWIDTH 775 0
DWIDTH 8 0
BBX 9 7 -1 0
BITMAP
1777777B60
0085000700
0580188800
0564620000
0533A20600
0087588B00
0000000600
ENDCHAR
STARTCHAR uni092C094D0927
ENCODING -1
SWIDTH 844 0
DWIDTH 8 0
BBX 10 7 -1 0
BITMAP
17779A17B4
0085610070
05A0520070
05662A4070
0433A20180
0077688770
0000000070
ENDCHAR
STARTCHAR uni092C094D092C
ENCODING -1
SWIDTH 783 0
DWIDTH 8 0
BBX 9 7 -1 0
BITMAP
1777777B70
0085185700
0581680700
0527717700
0531B21B00
0077577A00
0000000700
ENDCHAR
STARTCHAR uni092C094D092D
ENCODING -1
SWIDTH 764 0
DWIDTH 8 0
BBX 9 7 -1 0
BITMAP
1777805B50
0085700700
0590700700
0536787900
0532B00700
0077600700
0000000700
ENDCHAR
STARTCHAR uni092C094D092F
ENCODING -1
SWIDTH 852 0
DWIDTH 9 0
BBX 10 7 -1 0
BITMAP
177779A7B4
0085007070
0580582070
0527710070
0532B30180
0077577770
0000000070
ENDCHAR
STARTCHAR uni092C094D0932
ENCODING -1
SWIDTH 961 0
DWIDTH 10 0
BBX 11 7 -1 0
BITMAP
177777777B50
008500000700
058018767800
055562260800
0532A1130700
007791000700
000018400700
ENDCHAR
STARTCHAR uni092C094D0935
ENCODING -1
SWIDTH 776 0
DWIDTH 8 0
BBX 9 7 -1 0
BITMAP
1777777B60
0075184700
0580620700
0527710700
0531B20800
0077577900
0000000700
ENDCHAR
STARTCHAR uni092C094D0936
ENCODING -1
SWIDTH 926 0
DWIDTH 9 0
BBX 11 7 -1 0
BITMAP
177719832A30
007524072500
058000162500
052758812500
0531A7002500
007755302500
000000802500
ENDCHAR
STARTCHAR uni092C094D0938
ENCODING -1
SWIDTH 897 0
DWIDTH 9 0
BBX 11 7 -1 0
BITMAP
177777B7A810
007500706100
059000706100
05275A98B100
0531A7006100
007757106100
000001706100
ENDCHAR
STARTCHAR uni092D094D092F
ENCODING -1
SWIDTH 827 0
DWIDTH 8 0
BBX 10 7 -1 0
BITMAP
19137A88A3
0340034250
0340781250
03A7A00250
0340800450
0000287750
0000000250
ENDCHAR
STARTCHAR uni092D094D0932
ENCODING -1
SWIDTH 941 0
DWIDTH 9 0
BBX 11 7 -1 0
BITMAP
191377777B40
034000000700
034038677700
03A7B0631700
034070420700
011070000700
000048300700
ENDCHAR
STARTCHAR uni092D094D0935
ENCODING -1
SWIDTH 755 0
DWIDTH 8 0
BBX 9 7 -1 0
BITMAP
1913777B50
0340273700
0340700700
03A7A00700
0340800800
0000287800
0000000700
ENDCHAR
STARTCHAR uni092E094D0924
ENCODING -1
SWIDTH 765 0
DWIDTH 8 0
BBX 9 7 -1 0
BITMAP
1997777B50
0340000700
0340288900
03A8A00700
0340700700
0000700700
0000480700
ENDCHAR
STARTCHAR uni092E094D0926
ENCODING -1
SWIDTH 766 0
DWIDTH 8 0
BBX 9 7 -1 0
BITMAP
1997777B50
0340000700
0340398700
0397B10000
0230700600
0000288A00
0000000700
ENDCHAR
STARTCHAR uni092E094D092A
ENCODING -1
SWIDTH 762 0
DWIDTH 8 0
BBX 9 7 -1 0
BITMAP
1997B77B50
0340700700
0340700700
0397B00900
0230388800
0000000700
0000000700
ENDCHAR
STARTCHAR uni092E094D092C
ENCODING -1
SWIDTH 768 0
DWIDTH 8 0
BBX 9 7 -1 0
BITMAP
1997777B50
0340184700
0340770700
0397A35700
0230803A00
0000287900
0000000700
ENDCHAR
STARTCHAR uni092E094D092D
ENCODING -1
SWIDTH 768 0
DWIDTH 8 0
BBX 9 7 -1 0
BITMAP
1997905B50
0340710700
0340710700
0397B87900
0340710700
0000000700
0000000700
ENDCHAR
STARTCHAR uni092E094D092E
ENCODING -1
SWIDTH 759 0
DWIDTH 8 0
BBX 9 7 -1 0
BITMAP
1997B77B50
0340700700
0340700700
0397B77900
0340700700
0000000700
0000000700
ENDCHAR
STARTCHAR uni092E094D092F
ENCODING -1
SWIDTH 834 0
DWIDTH 8 0
BBX 10 7 -1 0
BITMAP
19977A88A3
0340035160
0340681160
0397A00160
0340710360
0000187760
0000000160
ENDCHAR
STARTCHAR uni092E094D0932
ENCODING -1
SWIDTH 945 0
DWIDTH 9 0
BBX 11 7 -1 0
BITMAP
199777777B40
034000000800
034038778800
03A7B0540800
034070430800
011070000800
000038300700
ENDCHAR
STARTCHAR uni092E094D0935
ENCODING -1
SWIDTH 761 0
DWIDTH 8 0
BBX 9 7 -1 0
BITMAP
1997777B50
0340173700
0340600700
0397A00700
0330800800
0000287800
0000000700
ENDCHAR
STARTCHAR uni092E094D0936
ENCODING -1
SWIDTH 884 0
DWIDTH 9 0
BBX 10 7 -1 0
BITMAP
1995488087
0340707170
0340008070
0397A76070
0340620070
0010080070
0000044070
ENDCHAR
STARTCHAR uni092E094D0938
ENCODING -1
SWIDTH 816 0
DWIDTH 8 0
BBX 10 7 -1 0
BITMAP
19977B7992
0340080440
0340080440
03A8A98940
0340800440
0000530440
0000080340
ENDCHAR
STARTCHAR uni092E094D0939
ENCODING -1
SWIDTH 758 0
DWIDTH 8 0
BBX 9 8 -1 -1
BITMAP
1997777B50
0340187600
0340620000
03A7A20000
03401A7500
0110610700
0000610000
0000177500
ENDCHAR
STARTCHAR uni092F094D092F
ENCODING -1
SWIDTH 897 0
DWIDTH 9 0
BBX 10 7 -1 0
BITMAP
178B77B7B7
0007007071
0383096071
0520070071
0340080081
00677577A1
0000000061
ENDCHAR
STARTCHAR uni0930094D092F
ENCODING -1
SWIDTH 713 0
DWIDTH 7 0
BBX 9 7 -1 0
BITMAP
1777B79920
0100624300
0589704300
0007004300
0007006300
0002778300
0000004300
ENDCHAR
STARTCHAR uni0930094D0939
ENCODING -1
SWIDTH 619 0
DWIDTH 6 0
BBX 8 8 -1 -1
BITMAP
17777992
03047830
04790000
00060000
00068820
00080170
00070000
00047720
ENDCHAR
STARTCHAR uni0932094D0915
ENCODING -1
SWIDTH 1182 0
DWIDTH 12 0
BBX 13 7 -1 0
BITMAP
177777777B7770
000000372A7700
00785890180520
04408070170430
04304080270520
04300048776700
01950000160000
ENDCHAR
STARTCHAR uni0932094D0916
ENCODING -1
SWIDTH 1195 0
DWIDTH 12 0
BBX 13 7 -1 0
BITMAP
17777777B77B70
00000000700700
00786840746700
04408098270700
04307035070800
04300008147A00
01950001700600
ENDCHAR
STARTCHAR uni0932094D0917
ENCODING -1
SWIDTH 950 0
DWIDTH 10 0
BBX 11 7 -1 0
BITMAP
1777778A7B40
000000160800
007857160800
044080250800
043062810800
043000000800
019500000700
ENDCHAR
STARTCHAR uni0932094D091C
ENCODING -1
SWIDTH 1035 0
DWIDTH 10 0
BBX 12 7 -1 0
BITMAP
1777777777B3
000000000170
007856399870
044180008170
043030008170
043001783170
019500000160
ENDCHAR
STARTCHAR uni0932094D091F
ENCODING -1
SWIDTH 929 0
DWIDTH 9 0
BBX 11 7 -1 0
BITMAP
177777779930
000000004400
008858789200
044190800000
043070700200
043010700800
019500677500
ENDCHAR
STARTCHAR uni0932094D0920
ENCODING -1
SWIDTH 953 0
DWIDTH 10 0
BBX 11 7 -1 0
BITMAP
177777778A50
000000003400
00775878A300
044190800700
043070700700
043010800800
018500677500
ENDCHAR
STARTCHAR uni0932094D0921
ENCODING -1
SWIDTH 916 0
DWIDTH 9 0
BBX 11 7 -1 0
BITMAP
177777779920
000000004400
007757788200
044180800000
043070578300
043000200700
019500878500
ENDCHAR
STARTCHAR uni0932094D0922
ENCODING -1
SWIDTH 924 0
DWIDTH 9 0
BBX 11 7 -1 0
BITMAP
177777779920
000000004400
007747778200
044190800000
043070718500
043020722700
018500677600
ENDCHAR
STARTCHAR uni0932094D0924
ENCODING -1
SWIDTH 929 0
DWIDTH 9 0
BBX 11 7 -1 0
BITMAP
177777778A30
000000002600
007878678600
044080702600
043060702600
043000702600
019500852600
ENDCHAR
STARTCHAR uni0932094D0925
ENCODING -1
SWIDTH 1061 0
DWIDTH 11 0
BBX 12 7 -1 0
BITMAP
177775388095
000000617080
007858407080
044080A86080
043050800090
043000388780
019500000070
ENDCHAR
STARTCHAR uni0932094D0926
ENCODING -1
SWIDTH 939 0
DWIDTH 9 0
BBX 11 7 -1 0
BITMAP
177777777B40
000000000700
007858788500
044080800000
043040800700
043000488800
019500000700
ENDCHAR
STARTCHAR uni0932094D092A
ENCODING -1
SWIDTH 939 0
DWIDTH 9 0
BBX 11 7 -1 0
BITMAP
177777B77B40
000000700700
007858800700
044180802700
043030487700
043000000700
019500000700
ENDCHAR
STARTCHAR uni0932094D092B
ENCODING -1
SWIDTH 1176 0
DWIDTH 12 0
BBX 13 7 -1 0
BITMAP
177777B78A7760
00000070197600
00785890170610
04408080260520
04304047760610
04300000166600
01950000150000
ENDCHAR
STARTCHAR uni0932094D092C
ENCODING -1
SWIDTH 949 0
DWIDTH 9 0
BBX 11 7 -1 0
BITMAP
177777777B40
000000282700
007858B30700
044080762700
043040805800
043000487800
019500000700
ENDCHAR
STARTCHAR uni0932094D092D
ENCODING -1
SWIDTH 931 0
DWIDTH 9 0
BBX 11 7 -1 0
BITMAP
177778608A30
000000801600
007858901600
044080A78600
043060701600
043000201600
019500001600
ENDCHAR
STARTCHAR uni0932094D092E
ENCODING -1
SWIDTH 931 0
DWIDTH 9 0
BBX 11 7 -1 0
BITMAP
177777B78A30
000000701600
007858901600
044080A78600
043060701600
043000201600
019500001600
ENDCHAR
STARTCHAR uni0932094D092F
ENCODING -1
SWIDTH 1033 0
DWIDTH 10 0
BBX 12 7 -1 0
BITMAP
1777777A88A3
007747225160
034180534160
043070880160
043040600360
044000177760
009600000160
ENDCHAR
STARTCHAR uni0932094D0932
ENCODING -1
SWIDTH 1112 0
DWIDTH 11 0
BBX 13 7 -1 0
BITMAP
17777777779920
00000000004300
00775877489300
04418080905300
04307070704300
04300070004300
01950078104300
ENDCHAR
STARTCHAR uni0932094D0935
ENCODING -1
SWIDTH 940 0
DWIDTH 9 0
BBX 11 7 -1 0
BITMAP
177777777B40
000000272700
007858900700
044080700700
043040801700
043000487700
019500000700
ENDCHAR
STARTCHAR uni0932094D0938
ENCODING -1
SWIDTH 1068 0
DWIDTH 11 0
BBX 12 7 -1 0
BITMAP
1777777997B6
000000034070
007868443070
044080AA88A0
043060430070
043000080070
019500044070
ENDCHAR
STARTCHAR uni0932094D0939
ENCODING -1
SWIDTH 922 0
DWIDTH 9 0
BBX 11 8 -1 -1
BITMAP
177777778A20
000000002500
007757778300
044190800000
043070688200
043000800700
019500700100
000000477200
ENDCHAR
STARTCHAR uni0933094D092F
ENCODING -1
SWIDTH 1050 0
DWIDTH 11 0
BBX 12 7 -1 0
BITMAP
17777779A7B4
007757407070
043080782070
052070700070
043090820180
007877677770
000000000070
ENDCHAR
STARTCHAR uni0935094D092F
ENCODING -1
SWIDTH 852 0
DWIDTH 9 0
BBX 10 7 -1 0
BITMAP
177779A7B4
0075007070
0530582070
0520710070
0530830180
0077577780
0000000070
ENDCHAR
STARTCHAR uni0935094D0932
ENCODING -1
SWIDTH 961 0
DWIDTH 10 0
BBX 11 7 -1 0
BITMAP
177777777B50
007500000800
053018768900
052062260800
053081120800
007781000800
000007400700
ENDCHAR
STARTCHAR uni0935094D0935
ENCODING -1
SWIDTH 776 0
DWIDTH 8 0
BBX 9 7 -1 0
BITMAP
1777777B60
0075184700
0530620700
0520710700
0430820800
0066576900
0000000700
ENDCHAR
STARTCHAR uni0935094D0939
ENCODING -1
SWIDTH 754 0
DWIDTH 8 0
BBX 9 8 -1 -1
BITMAP
1777777B40
0075187600
0530610000
0620610000
05303A7600
0077B10300
0000610000
0000177400
ENDCHAR
STARTCHAR uni0936094D0915
ENCODING -1
SWIDTH 1093 0
DWIDTH 11 0
BBX 11 7 0 0
BITMAP
1982677B7770
3225382A8800
003580080440
688070070350
260080180440
071038775700
017000070000
ENDCHAR
STARTCHAR uni0936094D091A
ENCODING -1
SWIDTH 950 0
DWIDTH 10 0
BBX 10 7 0 0
BITMAP
19826777B4
4325000080
11357A8080
6880070080
2600070080
0710067780
0170000070
ENDCHAR
STARTCHAR uni0936094D091B
ENCODING -1
SWIDTH 968 0
DWIDTH 10 0
BBX 10 7 0 0
BITMAP
19928A77B5
4335520070
1144430680
68801B3070
2600530070
0710520070
0170187760
ENDCHAR
STARTCHAR uni0936094D091F
ENCODING -1
SWIDTH 854 0
DWIDTH 9 0
BBX 9 7 0 0
BITMAP
1982677B50
4325000700
1135288500
6880700000
2600700400
0710700700
0170487700
ENDCHAR
STARTCHAR uni0936094D0924
ENCODING -1
SWIDTH 864 0
DWIDTH 9 0
BBX 9 7 0 0
BITMAP
1982677B50
4325000700
0035388900
6880700700
2600700700
0710700700
0170480700
ENDCHAR
STARTCHAR uni0936094D092E
ENCODING -1
SWIDTH 885 0
DWIDTH 9 0
BBX 9 7 0 0
BITMAP
1982897B70
4325430700
0035430700
6880497B00
2600430700
0710000700
0170000700
ENDCHAR
STARTCHAR uni0936094D092F
ENCODING -1
SWIDTH 940 0
DWIDTH 9 0
BBX 10 7 0 0
BITMAP
19826A97B4
3325026070
0035681070
6880700070
2600610270
0710177670
0170000070
ENDCHAR
STARTCHAR uni0936094D0932
ENCODING -1
SWIDTH 1039 0
DWIDTH 10 0
BBX 11 7 0 0
BITMAP
198267777B30
432500000700
113528688700
688070631700
260070410700
071070000700
017048300700
ENDCHAR
STARTCHAR uni0936094D0935
ENCODING -1
SWIDTH 850 0
DWIDTH 9 0
BBX 9 7 0 0
BITMAP
1982677B40
3225383700
0035800700
6880800700
2600800800
0710287800
0170000700
ENDCHAR
STARTCHAR uni0936094D0936
ENCODING -1
SWIDTH 1009 0
DWIDTH 10 0
BBX 11 7 0 0
BITMAP
198229914810
432543345300
003500445300
688067805300
260036005300
071007105300
017001705200
ENDCHAR
STARTCHAR uni0937094D0915
ENCODING -1
SWIDTH 1039 0
DWIDTH 10 0
BBX 12 7 -1 0
BITMAP
19B7777B7773
037307577830
034554071070
025093070070
007885080070
0000077A2830
000000070000
ENDCHAR
STARTCHAR uni0937094D091F
ENCODING -1
SWIDTH 493 0
DWIDTH 5 0
BBX 6 7 -1 0
BITMAP
19C798
037543
025393
00A791
043000
053016
018782
ENDCHAR
STARTCHAR uni0937094D0920
ENCODING -1
SWIDTH 511 0
DWIDTH 5 0
BBX 7 7 -1 0
BITMAP
19EFF910
03FFF400
02FFE300
01BAB100
04302500
04301600
01878200
ENDCHAR
STARTCHAR uni0937094D0923
ENCODING -1
SWIDTH 980 0
DWIDTH 10 0
BBX 11 7 -1 0
BITMAP
19B7997B7B60
039334070700
034644070700
025095080700
006756730700
000000000700
000000000700
ENDCHAR
STARTCHAR uni0937094D092A
ENCODING -1
SWIDTH 980 0
DWIDTH 10 0
BBX 11 7 -1 0
BITMAP
19B7997B7B60
039334070700
034644070700
025095080700
006756730700
000000000700
000000000700
ENDCHAR
STARTCHAR uni0937094D092B
ENCODING -1
SWIDTH 1036 0
DWIDTH 10 0
BBX 12 7 -1 0
BITMAP
19B7997B7773
037334077830
034554081070
025095090070
0078667A0070
000000072830
000000070000
ENDCHAR
STARTCHAR uni0937094D092E
ENCODING -1
SWIDTH 791 0
DWIDTH 8 0
BBX 9 7 -1 0
BITMAP
19B7997B70
0392340700
0346440700
02609A7B00
0088730700
0000000700
0000000700
ENDCHAR
STARTCHAR uni0937094D092F
ENCODING -1
SWIDTH 877 0
DWIDTH 9 0
BBX 10 7 -1 0
BITMAP
19B777B7B6
0383007070
0345495070
0250940070
0078660090
0000057790
0000000070
ENDCHAR
STARTCHAR uni0937094D0935
ENCODING -1
SWIDTH 802 0
DWIDTH 8 0
BBX 10 7 -1 0
BITMAP
19B7777A81
0373066610
0345460610
0250940610
0078760710
0000067A10
0000000510
ENDCHAR
STARTCHAR uni0937094D0937
ENCODING -1
SWIDTH 804 0
DWIDTH 8 0
BBX 10 7 -1 0
BITMAP
19B79B7A81
0393393520
0345446720
0260960A20
0078578920
0000000520
0000000520
ENDCHAR
STARTCHAR uni0938094D0915
ENCODING -1
SWIDTH 1089 0
DWIDTH 11 0
BBX 12 7 -1 0
BITMAP
178A7777B777
00250282A770
003407008043
07A889007034
045008017043
008003867570
003500007000
ENDCHAR
STARTCHAR uni0938094D0916
ENCODING -1
SWIDTH 990 0
DWIDTH 10 0
BBX 11 7 -1 0
BITMAP
178A77B77B70
002500700700
003401745700
07A8A8270700
045045080800
008008047A00
003502600700
ENDCHAR
STARTCHAR uni0938094D091C
ENCODING -1
SWIDTH 970 0
DWIDTH 10 0
BBX 11 7 -1 0
BITMAP
178A77777B60
002500000800
0034008A8A00
07A884070800
045000080800
008004760800
003500000700
ENDCHAR
STARTCHAR uni0938094D091F
ENCODING -1
SWIDTH 844 0
DWIDTH 8 0
BBX 10 7 -1 0
BITMAP
178A7778A4
0025000160
0034048840
07A88A0000
0450070040
0080070070
0035048760
ENDCHAR
STARTCHAR uni0938094D0924
ENCODING -1
SWIDTH 852 0
DWIDTH 9 0
BBX 10 7 -1 0
BITMAP
178A7777B4
0025000070
0034037880
07A8890070
0450070070
0080070070
0035067070
ENDCHAR
STARTCHAR uni0938094D0925
ENCODING -1
SWIDTH 960 0
DWIDTH 10 0
BBX 11 7 -1 0
BITMAP
178A53880950
002507070700
003402070700
07A88A850700
044008000900
008002877800
003500000700
ENDCHAR
STARTCHAR uni0938094D0926
ENCODING -1
SWIDTH 851 0
DWIDTH 9 0
BBX 10 7 -1 0
BITMAP
178A7777B4
0025000070
0034048860
07A88A0000
0450080070
0080038890
0035000070
ENDCHAR
STARTCHAR uni0938094D092A
ENCODING -1
SWIDTH 857 0
DWIDTH 9 0
BBX 10 7 -1 0
BITMAP
178A7B77B5
0025070070
0034070070
07A88A0080
0450028780
0080000070
0035000070
ENDCHAR
STARTCHAR uni0938094D092B
ENCODING -1
SWIDTH 1092 0
DWIDTH 11 0
BBX 12 7 -1 0
BITMAP
178A7B77B777
00250700A770
003407008044
07A88A018034
045002777043
008000007570
003500007000
ENDCHAR
STARTCHAR uni0938094D092C
ENCODING -1
SWIDTH 857 0
DWIDTH 9 0
BBX 10 7 -1 0
BITMAP
178A7777B5
0025028370
0034086070
07A8893470
0450080490
0080038780
0035000070
ENDCHAR
STARTCHAR uni0938094D092E
ENCODING -1
SWIDTH 850 0
DWIDTH 9 0
BBX 10 7 -1 0
BITMAP
178A7B77B4
0025080070
0034080070
07A77B7780
0450080070
0080010070
0035000070
ENDCHAR
STARTCHAR uni0938094D092F
ENCODING -1
SWIDTH 920 0
DWIDTH 9 0
BBX 11 7 -1 0
BITMAP
178A77B79920
002500533400
003407803400
07A889003400
045008005400
008002778400
003500003400
ENDCHAR
STARTCHAR uni0938094D0932
ENCODING -1
SWIDTH 1027 0
DWIDTH 10 0
BBX 12 7 -1 0
BITMAP
178A777778A3
002500000250
003405868850
07A88A081350
045007060250
008007000250
003505820250
ENDCHAR
STARTCHAR uni0938094D0935
ENCODING -1
SWIDTH 842 0
DWIDTH 8 0
BBX 10 7 -1 0
BITMAP
178A7777B4
0025038270
0034070070
07A8890070
0450080170
0080038770
0035000070
ENDCHAR
STARTCHAR uni0938094D0938
ENCODING -1
SWIDTH 871 0
DWIDTH 9 0
BBX 10 7 -1 0
BITMAP
178A79A7B6
0025035070
0034044070
07A8AA88A0
0450440070
0080080070
0035044070
ENDCHAR
STARTCHAR uni0939094D0923
ENCODING -1
SWIDTH 1136 0
DWIDTH 11 0
BBX 13 10 -1 -3
BITMAP
1777B7B7997B30
00007070441700
00878070441700
02500070441700
00A76070531700
03506127701700
03401000001700
00776000000000
00042000000000
00008000000000
ENDCHAR
STARTCHAR uni0939094D092E
ENCODING -1
SWIDTH 746 0
DWIDTH 7 0
BBX 9 8 -1 -1
BITMAP
1777B77B40
0000700700
0187800700
0340000700
01A7800700
0430777800
0430700700
0087600300
ENDCHAR
STARTCHAR uni0939094D092F
ENCODING -1
SWIDTH 785 0
DWIDTH 8 0
BBX 9 9 -1 -2
BITMAP
1777B77B70
0187800700
0340000700
01A7770700
0430052700
0520870700
0430700900
0077477900
0000000300
ENDCHAR
STARTCHAR uni0939094D0932
ENCODING -1
SWIDTH 1110 0
DWIDTH 11 0
BBX 13 10 -1 -3
BITMAP
1777B777779910
00007000004300
00878057589300
02500070905300
00A77070704300
03506170004300
03401078104300
00776000000000
00041000000000
00017000000000
ENDCHAR
STARTCHAR uni0939094D0935
ENCODING -1
SWIDTH 920 0
DWIDTH 9 0
BBX 11 10 -1 -3
BITMAP
1777B7778920
000070003400
008780683400
025000803400
00A780804400
035031688400
034000002400
007760000000
000410000000
000170000000
ENDCHAR
STARTCHAR uni0915093C094D0915093C
ENCODING -1
SWIDTH 1275 0
DWIDTH 13 0
BBX 14 8 -1 -1
BITMAP
1777B77778A776
00758786739760
05308009027061
06107007025052
05308008035061
00779004775660
00007000015000
00400001300000
ENDCHAR
STARTCHAR uni0915093C094D0924
ENCODING -1
SWIDTH 1016 0
DWIDTH 10 0
BBX 12 8 -1 -1
BITMAP
1777B7777992
007587810440
0530801A8940
061070160440
053080250440
007790250440
000070084330
004000000000
ENDCHAR
STARTCHAR uni0915093C094D092B
ENCODING -1
SWIDTH 1246 0
DWIDTH 12 0
BBX 14 8 -1 -1
BITMAP
1777B78A7A8774
00757026067840
05308786062080
06108017071070
053080077A1080
00779000062740
00007000061000
00400000000000
ENDCHAR
STARTCHAR uni0915093C094D092B093C
ENCODING -1
SWIDTH 1247 0
DWIDTH 12 0
BBX 14 8 -1 -1
BITMAP
1777B78A7A8774
00757016067740
05308786062080
06108017071070
053080077A1070
00779000062740
00007000061000
00400004000000
ENDCHAR
STARTCHAR uni0915093C094D092C
ENCODING -1
SWIDTH 1043 0
DWIDTH 10 0
BBX 12 8 -1 -1
BITMAP
1777B77777B4
007587868270
0530800B5070
061070074470
053090080680
018890049870
000070000070
004000000000
ENDCHAR
STARTCHAR uni0915093C094D092E
ENCODING -1
SWIDTH 998 0
DWIDTH 10 0
BBX 12 8 -1 -1
BITMAP
1777B78A7A81
007570250610
053087850610
0610802A7B10
053080240610
007790000610
000070000610
004000000000
ENDCHAR
STARTCHAR uni0916093C094D0924
ENCODING -1
SWIDTH 984 0
DWIDTH 10 0
BBX 11 8 -1 -1
BITMAP
177B77777B70
000700000800
000746188B00
078270610800
035080700800
008147B10800
001700392700
000004000000
ENDCHAR
STARTCHAR uni0916093C094D092E
ENCODING -1
SWIDTH 965 0
DWIDTH 10 0
BBX 11 8 -1 -1
BITMAP
177B77B77B50
000700700700
000746700700
078270787900
035080700700
008148600700
001700000700
000004000000
ENDCHAR
STARTCHAR uni0916093C094D092F
ENCODING -1
SWIDTH 1045 0
DWIDTH 10 0
BBX 12 8 -1 -1
BITMAP
177B777997B4
000700016080
000730582080
078270700080
035080820180
008148687780
001700000070
000004000000
ENDCHAR
STARTCHAR uni0916093C094D0935
ENCODING -1
SWIDTH 972 0
DWIDTH 10 0
BBX 11 8 -1 -1
BITMAP
177B77777B60
000700174700
000746610700
078280700700
035060810800
008100487900
001700000700
000004000000
ENDCHAR
STARTCHAR uni0916093C094D0936
ENCODING -1
SWIDTH 1123 0
DWIDTH 11 0
BBX 13 8 -1 -1
BITMAP
177B7708832A20
00070025163500
00074612263500
07827087813500
03508092003500
00814869003500
00170004302500
00000400000000
ENDCHAR
STARTCHAR uni0916093C094D0938
ENCODING -1
SWIDTH 1066 0
DWIDTH 11 0
BBX 12 8 -1 -1
BITMAP
177B777997B5
000700044070
000746043070
0782708A8890
035080830070
007147590070
001700053070
000004000000
ENDCHAR
STARTCHAR uni091C093C094D091C093C
ENCODING -1
SWIDTH 934 0
DWIDTH 9 0
BBX 11 8 -1 -1
BITMAP
17777777A810
000000006200
029963A8B200
000800346200
000800356200
058427816200
000000005200
013002200000
ENDCHAR
STARTCHAR uni091C093C094D092F
ENCODING -1
SWIDTH 893 0
DWIDTH 9 0
BBX 10 8 -1 -1
BITMAP
177777B7B7
0000007070
0289896070
0008070070
0008080090
05840577A0
0000000070
0130000000
ENDCHAR
STARTCHAR uni092B093C094D091C093C
ENCODING -1
SWIDTH 1100 0
DWIDTH 11 0
BBX 13 8 -1 -1
BITMAP
1997B77777A810
03407000006100
03407763A8B100
02509100446100
0077A000446100
00007027816100
00007000006100
00400003100000
ENDCHAR
STARTCHAR uni092B093C094D0924
ENCODING -1
SWIDTH 1036 0
DWIDTH 10 0
BBX 12 8 -1 -1
BITMAP
1997B77777B3
034070000170
034073187870
025090070170
0077A0070170
000070070170
000070075160
004000000000
ENDCHAR
STARTCHAR uni092B093C094D092B093C
ENCODING -1
SWIDTH 1256 0
DWIDTH 13 0
BBX 14 8 -1 -1
BITMAP
1997B77B7A8775
03407007058750
03407787054070
02509108063070
0077A006793070
00007000053750
00007000052000
00400003100000
ENDCHAR
STARTCHAR uni092B093C094D0938
ENCODING -1
SWIDTH 1141 0
DWIDTH 11 0
BBX 13 8 -1 -1
BITMAP
1997B777B77B40
03407770700700
03407225700700
0250900BA88700
0077A007100700
00007002600700
00007000710700
00400000000000
ENDCHAR
STARTCHAR uni092C094D091C093C
ENCODING -1
SWIDTH 883 0
DWIDTH 9 0
BBX 10 8 -1 -1
BITMAP
17777777B7
0000000070
016007A8B0
0555006170
0534406270
0187977070
0000000070
0000040000
ENDCHAR
STARTCHAR uni0932094D091C093C
ENCODING -1
SWIDTH 1062 0
DWIDTH 11 0
BBX 12 8 -1 -1
BITMAP
1777777777B3
000000000170
007856399870
044180008170
043030008170
043001783170
019500000160
000000320000
ENDCHAR
STARTCHAR uni0936094D0915093C
ENCODING -1
SWIDTH 1093 0
DWIDTH 11 0
BBX 11 8 0 -1
BITMAP
1982677B7770
3225382A7700
003570080440
688070070350
260080180440
071038775700
017000070000
000004000000
ENDCHAR
STARTCHAR uni0924094D0924094D
ENCODING -1
SWIDTH 309 0
DWIDTH 3 0
BBX 6 7 -1 0
BITMAP
177771
000000
05A881
007000
007000
007000
007600
ENDCHAR
STARTCHAR uni0928094D092D094D
ENCODING -1
SWIDTH 505 0
DWIDTH 5 0
BBX 8 5 -1 2
BITMAP
17776071
00007000
00007000
0477B771
05007000
ENDCHAR
STARTCHAR uni0928094D0938094D
ENCODING -1
SWIDTH 635 0
DWIDTH 6 0
BBX 9 7 -1 0
BITMAP
177778A730
0000025000
0388444000
07009A8840
0300440000
0000080000
0000044000
ENDCHAR
STARTCHAR uni092E094D092D094D
ENCODING -1
SWIDTH 533 0
DWIDTH 5 0
BBX 8 5 -1 2
BITMAP
19978053
03407000
03407000
0397B773
03407000
ENDCHAR
STARTCHAR uni0932094D092D094D
ENCODING -1
SWIDTH 694 0
DWIDTH 7 0
BBX 9 7 -1 0
BITMAP
1777786070
0000008000
0078589000
044080A770
0430607000
0430002000
0195000000
ENDCHAR
STARTCHAR uni0938094D0924094D0930094D
ENCODING -1
SWIDTH 575 0
DWIDTH 6 0
BBX 8 7 -1 0
BITMAP
178A7771
00250000
00340876
07A88307
04500008
00800182
00351810
ENDCHAR
STARTCHAR uni0915094D0924094D092F
ENCODING -1
SWIDTH 1356 0
DWIDTH 14 0
BBX 15 7 -1 0
BITMAP
1777B777778A7B50
0075878100070700
0530800B89930700
0610701706100700
0530801604300900
0077901600777800
0000700840000700
ENDCHAR
STARTCHAR uni0915094D0924094D0930
ENCODING -1
SWIDTH 997 0
DWIDTH 10 0
BBX 11 7 -1 0
BITMAP
1777B7777B70
007577810710
0530802A7A10
061070430810
053080110A10
007790018810
000070181610
ENDCHAR
STARTCHAR uni0915094D0924094D0935
ENCODING -1
SWIDTH 1242 0
DWIDTH 12 0
BBX 14 7 -1 0
BITMAP
1777B7777777B4
00757781027270
0530802B890070
06107062070070
05308061080180
00879061048770
00007028200070
ENDCHAR
STARTCHAR uni0915094D092A094D0930
ENCODING -1
SWIDTH 1007 0
DWIDTH 10 0
BBX 12 7 -1 0
BITMAP
1777B78A7A81
007587850520
053080250520
061070160620
053080068B20
007790017520
000070071520
ENDCHAR
STARTCHAR uni0915094D0935094D092F
ENCODING -1
SWIDTH 1384 0
DWIDTH 14 0
BBX 15 7 -1 0
BITMAP
1777B777777B7B70
0075878770070700
0530800801950700
0610701702500700
0530900704700900
0188900688577A00
0000700000000700
ENDCHAR
STARTCHAR uni0915094D0938094D091F
ENCODING -1
SWIDTH 1376 0
DWIDTH 14 0
BBX 15 7 -1 0
BITMAP
1777B777A8777B60
0075878152000700
0530801661188700
0610700BA8A20000
0530800710610230
0077900170510430
0000700061187800
ENDCHAR
STARTCHAR uni0915094D0938094D0921
ENCODING -1
SWIDTH 1388 0
DWIDTH 14 0
BBX 15 7 -1 0
BITMAP
1777B777A8777B70
0075778152000700
0530801661088900
0610700BA8860000
0530900710057810
0188900170230440
0000700061097920
ENDCHAR
STARTCHAR uni0915094D0938094D0924
ENCODING -1
SWIDTH 1423 0
DWIDTH 14 0
BBX 16 7 -1 0
BITMAP
1777B777A87778A2
0075878152000350
0530801661067950
0610700BA8870350
0530800710160350
0077900170160350
0000700061084250
ENDCHAR
STARTCHAR uni0915094D0938094D092A094D0930
ENCODING -1
SWIDTH 1437 0
DWIDTH 14 0
BBX 16 7 -1 0
BITMAP
1777B777A87B77B3
0075878152070070
0530801661070070
0610700BA8890270
0530800710047970
0077900170007270
0000700061053070
ENDCHAR
STARTCHAR uni0915094D0938094D092A094D0932
ENCODING -1
SWIDTH 1866 0
DWIDTH 19 0
BBX 20 7 -1 0
BITMAP
1777B777A87B777777B5
00758781520700000070
05308016610701886890
0610700BA88906227080
0530800710048A103070
00779001700005200070
00007000610001850070
ENDCHAR
STARTCHAR uni0917094D0927094D092F
ENCODING -1
SWIDTH 1156 0
DWIDTH 12 0
BBX 13 7 -1 0
BITMAP
17B7B8178A7B50
00708000070800
00704A34830800
00807006100800
06407004300900
00002876777800
00000000000700
ENDCHAR
STARTCHAR uni0917094D0927094D0935
ENCODING -1
SWIDTH 1084 0
DWIDTH 11 0
BBX 12 7 -1 0
BITMAP
17B7B81777B7
007080007570
00704A343070
008070062070
064070053080
0000287777A0
000000000070
ENDCHAR
STARTCHAR uni0917094D0928094D092F
ENCODING -1
SWIDTH 1069 0
DWIDTH 11 0
BBX 12 7 -1 0
BITMAP
17B77778B7B6
007000007070
007067884070
008070430070
074050250090
000000067780
000000000070
ENDCHAR
STARTCHAR uni0917094D092D094D092F
ENCODING -1
SWIDTH 1102 0
DWIDTH 11 0
BBX 13 7 -1 0
BITMAP
17B79057B7A810
00707100706100
00707108606100
00807878006100
06407108007100
00000004779100
00000000005100
ENDCHAR
STARTCHAR uni0917094D0930094D092F
ENCODING -1
SWIDTH 817 0
DWIDTH 8 0
BBX 10 8 -1 -1
BITMAP
17B77B7992
0070052440
0070780440
0080700440
0640800540
0000289A40
0000047340
0000050000
ENDCHAR
STARTCHAR uni091A094D091B094D0935
ENCODING -1
SWIDTH 913 0
DWIDTH 9 0
BBX 11 8 -1 -1
BITMAP
17777B77A820
00000802A200
006107701400
007007000700
008009002500
00478997A200
000008006100
000003876000
ENDCHAR
STARTCHAR uni091C094D091C094D091E
ENCODING -1
SWIDTH 945 0
DWIDTH 9 0
BBX 11 8 -1 -1
BITMAP
177777777B40
000000000800
029A87000800
000807000800
000806780800
058416043800
000018791700
000014000000
ENDCHAR
STARTCHAR uni091C094D091C094D092F
ENCODING -1
SWIDTH 1252 0
DWIDTH 13 0
BBX 14 7 -1 0
BITMAP
1777777778A7B4
00000000007070
028963A8A82070
00080043710070
00080044530180
05842780077780
00000000000070
ENDCHAR
STARTCHAR uni091C094D091C094D0935
ENCODING -1
SWIDTH 1243 0
DWIDTH 12 0
BBX 13 7 -1 0
BITMAP
17777777777B60
00000000074700
029963A8A20700
00080043710700
00080044620800
05842780187900
00000000000700
ENDCHAR
STARTCHAR uni0924094D0915094D092F
ENCODING -1
SWIDTH 1346 0
DWIDTH 13 0
BBX 15 7 -1 0
BITMAP
1777777B77997B40
0000172700160700
0088A00A79820700
0430700807000700
0520801806201800
0520387701777700
0192000700000700
ENDCHAR
STARTCHAR uni0924094D0915094D0930
ENCODING -1
SWIDTH 995 0
DWIDTH 10 0
BBX 11 8 -1 -1
BITMAP
1777777B7770
0000172A7700
0088A0080340
043070070250
052080180340
052038A75700
019207270000
000013000000
ENDCHAR
STARTCHAR uni0924094D0915094D0935
ENCODING -1
SWIDTH 1282 0
DWIDTH 13 0
BBX 14 7 -1 0
BITMAP
1777777B7777B6
00001729787570
0088A008063070
04307007061070
05208018053080
052038770187A0
01920007000070
ENDCHAR
STARTCHAR uni0924094D0915094D0937
ENCODING -1
SWIDTH 943 0
DWIDTH 9 0
BBX 11 7 -1 0
BITMAP
177748760B40
000008070700
008879897800
053071000700
052061060700
052028890700
019200070700
ENDCHAR
STARTCHAR uni0924094D0916094D0930
ENCODING -1
SWIDTH 1008 0
DWIDTH 10 0
BBX 12 8 -1 -1
BITMAP
177777B77A81
000000700520
018860837520
053088380520
052026070620
052007138B20
019201717520
000000031000
ENDCHAR
STARTCHAR uni0924094D0924094D092F
ENCODING -1
SWIDTH 888 0
DWIDTH 9 0
BBX 10 7 -1 0
BITMAP
177777B7B7
0000007070
05A8707070
00702A5070
0070170090
00700577A0
0076000070
ENDCHAR
STARTCHAR uni0924094D0924094D0935
ENCODING -1
SWIDTH 788 0
DWIDTH 8 0
BBX 9 7 -1 0
BITMAP
1777777B70
0000065700
05A8930700
0070520700
0070440900
0070077A00
0076000700
ENDCHAR
STARTCHAR uni0924094D0928094D092F
ENCODING -1
SWIDTH 1098 0
DWIDTH 11 0
BBX 13 7 -1 0
BITMAP
17777777B7A810
00000000706100
01876779606100
05307007006100
05203007008100
0520000477A100
01920000006100
ENDCHAR
STARTCHAR uni0924094D092A094D0930
ENCODING -1
SWIDTH 763 0
DWIDTH 8 0
BBX 9 7 -1 0
BITMAP
1777B77B50
0000700700
0088B00700
0430700900
052027A900
0520044700
0192260700
ENDCHAR
STARTCHAR uni0924094D092A094D0932
ENCODING -1
SWIDTH 1219 0
DWIDTH 12 0
BBX 14 7 -1 0
BITMAP
1777B777777992
00007000000340
0088A005878940
04307008080440
05202888030340
05200007000340
01920005710340
ENDCHAR
STARTCHAR uni0924094D092E094D092F
ENCODING -1
SWIDTH 1096 0
DWIDTH 11 0
BBX 12 7 -1 0
BITMAP
1777B777B7B7
000070007071
0088A0096071
043087770071
052070080081
0520000477A1
019200000061
ENDCHAR
STARTCHAR uni0924094D0930094D092F
ENCODING -1
SWIDTH 848 0
DWIDTH 8 0
BBX 10 7 -1 0
BITMAP
17777997B4
0000007070
0188416070
0530881070
0210910180
0007277780
0181000070
ENDCHAR
STARTCHAR uni0924094D0938094D092F
ENCODING -1
SWIDTH 1234 0
DWIDTH 12 0
BBX 14 7 -1 0
BITMAP
177777B77A88A3
00000070035160
01877070681160
05306A98A00160
05201700710360
05200620177760
01920170000160
ENDCHAR
STARTCHAR uni0924094D0938094D0935
ENCODING -1
SWIDTH 1155 0
DWIDTH 12 0
BBX 13 7 -1 0
BITMAP
177777B7777B50
00000070283700
01887070700700
05306A98A00700
05201700800800
05200620287800
01920170000700
ENDCHAR
STARTCHAR uni0926094D0917094D0930
ENCODING -1
SWIDTH 493 0
DWIDTH 5 0
BBX 6 9 -1 -2
BITMAP
1777B7
000070
008890
044000
043042
008993
004473
038483
002621
ENDCHAR
STARTCHAR uni0926094D092C094D0930
ENCODING -1
SWIDTH 483 0
DWIDTH 5 0
BBX 6 10 -1 -3
BITMAP
1777B7
000070
007890
044000
052010
034062
00C8A2
026672
0078A0
000810
ENDCHAR
STARTCHAR uni0926094D092F094D092D
ENCODING -1
SWIDTH 607 0
DWIDTH 6 0
BBX 8 9 -1 -2
BITMAP
17799A81
00782520
01600520
00A60520
01700620
0077AB20
03617520
023A0520
00042520
ENDCHAR
STARTCHAR uni0926094D092F094D0930
ENCODING -1
SWIDTH 595 0
DWIDTH 6 0
BBX 7 8 -1 -1
BITMAP
177A8B70
00881700
03500700
00B60700
03400700
03400700
00877B00
00022000
ENDCHAR
STARTCHAR uni0927094D0928094D092F
ENCODING -1
SWIDTH 1138 0
DWIDTH 11 0
BBX 13 7 -1 0
BITMAP
18B35777A87B30
04400000150700
01B50000250700
02301879810700
04403407002700
00777502877700
00000000000700
ENDCHAR
STARTCHAR uni0928094D0915094D0938
ENCODING -1
SWIDTH 1384 0
DWIDTH 14 0
BBX 15 7 -1 0
BITMAP
1777778A777B7B70
0000373974170800
0000502607160800
0400702508A88B00
0400803502600800
0000577500800800
0000002500260700
ENDCHAR
STARTCHAR uni0928094D0924094D092F
ENCODING -1
SWIDTH 1073 0
DWIDTH 11 0
BBX 12 7 -1 0
BITMAP
17777778B7B6
000000007070
000027894070
047770340070
060070250090
000070067790
000085000070
ENDCHAR
STARTCHAR uni0928094D0924094D0930
ENCODING -1
SWIDTH 732 0
DWIDTH 7 0
BBX 9 7 -1 0
BITMAP
1777778A30
0000001600
0000377600
0487802600
0700601600
0000037600
0000551600
ENDCHAR
STARTCHAR uni0928094D0924094D0938
ENCODING -1
SWIDTH 1134 0
DWIDTH 11 0
BBX 13 7 -1 0
BITMAP
17777777B78A30
00000000801600
00004881801600
0300702BA88600
05007008001600
00007002601600
00007500801600
ENDCHAR
STARTCHAR uni0928094D0925094D092F
ENCODING -1
SWIDTH 1168 0
DWIDTH 12 0
BBX 13 7 -1 0
BITMAP
177468638B7B60
00005070070700
00000073840700
04889834300700
06008004500900
00004777777800
00000000000700
ENDCHAR
STARTCHAR uni0928094D0925094D0935
ENCODING -1
SWIDTH 1089 0
DWIDTH 11 0
BBX 12 7 -1 0
BITMAP
1774686377B7
000040707570
000000734070
048898353070
060080054080
0000477687A0
000000000070
ENDCHAR
STARTCHAR uni0928094D0926094D0930
ENCODING -1
SWIDTH 734 0
DWIDTH 7 0
BBX 9 8 -1 -1
BITMAP
1777777B30
0000001700
0000488500
0477900000
0400800700
000058B800
0000055700
0000040000
ENDCHAR
STARTCHAR uni0928094D0926094D0935
ENCODING -1
SWIDTH 732 0
DWIDTH 7 0
BBX 9 9 -1 -2
BITMAP
1777778A30
0000001600
0000488400
0477900000
0500800500
0000797800
0000700700
0000701700
0000478200
ENDCHAR
STARTCHAR uni0928094D0927094D092F
ENCODING -1
SWIDTH 1097 0
DWIDTH 11 0
BBX 12 7 -1 0
BITMAP
1777C447B7B7
000070007071
0387D7096071
070070070071
030070070081
0000677677A1
000000000061
ENDCHAR
STARTCHAR uni0928094D0927094D0930
ENCODING -1
SWIDTH 783 0
DWIDTH 8 0
BBX 9 8 -1 -1
BITMAP
1777B44B70
0000700700
0000700700
0477C70700
0500800800
000078BA00
0000055700
0000040000
ENDCHAR
STARTCHAR uni0928094D0927094D0935
ENCODING -1
SWIDTH 1036 0
DWIDTH 10 0
BBX 12 7 -1 0
BITMAP
1777C34777B3
000070047270
0387D7080070
070070080070
030070080270
000067767770
000000000070
ENDCHAR
STARTCHAR uni0928094D0928094D092F
ENCODING -1
SWIDTH 1071 0
DWIDTH 11 0
BBX 12 7 -1 0
BITMAP
17777778B7B6
000000007070
0487A7884070
070070440070
030030260090
000000067790
000000000070
ENDCHAR
STARTCHAR uni0928094D092A094D0930
ENCODING -1
SWIDTH 737 0
DWIDTH 7 0
BBX 9 7 -1 0
BITMAP
1777B77B30
0000700700
0387800700
0700702700
0400479700
0000072700
0000530700
ENDCHAR
STARTCHAR uni0928094D092B094D0930
ENCODING -1
SWIDTH 975 0
DWIDTH 10 0
BBX 11 7 -1 0
BITMAP
1777B78A7760
0000702A7600
038780260610
070070350520
050037A50610
000008356600
000062250000
ENDCHAR
STARTCHAR uni0928094D092D094D092F
ENCODING -1
SWIDTH 1071 0
DWIDTH 11 0
BBX 12 7 -1 0
BITMAP
17776078B7B6
000070007070
000070384070
0477B7940070
050070350090
000000067790
000000000070
ENDCHAR
STARTCHAR uni0928094D092D094D0935
ENCODING -1
SWIDTH 995 0
DWIDTH 10 0
BBX 11 7 -1 0
BITMAP
177760777B70
000070066700
000070250700
0477B7940700
040060350800
000000077A00
000000000600
ENDCHAR
STARTCHAR uni0928094D092E094D092F
ENCODING -1
SWIDTH 1071 0
DWIDTH 11 0
BBX 12 7 -1 0
BITMAP
1777B778B7B6
000070007070
000070384070
0477B7940070
050070350090
000000067790
000000000070
ENDCHAR
STARTCHAR uni0928094D0938094D091F
ENCODING -1
SWIDTH 1113 0
DWIDTH 11 0
BBX 13 7 -1 0
BITMAP
17777A8777A820
00000620006100
03882610401000
0700BA88700000
05007101700400
00001700700700
00000610778300
ENDCHAR
STARTCHAR uni0928094D0938094D092E094D092F
ENCODING -1
SWIDTH 1453 0
DWIDTH 15 0
BBX 16 7 -1 0
BITMAP
17777B77B779A7B4
0000070080007070
0388270080582070
0700BA77B7B10070
0400710070530180
0000170010077780
0000071000000070
ENDCHAR
STARTCHAR uni0928094D0938094D092F
ENCODING -1
SWIDTH 1194 0
DWIDTH 12 0
BBX 13 7 -1 0
BITMAP
17777B777B7B70
00000700070700
03882701950700
0700BA88600700
04007100700900
00001700577A00
00000710000700
ENDCHAR
STARTCHAR uni092A094D0924094D092F
ENCODING -1
SWIDTH 1119 0
DWIDTH 11 0
BBX 13 7 -1 0
BITMAP
19977777B89920
03400000533400
0340188A803400
02507107003400
0078B007005400
00007102778400
00002810003400
ENDCHAR
STARTCHAR uni092C094D091C094D092F
ENCODING -1
SWIDTH 1235 0
DWIDTH 12 0
BBX 14 7 -1 0
BITMAP
177777777A87B3
00000000025170
016007A8A81170
05460062700170
05344062710270
01879770187770
00000000000160
ENDCHAR
STARTCHAR uni092C094D0927094D0935
ENCODING -1
SWIDTH 1097 0
DWIDTH 11 0
BBX 12 7 -1 0
BITMAP
17779A2477A7
007562007661
05811B435061
062752044061
0531B2035071
0077587777A1
000000000061
ENDCHAR
STARTCHAR uni092C094D092D094D0930
ENCODING -1
SWIDTH 764 0
DWIDTH 8 0
BBX 9 7 -1 0
BITMAP
1777805B50
0085700700
05A1700700
0639887900
0532D04900
0077635700
0000170700
ENDCHAR
STARTCHAR uni092C094D0932094D092F
ENCODING -1
SWIDTH 480 0
DWIDTH 5 0
BBX 15 7 -1 0
BITMAP
1777777777B79920
0075187571523400
05B1523605523400
0547712509703400
0533A11306005400
0087820002778400
0000074000003400
ENDCHAR
STARTCHAR uni092D094D0930094D092F
ENCODING -1
SWIDTH 830 0
DWIDTH 8 0
BBX 10 7 -1 0
BITMAP
19137A88A3
0340034160
0340681160
0397900160
0342B00360
0017287760
0071000150
ENDCHAR
STARTCHAR uni092E094D092A094D0930
ENCODING -1
SWIDTH 765 0
DWIDTH 8 0
BBX 9 7 -1 0
BITMAP
1997B77B50
0340700700
0340700700
0397B00900
023027A900
0000044700
0000260700
ENDCHAR
STARTCHAR uni092E094D092C094D092F
ENCODING -1
SWIDTH 1124 0
DWIDTH 11 0
BBX 13 7 -1 0
BITMAP
19977777B88A20
03402830432500
03407607702500
0397A347002500
0340804B004500
00003875778500
00000000002500
ENDCHAR
STARTCHAR uni092E094D092C094D0930
ENCODING -1
SWIDTH 768 0
DWIDTH 8 0
BBX 9 8 -1 -1
BITMAP
1997777B50
0340184700
0340770700
0397A35700
0230804A00
000027A900
0000055700
0000040000
ENDCHAR
STARTCHAR uni092E094D092D094D092F
ENCODING -1
SWIDTH 1101 0
DWIDTH 11 0
BBX 13 7 -1 0
BITMAP
19978057B7A810
03407000706100
03407009606100
0397B878006100
03407008008100
00000004779100
00000000006100
ENDCHAR
STARTCHAR uni092E094D092D094D0930
ENCODING -1
SWIDTH 759 0
DWIDTH 8 0
BBX 9 7 -1 0
BITMAP
1997806B50
0340700700
0340700700
0397B77900
0340705900
0000035700
0000170700
ENDCHAR
STARTCHAR uni092E094D092D094D0935
ENCODING -1
SWIDTH 1028 0
DWIDTH 10 0
BBX 12 7 -1 0
BITMAP
1997805778A3
034070047250
034070070250
0397B8780250
033060080350
000000057750
000000000150
ENDCHAR
STARTCHAR uni0932094D0915094D092F
ENCODING -1
SWIDTH 1534 0
DWIDTH 15 0
BBX 17 7 -1 0
BITMAP
177777777B77A88A30
000000272700351600
007878900A79811600
044080700807001600
043050802707103600
043000487701877600
019500000600001600
ENDCHAR
STARTCHAR uni0932094D0925094D092F
ENCODING -1
SWIDTH 1397 0
DWIDTH 14 0
BBX 16 7 -1 0
BITMAP
17777538827B7A81
0000006170070610
0032713070960610
0430709860700610
0430507000800810
0430002777577A10
0196000000000610
ENDCHAR
STARTCHAR uni0932094D0926094D0930
ENCODING -1
SWIDTH 933 0
DWIDTH 9 0
BBX 11 8 -1 -1
BITMAP
177777777B30
000000001700
007858788500
044080800000
043040800700
04300058B800
019500055700
000000040000
ENDCHAR
STARTCHAR uni0932094D0932094D092F
ENCODING -1
SWIDTH 1476 0
DWIDTH 15 0
BBX 16 7 -1 0
BITMAP
177777777778B7B6
0077487847507070
0351809081417070
0430707070394070
0430407040150090
0440007000057790
0096006810000070
ENDCHAR
STARTCHAR uni0932094D0935094D0921
ENCODING -1
SWIDTH 1247 0
DWIDTH 12 0
BBX 14 7 -1 0
BITMAP
177777777777B4
00000027200070
00785870038860
04408070070000
04305080044450
04300047760070
01950000077870
ENDCHAR
STARTCHAR uni0937094D0915094D0930
ENCODING -1
SWIDTH 1042 0
DWIDTH 10 0
BBX 12 8 -1 -1
BITMAP
19B7777B7774
037307677830
034545072070
025094070070
007885080070
000007AC2830
000002770000
000004000000
ENDCHAR
STARTCHAR uni0937094D091F094D092F
ENCODING -1
SWIDTH 997 0
DWIDTH 10 0
BBX 12 7 -1 0
BITMAP
19C798777B81
036649781710
0253B2044710
016020781710
043002700810
043015287A10
018781000610
ENDCHAR
STARTCHAR uni0937094D091F094D0930
ENCODING -1
SWIDTH 493 0
DWIDTH 5 0
BBX 6 9 -1 -2
BITMAP
19C798
037543
025393
00A791
043000
053016
018782
004760
007071
ENDCHAR
STARTCHAR uni0937094D091F094D0935
ENCODING -1
SWIDTH 493 0
DWIDTH 5 0
BBX 6 10 -1 -3
BITMAP
19C7A8
037553
025493
00A891
044001
043016
01A8A2
026061
034070
007750
ENDCHAR
STARTCHAR uni0937094D0920094D092F
ENCODING -1
SWIDTH 1006 0
DWIDTH 10 0
BBX 11 7 0 0
BITMAP
8EFFA777A810
3FFFA7815200
1EFE20255200
183636815200
430167107200
440161879200
086820005200
ENDCHAR
STARTCHAR uni0937094D0920094D0930
ENCODING -1
SWIDTH 512 0
DWIDTH 5 0
BBX 7 9 -1 -2
BITMAP
19EFF920
03FFF400
02FFE300
00BAB100
04302500
04301600
01978200
00656000
00404000
ENDCHAR
STARTCHAR uni0937094D0923094D092F
ENCODING -1
SWIDTH 1273 0
DWIDTH 13 0
BBX 14 7 -1 0
BITMAP
19B7997B78B7B6
03834307007070
03456307284070
0250A407340070
00675772260090
00000000067790
00000000000070
ENDCHAR
STARTCHAR uni0937094D092A094D0930
ENCODING -1
SWIDTH 798 0
DWIDTH 8 0
BBX 10 7 -1 0
BITMAP
19B7997A81
0393440610
0346540610
0260940810
0078569B10
0000027610
0000080610
ENDCHAR
STARTCHAR uni0937094D092E094D092F
ENCODING -1
SWIDTH 1121 0
DWIDTH 11 0
BBX 13 7 -1 0
BITMAP
19B79977B89920
03824400533400
03454407703400
02509979003400
00787308005400
00000002877400
00000000003400
ENDCHAR
STARTCHAR uni0938094D0915094D0930
ENCODING -1
SWIDTH 1084 0
DWIDTH 11 0
BBX 12 8 -1 -1
BITMAP
178A7777B777
00250372A770
003407008053
07A889007044
045008027053
0080048A7670
003500827000
000001300000
ENDCHAR
STARTCHAR uni0938094D0915094D0935
ENCODING -1
SWIDTH 1369 0
DWIDTH 14 0
BBX 15 7 -1 0
BITMAP
178A7777B7777B60
00250372A7784700
0034070080710700
07A8890070800700
0450080270710900
0080048770187900
0035000070000700
ENDCHAR
STARTCHAR uni0938094D0924094D092F
ENCODING -1
SWIDTH 1185 0
DWIDTH 12 0
BBX 13 7 -1 0
BITMAP
178A77777B7B70
00250000070700
00340388950700
07A88902600700
04500700700900
00800800577A00
00350670000700
ENDCHAR
STARTCHAR uni0938094D0924094D0930
ENCODING -1
SWIDTH 818 0
DWIDTH 8 0
BBX 10 7 -1 0
BITMAP
178A777992
0025000340
0034077940
07A8850540
0450000740
0080007740
0035082340
ENDCHAR
STARTCHAR uni0938094D0924094D0935
ENCODING -1
SWIDTH 1126 0
DWIDTH 11 0
BBX 13 7 -1 0
BITMAP
178A7777778A30
00250000373500
00340478802500
07A88900702500
04500700803500
00800700578500
00350670002500
ENDCHAR
STARTCHAR uni0938094D0925094D092F
ENCODING -1
SWIDTH 1303 0
DWIDTH 13 0
BBX 15 7 -1 0
BITMAP
178A538817B7A810
0025040700706200
0034000709706200
07A8898507006200
0450070009007200
0080027775779200
0035000000006200
ENDCHAR
STARTCHAR uni0938094D092A094D0930
ENCODING -1
SWIDTH 850 0
DWIDTH 9 0
BBX 10 7 -1 0
BITMAP
178A7B77B4
0025070070
0034070070
07A88A0180
0450037A80
0080006270
0035044070
ENDCHAR
STARTCHAR uni0938094D092E094D092F
ENCODING -1
SWIDTH 1189 0
DWIDTH 12 0
BBX 13 7 -1 0
BITMAP
178A7B777B7B70
00250700070700
00340701960700
07A88B88600700
04500700700900
00800100577A00
00350000000700
ENDCHAR
STARTCHAR uni093F.a01
ENCODING -1
SWIDTH 231 0
DWIDTH 2 0
BBX 6 10 -1 0
BITMAP
008887
016007
016001
18A300
016000
016000
016000
016000
016000
016000
ENDCHAR
STARTCHAR uni093F.a04
ENCODING -1
SWIDTH 231 0
DWIDTH 2 0
BBX 8 10 -1 0
BITMAP
00888791
01600034
01600001
18A30000
01600000
01600000
01600000
01600000
01600000
01600000
ENDCHAR
STARTCHAR uni093F.a05
ENCODING -1
SWIDTH 231 0
DWIDTH 2 0
BBX 8 10 -1 0
BITMAP
00888886
01600007
01600001
18A30000
01600000
01600000
01600000
01600000
01600000
01600000
ENDCHAR
STARTCHAR uni093F.a06
ENCODING -1
SWIDTH 231 0
DWIDTH 2 0
BBX 9 10 -1 0
BITMAP
0088887910
0160000430
0160000110
18A3000000
0160000000
0160000000
0160000000
0160000000
0160000000
0160000000
ENDCHAR
STARTCHAR uni093F.a07
ENCODING -1
SWIDTH 231 0
DWIDTH 2 0
BBX 9 10 -1 0
BITMAP
0088888850
0160000070
0160000010
18A3000000
0160000000
0160000000
0160000000
0160000000
0160000000
0160000000
ENDCHAR
STARTCHAR uni093F.a08
ENCODING -1
SWIDTH 231 0
DWIDTH 2 0
BBX 10 10 -1 0
BITMAP
0088888790
0160000052
0160000010
18A3000000
0160000000
0160000000
0160000000
0160000000
0160000000
0160000000
ENDCHAR
STARTCHAR uni093F.a09
ENCODING -1
SWIDTH 231 0
DWIDTH 2 0
BBX 10 10 -1 0
BITMAP
0088888885
0160000007
0160000001
18A3000000
0160000000
0160000000
0160000000
0160000000
0160000000
0160000000
ENDCHAR
STARTCHAR uni093F.a10
ENCODING -1
SWIDTH 231 0
DWIDTH 2 0
BBX 11 10 -1 0
BITMAP
008888887800
016000000620
016000000100
18A300000000
016000000000
016000000000
016000000000
016000000000
016000000000
016000000000
ENDCHAR
STARTCHAR uni093F.a11
ENCODING -1
SWIDTH 231 0
DWIDTH 2 0
BBX 11 10 -1 0
BITMAP
008888888840
016000000070
016000000010
18A300000000
016000000000
016000000000
016000000000
016000000000
016000000000
016000000000
ENDCHAR
STARTCHAR uni093F.a12
ENCODING -1
SWIDTH 231 0
DWIDTH 2 0
BBX 12 10 -1 0
BITMAP
008888888780
016000000071
016000000010
18A300000000
016000000000
016000000000
016000000000
016000000000
016000000000
016000000000
ENDCHAR
STARTCHAR uni093F.a13
ENCODING -1
SWIDTH 231 0
DWIDTH 2 0
BBX 12 10 -1 0
BITMAP
008888888893
016000000007
016000000001
18A300000000
016000000000
016000000000
016000000000
016000000000
016000000000
016000000000
ENDCHAR
STARTCHAR uni093F.a14
ENCODING -1
SWIDTH 231 0
DWIDTH 2 0
BBX 12 10 -1 0
BITMAP
008888888888
016000000007
016000000001
18A300000000
016000000000
016000000000
016000000000
016000000000
016000000000
016000000000
ENDCHAR
STARTCHAR uni093F.a15
ENCODING -1
SWIDTH 231 0
DWIDTH 2 0
BBX 13 10 -1 0
BITMAP
00888888888830
01600000000070
01600000000010
18A30000000000
01600000000000
01600000000000
01600000000000
01600000000000
01600000000000
01600000000000
ENDCHAR
STARTCHAR uni093F.a16
ENCODING -1
SWIDTH 231 0
DWIDTH 2 0
BBX 13 10 -1 0
BITMAP
00888888888770
01600000000070
01600000000010
18A30000000000
01600000000000
01600000000000
01600000000000
01600000000000
01600000000000
01600000000000
ENDCHAR
STARTCHAR uni093F.a17
ENCODING -1
SWIDTH 231 0
DWIDTH 2 0
BBX 14 10 -1 0
BITMAP
00888888888892
01600000000016
01600000000001
18A30000000000
01600000000000
01600000000000
01600000000000
01600000000000
01600000000000
01600000000000
ENDCHAR
STARTCHAR uni093F.a18
ENCODING -1
SWIDTH 231 0
DWIDTH 2 0
BBX 14 10 -1 0
BITMAP
00888888888887
01600000000007
01600000000001
18A30000000000
01600000000000
01600000000000
01600000000000
01600000000000
01600000000000
01600000000000
ENDCHAR
STARTCHAR uni093F.a19
ENCODING -1
SWIDTH 231 0
DWIDTH 2 0
BBX 15 10 -1 0
BITMAP
0088888888888910
0160000000000250
0160000000000010
18A3000000000000
0160000000000000
0160000000000000
0160000000000000
0160000000000000
0160000000000000
0160000000000000
ENDCHAR
STARTCHAR uni093F.a20
ENCODING -1
SWIDTH 231 0
DWIDTH 2 0
BBX 15 10 -1 0
BITMAP
0088888888888860
0160000000000070
0160000000000010
18A3000000000000
0160000000000000
0160000000000000
0160000000000000
0160000000000000
0160000000000000
0160000000000000
ENDCHAR
STARTCHAR uni093F.a21
ENCODING -1
SWIDTH 231 0
DWIDTH 2 0
BBX 16 10 -1 0
BITMAP
0088888888888791
0160000000000034
0160000000000001
18A3000000000000
0160000000000000
0160000000000000
0160000000000000
0160000000000000
0160000000000000
0160000000000000
ENDCHAR
STARTCHAR uni093F.a22
ENCODING -1
SWIDTH 231 0
DWIDTH 2 0
BBX 16 10 -1 0
BITMAP
0088888888888886
0160000000000007
0160000000000001
18A3000000000000
0160000000000000
0160000000000000
0160000000000000
0160000000000000
0160000000000000
0160000000000000
ENDCHAR
STARTCHAR uni093F.a23
ENCODING -1
SWIDTH 231 0
DWIDTH 2 0
BBX 17 10 -1 0
BITMAP
008888888888888910
016000000000000430
016000000000000110
18A300000000000000
016000000000000000
016000000000000000
016000000000000000
016000000000000000
016000000000000000
016000000000000000
ENDCHAR
STARTCHAR uni093F.a24
ENCODING -1
SWIDTH 231 0
DWIDTH 2 0
BBX 17 10 -1 0
BITMAP
008888888888888850
016000000000000070
016000000000000010
18A300000000000000
016000000000000000
016000000000000000
016000000000000000
016000000000000000
016000000000000000
016000000000000000
ENDCHAR
STARTCHAR uni093F.a25
ENCODING -1
SWIDTH 231 0
DWIDTH 2 0
BBX 18 10 -1 0
BITMAP
008888888888888790
016000000000000052
016000000000000010
18A300000000000000
016000000000000000
016000000000000000
016000000000000000
016000000000000000
016000000000000000
016000000000000000
ENDCHAR
STARTCHAR uni093F.a26
ENCODING -1
SWIDTH 231 0
DWIDTH 2 0
BBX 18 10 -1 0
BITMAP
008888888888888884
016000000000000007
016000000000000001
18A300000000000000
016000000000000000
016000000000000000
016000000000000000
016000000000000000
016000000000000000
016000000000000000
ENDCHAR
STARTCHAR uni093F.a32
ENCODING -1
SWIDTH 231 0
DWIDTH 2 0
BBX 22 10 -1 0
BITMAP
0088888888888888888890
0160000000000000000053
0160000000000000000010
18A3000000000000000000
0160000000000000000000
0160000000000000000000
0160000000000000000000
0160000000000000000000
0160000000000000000000
0160000000000000000000
ENDCHAR
STARTCHAR uni093E0901
ENCODING -1
SWIDTH 231 0
DWIDTH 2 0
BBX 4 10 -1 0
BITMAP
0040
5106
1874
18A3
0160
0160
0160
0160
0160
0160
ENDCHAR
STARTCHAR dvNG_GA
ENCODING -1
SWIDTH 562 0
DWIDTH 6 0
BBX 7 11 -1 -4
BITMAP
17778A50
00001600
00878400
03400220
01877400
02100700
01878600
00617000
00707000
04607000
00003000
ENDCHAR
STARTCHAR dvNG_MA
ENCODING -1
SWIDTH 728 0
DWIDTH 7 0
BBX 9 10 -1 -3
BITMAP
1777B78A30
0087802600
0340002600
0187712600
0000522600
0430522600
0187902600
0000B78600
0000702600
0000002500
ENDCHAR
STARTCHAR dvNY_CA
ENCODING -1
SWIDTH 963 0
DWIDTH 10 0
BBX 11 7 -1 0
BITMAP
177777777B50
037400000700
000706A81700
000882800700
000700800800
047500577800
000000000700
ENDCHAR
STARTCHAR dvTT_GA
ENCODING -1
SWIDTH 510 0
DWIDTH 5 0
BBX 7 10 -1 -3
BITMAP
1777A820
00006100
00779100
04400000
05200500
03400700
0098A200
00717000
04707000
00007000
ENDCHAR
STARTCHAR dvTTH_TTHA
ENCODING -1
SWIDTH 511 0
DWIDTH 5 0
BBX 7 11 -1 -4
BITMAP
1777B720
00007000
0088A000
05303400
05403500
0088B000
00589000
03605300
05202500
04403400
00777000
ENDCHAR
STARTCHAR dvDD_GA
ENCODING -1
SWIDTH 541 0
DWIDTH 5 0
BBX 7 11 -1 -4
BITMAP
17778A40
00002500
00878300
03400000
01877400
02100700
01878600
00617000
00707000
04607000
00003000
ENDCHAR
STARTCHAR dvDDH_DDHA
ENCODING -1
SWIDTH 487 0
DWIDTH 5 0
BBX 6 10 -1 -3
BITMAP
1777B7
007780
034000
052482
034425
00B781
034160
043735
034225
007781
ENDCHAR
STARTCHAR dvSHA_MatraVocalicR
ENCODING -1
SWIDTH 558 0
DWIDTH 6 0
BBX 6 10 0 -3
BITMAP
288295
533570
188170
199270
410790
000070
000480
001700
001502
000876
ENDCHAR
STARTCHAR dvT_KH_NA
ENCODING -1
SWIDTH 1341 0
DWIDTH 13 0
BBX 15 7 -1 0
BITMAP
177777B777777B40
0000007000000700
0188508387000700
0530883706700700
0520270706800700
0520072386000700
0192017000000700
ENDCHAR
STARTCHAR dvT_S_NA
ENCODING -1
SWIDTH 1169 0
DWIDTH 12 0
BBX 13 7 -1 0
BITMAP
177777B7777B60
00000070000700
01887070000700
05306A98910700
05201700500700
05200620000700
01920170000700
ENDCHAR
ENDFONT
